G04 #@! TF.GenerationSoftware,KiCad,Pcbnew,(5.0.2)-1*
G04 #@! TF.CreationDate,2019-03-01T11:01:03+00:00*
G04 #@! TF.ProjectId,PCB_Card,5043425f-4361-4726-942e-6b696361645f,02*
G04 #@! TF.SameCoordinates,PX6ddf710PY7643e10*
G04 #@! TF.FileFunction,Paste,Top*
G04 #@! TF.FilePolarity,Positive*
%FSLAX46Y46*%
G04 Gerber Fmt 4.6, Leading zero omitted, Abs format (unit mm)*
G04 Created by KiCad (PCBNEW (5.0.2)-1) date 01/03/2019 11:01:03*
%MOMM*%
%LPD*%
G01*
G04 APERTURE LIST*
%ADD10C,0.150000*%
%ADD11C,0.200000*%
%ADD12R,0.900000X0.800000*%
%ADD13C,0.100000*%
%ADD14C,1.150000*%
%ADD15C,0.250000*%
%ADD16R,0.700000X1.200000*%
%ADD17R,1.000000X1.200000*%
%ADD18R,1.000000X0.800000*%
%ADD19R,1.000000X2.800000*%
%ADD20R,1.300000X1.900000*%
%ADD21R,1.600000X1.300000*%
%ADD22R,1.500000X1.000000*%
%ADD23R,0.450000X1.380000*%
%ADD24R,1.475000X2.100000*%
%ADD25R,2.375000X1.900000*%
%ADD26R,1.175000X1.900000*%
%ADD27R,1.560000X0.650000*%
G04 APERTURE END LIST*
D10*
G36*
X63010000Y53540000D02*
X64370000Y53540000D01*
X64370000Y51800000D01*
X63010000Y51800000D01*
X63010000Y53540000D01*
G37*
X63010000Y53540000D02*
X64370000Y53540000D01*
X64370000Y51800000D01*
X63010000Y51800000D01*
X63010000Y53540000D01*
D11*
X87980000Y50010000D02*
X87980000Y5010000D01*
X-20000Y5010000D02*
G75*
G03X4980000Y10000I5000000J0D01*
G01*
X87980000Y5010000D02*
G75*
G02X82980000Y10000I-5000000J0D01*
G01*
X87980000Y50010000D02*
G75*
G03X82980000Y55010000I-5000000J0D01*
G01*
X-20000Y50010000D02*
G75*
G02X4980000Y55010000I5000000J0D01*
G01*
X-20000Y5010000D02*
X-20000Y50010000D01*
X82980000Y10000D02*
X4980000Y10000D01*
X4980000Y55010000D02*
X82980000Y55010000D01*
D12*
G04 #@! TO.C,Q1*
X57530000Y17170000D03*
X57530000Y19070000D03*
X55530000Y18120000D03*
G04 #@! TD*
D13*
G04 #@! TO.C,C4*
G36*
X54027676Y22382020D02*
X54051944Y22378420D01*
X54075743Y22372459D01*
X54098842Y22364194D01*
X54121021Y22353704D01*
X54142064Y22341092D01*
X54161770Y22326477D01*
X54179948Y22310001D01*
X54639569Y21850380D01*
X54656045Y21832202D01*
X54670660Y21812496D01*
X54683272Y21791453D01*
X54693762Y21769274D01*
X54702027Y21746175D01*
X54707988Y21722376D01*
X54711588Y21698108D01*
X54712792Y21673604D01*
X54711588Y21649100D01*
X54707988Y21624832D01*
X54702027Y21601033D01*
X54693762Y21577934D01*
X54683272Y21555755D01*
X54670660Y21534712D01*
X54656045Y21515006D01*
X54639569Y21496828D01*
X54003172Y20860431D01*
X53984994Y20843955D01*
X53965288Y20829340D01*
X53944245Y20816728D01*
X53922066Y20806238D01*
X53898967Y20797973D01*
X53875168Y20792012D01*
X53850900Y20788412D01*
X53826396Y20787208D01*
X53801892Y20788412D01*
X53777624Y20792012D01*
X53753825Y20797973D01*
X53730726Y20806238D01*
X53708547Y20816728D01*
X53687504Y20829340D01*
X53667798Y20843955D01*
X53649620Y20860431D01*
X53189999Y21320052D01*
X53173523Y21338230D01*
X53158908Y21357936D01*
X53146296Y21378979D01*
X53135806Y21401158D01*
X53127541Y21424257D01*
X53121580Y21448056D01*
X53117980Y21472324D01*
X53116776Y21496828D01*
X53117980Y21521332D01*
X53121580Y21545600D01*
X53127541Y21569399D01*
X53135806Y21592498D01*
X53146296Y21614677D01*
X53158908Y21635720D01*
X53173523Y21655426D01*
X53189999Y21673604D01*
X53826396Y22310001D01*
X53844574Y22326477D01*
X53864280Y22341092D01*
X53885323Y22353704D01*
X53907502Y22364194D01*
X53930601Y22372459D01*
X53954400Y22378420D01*
X53978668Y22382020D01*
X54003172Y22383224D01*
X54027676Y22382020D01*
X54027676Y22382020D01*
G37*
D14*
X53914784Y21585216D03*
D13*
G36*
X52578108Y23831588D02*
X52602376Y23827988D01*
X52626175Y23822027D01*
X52649274Y23813762D01*
X52671453Y23803272D01*
X52692496Y23790660D01*
X52712202Y23776045D01*
X52730380Y23759569D01*
X53190001Y23299948D01*
X53206477Y23281770D01*
X53221092Y23262064D01*
X53233704Y23241021D01*
X53244194Y23218842D01*
X53252459Y23195743D01*
X53258420Y23171944D01*
X53262020Y23147676D01*
X53263224Y23123172D01*
X53262020Y23098668D01*
X53258420Y23074400D01*
X53252459Y23050601D01*
X53244194Y23027502D01*
X53233704Y23005323D01*
X53221092Y22984280D01*
X53206477Y22964574D01*
X53190001Y22946396D01*
X52553604Y22309999D01*
X52535426Y22293523D01*
X52515720Y22278908D01*
X52494677Y22266296D01*
X52472498Y22255806D01*
X52449399Y22247541D01*
X52425600Y22241580D01*
X52401332Y22237980D01*
X52376828Y22236776D01*
X52352324Y22237980D01*
X52328056Y22241580D01*
X52304257Y22247541D01*
X52281158Y22255806D01*
X52258979Y22266296D01*
X52237936Y22278908D01*
X52218230Y22293523D01*
X52200052Y22309999D01*
X51740431Y22769620D01*
X51723955Y22787798D01*
X51709340Y22807504D01*
X51696728Y22828547D01*
X51686238Y22850726D01*
X51677973Y22873825D01*
X51672012Y22897624D01*
X51668412Y22921892D01*
X51667208Y22946396D01*
X51668412Y22970900D01*
X51672012Y22995168D01*
X51677973Y23018967D01*
X51686238Y23042066D01*
X51696728Y23064245D01*
X51709340Y23085288D01*
X51723955Y23104994D01*
X51740431Y23123172D01*
X52376828Y23759569D01*
X52395006Y23776045D01*
X52414712Y23790660D01*
X52435755Y23803272D01*
X52457934Y23813762D01*
X52481033Y23822027D01*
X52504832Y23827988D01*
X52529100Y23831588D01*
X52553604Y23832792D01*
X52578108Y23831588D01*
X52578108Y23831588D01*
G37*
D14*
X52465216Y23034784D03*
G04 #@! TD*
D13*
G04 #@! TO.C,C5*
G36*
X52070900Y33921588D02*
X52095168Y33917988D01*
X52118967Y33912027D01*
X52142066Y33903762D01*
X52164245Y33893272D01*
X52185288Y33880660D01*
X52204994Y33866045D01*
X52223172Y33849569D01*
X52859569Y33213172D01*
X52876045Y33194994D01*
X52890660Y33175288D01*
X52903272Y33154245D01*
X52913762Y33132066D01*
X52922027Y33108967D01*
X52927988Y33085168D01*
X52931588Y33060900D01*
X52932792Y33036396D01*
X52931588Y33011892D01*
X52927988Y32987624D01*
X52922027Y32963825D01*
X52913762Y32940726D01*
X52903272Y32918547D01*
X52890660Y32897504D01*
X52876045Y32877798D01*
X52859569Y32859620D01*
X52399948Y32399999D01*
X52381770Y32383523D01*
X52362064Y32368908D01*
X52341021Y32356296D01*
X52318842Y32345806D01*
X52295743Y32337541D01*
X52271944Y32331580D01*
X52247676Y32327980D01*
X52223172Y32326776D01*
X52198668Y32327980D01*
X52174400Y32331580D01*
X52150601Y32337541D01*
X52127502Y32345806D01*
X52105323Y32356296D01*
X52084280Y32368908D01*
X52064574Y32383523D01*
X52046396Y32399999D01*
X51409999Y33036396D01*
X51393523Y33054574D01*
X51378908Y33074280D01*
X51366296Y33095323D01*
X51355806Y33117502D01*
X51347541Y33140601D01*
X51341580Y33164400D01*
X51337980Y33188668D01*
X51336776Y33213172D01*
X51337980Y33237676D01*
X51341580Y33261944D01*
X51347541Y33285743D01*
X51355806Y33308842D01*
X51366296Y33331021D01*
X51378908Y33352064D01*
X51393523Y33371770D01*
X51409999Y33389948D01*
X51869620Y33849569D01*
X51887798Y33866045D01*
X51907504Y33880660D01*
X51928547Y33893272D01*
X51950726Y33903762D01*
X51973825Y33912027D01*
X51997624Y33917988D01*
X52021892Y33921588D01*
X52046396Y33922792D01*
X52070900Y33921588D01*
X52070900Y33921588D01*
G37*
D14*
X52134784Y33124784D03*
D13*
G36*
X50621332Y32472020D02*
X50645600Y32468420D01*
X50669399Y32462459D01*
X50692498Y32454194D01*
X50714677Y32443704D01*
X50735720Y32431092D01*
X50755426Y32416477D01*
X50773604Y32400001D01*
X51410001Y31763604D01*
X51426477Y31745426D01*
X51441092Y31725720D01*
X51453704Y31704677D01*
X51464194Y31682498D01*
X51472459Y31659399D01*
X51478420Y31635600D01*
X51482020Y31611332D01*
X51483224Y31586828D01*
X51482020Y31562324D01*
X51478420Y31538056D01*
X51472459Y31514257D01*
X51464194Y31491158D01*
X51453704Y31468979D01*
X51441092Y31447936D01*
X51426477Y31428230D01*
X51410001Y31410052D01*
X50950380Y30950431D01*
X50932202Y30933955D01*
X50912496Y30919340D01*
X50891453Y30906728D01*
X50869274Y30896238D01*
X50846175Y30887973D01*
X50822376Y30882012D01*
X50798108Y30878412D01*
X50773604Y30877208D01*
X50749100Y30878412D01*
X50724832Y30882012D01*
X50701033Y30887973D01*
X50677934Y30896238D01*
X50655755Y30906728D01*
X50634712Y30919340D01*
X50615006Y30933955D01*
X50596828Y30950431D01*
X49960431Y31586828D01*
X49943955Y31605006D01*
X49929340Y31624712D01*
X49916728Y31645755D01*
X49906238Y31667934D01*
X49897973Y31691033D01*
X49892012Y31714832D01*
X49888412Y31739100D01*
X49887208Y31763604D01*
X49888412Y31788108D01*
X49892012Y31812376D01*
X49897973Y31836175D01*
X49906238Y31859274D01*
X49916728Y31881453D01*
X49929340Y31902496D01*
X49943955Y31922202D01*
X49960431Y31940380D01*
X50420052Y32400001D01*
X50438230Y32416477D01*
X50457936Y32431092D01*
X50478979Y32443704D01*
X50501158Y32454194D01*
X50524257Y32462459D01*
X50548056Y32468420D01*
X50572324Y32472020D01*
X50596828Y32473224D01*
X50621332Y32472020D01*
X50621332Y32472020D01*
G37*
D14*
X50685216Y31675216D03*
G04 #@! TD*
D15*
G04 #@! TO.C,U1*
X58481371Y23259542D03*
D13*
G36*
X59029379Y22888311D02*
X58852602Y22711534D01*
X57933363Y23630773D01*
X58110140Y23807550D01*
X59029379Y22888311D01*
X59029379Y22888311D01*
G37*
D15*
X58834924Y23613095D03*
D13*
G36*
X59382932Y23241864D02*
X59206155Y23065087D01*
X58286916Y23984326D01*
X58463693Y24161103D01*
X59382932Y23241864D01*
X59382932Y23241864D01*
G37*
D15*
X59188478Y23966649D03*
D13*
G36*
X59736486Y23595418D02*
X59559709Y23418641D01*
X58640470Y24337880D01*
X58817247Y24514657D01*
X59736486Y23595418D01*
X59736486Y23595418D01*
G37*
D15*
X59542031Y24320202D03*
D13*
G36*
X60090039Y23948971D02*
X59913262Y23772194D01*
X58994023Y24691433D01*
X59170800Y24868210D01*
X60090039Y23948971D01*
X60090039Y23948971D01*
G37*
D15*
X59895584Y24673755D03*
D13*
G36*
X60443592Y24302524D02*
X60266815Y24125747D01*
X59347576Y25044986D01*
X59524353Y25221763D01*
X60443592Y24302524D01*
X60443592Y24302524D01*
G37*
D15*
X60249138Y25027309D03*
D13*
G36*
X60797146Y24656078D02*
X60620369Y24479301D01*
X59701130Y25398540D01*
X59877907Y25575317D01*
X60797146Y24656078D01*
X60797146Y24656078D01*
G37*
D15*
X60602691Y25380862D03*
D13*
G36*
X61150699Y25009631D02*
X60973922Y24832854D01*
X60054683Y25752093D01*
X60231460Y25928870D01*
X61150699Y25009631D01*
X61150699Y25009631D01*
G37*
D15*
X60956245Y25734416D03*
D13*
G36*
X61504253Y25363185D02*
X61327476Y25186408D01*
X60408237Y26105647D01*
X60585014Y26282424D01*
X61504253Y25363185D01*
X61504253Y25363185D01*
G37*
D15*
X61309798Y26087969D03*
D13*
G36*
X61857806Y25716738D02*
X61681029Y25539961D01*
X60761790Y26459200D01*
X60938567Y26635977D01*
X61857806Y25716738D01*
X61857806Y25716738D01*
G37*
D15*
X61663351Y26441522D03*
D13*
G36*
X62211359Y26070291D02*
X62034582Y25893514D01*
X61115343Y26812753D01*
X61292120Y26989530D01*
X62211359Y26070291D01*
X62211359Y26070291D01*
G37*
D15*
X62016905Y26795076D03*
D13*
G36*
X62564913Y26423845D02*
X62388136Y26247068D01*
X61468897Y27166307D01*
X61645674Y27343084D01*
X62564913Y26423845D01*
X62564913Y26423845D01*
G37*
D15*
X62370458Y27148629D03*
D13*
G36*
X62918466Y26777398D02*
X62741689Y26600621D01*
X61822450Y27519860D01*
X61999227Y27696637D01*
X62918466Y26777398D01*
X62918466Y26777398D01*
G37*
D15*
X62370458Y29411371D03*
D13*
G36*
X62741689Y29959379D02*
X62918466Y29782602D01*
X61999227Y28863363D01*
X61822450Y29040140D01*
X62741689Y29959379D01*
X62741689Y29959379D01*
G37*
D15*
X62016905Y29764924D03*
D13*
G36*
X62388136Y30312932D02*
X62564913Y30136155D01*
X61645674Y29216916D01*
X61468897Y29393693D01*
X62388136Y30312932D01*
X62388136Y30312932D01*
G37*
D15*
X61663351Y30118478D03*
D13*
G36*
X62034582Y30666486D02*
X62211359Y30489709D01*
X61292120Y29570470D01*
X61115343Y29747247D01*
X62034582Y30666486D01*
X62034582Y30666486D01*
G37*
D15*
X61309798Y30472031D03*
D13*
G36*
X61681029Y31020039D02*
X61857806Y30843262D01*
X60938567Y29924023D01*
X60761790Y30100800D01*
X61681029Y31020039D01*
X61681029Y31020039D01*
G37*
D15*
X60956245Y30825584D03*
D13*
G36*
X61327476Y31373592D02*
X61504253Y31196815D01*
X60585014Y30277576D01*
X60408237Y30454353D01*
X61327476Y31373592D01*
X61327476Y31373592D01*
G37*
D15*
X60602691Y31179138D03*
D13*
G36*
X60973922Y31727146D02*
X61150699Y31550369D01*
X60231460Y30631130D01*
X60054683Y30807907D01*
X60973922Y31727146D01*
X60973922Y31727146D01*
G37*
D15*
X60249138Y31532691D03*
D13*
G36*
X60620369Y32080699D02*
X60797146Y31903922D01*
X59877907Y30984683D01*
X59701130Y31161460D01*
X60620369Y32080699D01*
X60620369Y32080699D01*
G37*
D15*
X59895584Y31886245D03*
D13*
G36*
X60266815Y32434253D02*
X60443592Y32257476D01*
X59524353Y31338237D01*
X59347576Y31515014D01*
X60266815Y32434253D01*
X60266815Y32434253D01*
G37*
D15*
X59542031Y32239798D03*
D13*
G36*
X59913262Y32787806D02*
X60090039Y32611029D01*
X59170800Y31691790D01*
X58994023Y31868567D01*
X59913262Y32787806D01*
X59913262Y32787806D01*
G37*
D15*
X59188478Y32593351D03*
D13*
G36*
X59559709Y33141359D02*
X59736486Y32964582D01*
X58817247Y32045343D01*
X58640470Y32222120D01*
X59559709Y33141359D01*
X59559709Y33141359D01*
G37*
D15*
X58834924Y32946905D03*
D13*
G36*
X59206155Y33494913D02*
X59382932Y33318136D01*
X58463693Y32398897D01*
X58286916Y32575674D01*
X59206155Y33494913D01*
X59206155Y33494913D01*
G37*
D15*
X58481371Y33300458D03*
D13*
G36*
X58852602Y33848466D02*
X59029379Y33671689D01*
X58110140Y32752450D01*
X57933363Y32929227D01*
X58852602Y33848466D01*
X58852602Y33848466D01*
G37*
D15*
X56218629Y33300458D03*
D13*
G36*
X56766637Y32929227D02*
X56589860Y32752450D01*
X55670621Y33671689D01*
X55847398Y33848466D01*
X56766637Y32929227D01*
X56766637Y32929227D01*
G37*
D15*
X55865076Y32946905D03*
D13*
G36*
X56413084Y32575674D02*
X56236307Y32398897D01*
X55317068Y33318136D01*
X55493845Y33494913D01*
X56413084Y32575674D01*
X56413084Y32575674D01*
G37*
D15*
X55511522Y32593351D03*
D13*
G36*
X56059530Y32222120D02*
X55882753Y32045343D01*
X54963514Y32964582D01*
X55140291Y33141359D01*
X56059530Y32222120D01*
X56059530Y32222120D01*
G37*
D15*
X55157969Y32239798D03*
D13*
G36*
X55705977Y31868567D02*
X55529200Y31691790D01*
X54609961Y32611029D01*
X54786738Y32787806D01*
X55705977Y31868567D01*
X55705977Y31868567D01*
G37*
D15*
X54804416Y31886245D03*
D13*
G36*
X55352424Y31515014D02*
X55175647Y31338237D01*
X54256408Y32257476D01*
X54433185Y32434253D01*
X55352424Y31515014D01*
X55352424Y31515014D01*
G37*
D15*
X54450862Y31532691D03*
D13*
G36*
X54998870Y31161460D02*
X54822093Y30984683D01*
X53902854Y31903922D01*
X54079631Y32080699D01*
X54998870Y31161460D01*
X54998870Y31161460D01*
G37*
D15*
X54097309Y31179138D03*
D13*
G36*
X54645317Y30807907D02*
X54468540Y30631130D01*
X53549301Y31550369D01*
X53726078Y31727146D01*
X54645317Y30807907D01*
X54645317Y30807907D01*
G37*
D15*
X53743755Y30825584D03*
D13*
G36*
X54291763Y30454353D02*
X54114986Y30277576D01*
X53195747Y31196815D01*
X53372524Y31373592D01*
X54291763Y30454353D01*
X54291763Y30454353D01*
G37*
D15*
X53390202Y30472031D03*
D13*
G36*
X53938210Y30100800D02*
X53761433Y29924023D01*
X52842194Y30843262D01*
X53018971Y31020039D01*
X53938210Y30100800D01*
X53938210Y30100800D01*
G37*
D15*
X53036649Y30118478D03*
D13*
G36*
X53584657Y29747247D02*
X53407880Y29570470D01*
X52488641Y30489709D01*
X52665418Y30666486D01*
X53584657Y29747247D01*
X53584657Y29747247D01*
G37*
D15*
X52683095Y29764924D03*
D13*
G36*
X53231103Y29393693D02*
X53054326Y29216916D01*
X52135087Y30136155D01*
X52311864Y30312932D01*
X53231103Y29393693D01*
X53231103Y29393693D01*
G37*
D15*
X52329542Y29411371D03*
D13*
G36*
X52877550Y29040140D02*
X52700773Y28863363D01*
X51781534Y29782602D01*
X51958311Y29959379D01*
X52877550Y29040140D01*
X52877550Y29040140D01*
G37*
D15*
X52329542Y27148629D03*
D13*
G36*
X52700773Y27696637D02*
X52877550Y27519860D01*
X51958311Y26600621D01*
X51781534Y26777398D01*
X52700773Y27696637D01*
X52700773Y27696637D01*
G37*
D15*
X52683095Y26795076D03*
D13*
G36*
X53054326Y27343084D02*
X53231103Y27166307D01*
X52311864Y26247068D01*
X52135087Y26423845D01*
X53054326Y27343084D01*
X53054326Y27343084D01*
G37*
D15*
X53036649Y26441522D03*
D13*
G36*
X53407880Y26989530D02*
X53584657Y26812753D01*
X52665418Y25893514D01*
X52488641Y26070291D01*
X53407880Y26989530D01*
X53407880Y26989530D01*
G37*
D15*
X53390202Y26087969D03*
D13*
G36*
X53761433Y26635977D02*
X53938210Y26459200D01*
X53018971Y25539961D01*
X52842194Y25716738D01*
X53761433Y26635977D01*
X53761433Y26635977D01*
G37*
D15*
X53743755Y25734416D03*
D13*
G36*
X54114986Y26282424D02*
X54291763Y26105647D01*
X53372524Y25186408D01*
X53195747Y25363185D01*
X54114986Y26282424D01*
X54114986Y26282424D01*
G37*
D15*
X54097309Y25380862D03*
D13*
G36*
X54468540Y25928870D02*
X54645317Y25752093D01*
X53726078Y24832854D01*
X53549301Y25009631D01*
X54468540Y25928870D01*
X54468540Y25928870D01*
G37*
D15*
X54450862Y25027309D03*
D13*
G36*
X54822093Y25575317D02*
X54998870Y25398540D01*
X54079631Y24479301D01*
X53902854Y24656078D01*
X54822093Y25575317D01*
X54822093Y25575317D01*
G37*
D15*
X54804416Y24673755D03*
D13*
G36*
X55175647Y25221763D02*
X55352424Y25044986D01*
X54433185Y24125747D01*
X54256408Y24302524D01*
X55175647Y25221763D01*
X55175647Y25221763D01*
G37*
D15*
X55157969Y24320202D03*
D13*
G36*
X55529200Y24868210D02*
X55705977Y24691433D01*
X54786738Y23772194D01*
X54609961Y23948971D01*
X55529200Y24868210D01*
X55529200Y24868210D01*
G37*
D15*
X55511522Y23966649D03*
D13*
G36*
X55882753Y24514657D02*
X56059530Y24337880D01*
X55140291Y23418641D01*
X54963514Y23595418D01*
X55882753Y24514657D01*
X55882753Y24514657D01*
G37*
D15*
X55865076Y23613095D03*
D13*
G36*
X56236307Y24161103D02*
X56413084Y23984326D01*
X55493845Y23065087D01*
X55317068Y23241864D01*
X56236307Y24161103D01*
X56236307Y24161103D01*
G37*
D15*
X56218629Y23259542D03*
D13*
G36*
X56589860Y23807550D02*
X56766637Y23630773D01*
X55847398Y22711534D01*
X55670621Y22888311D01*
X56589860Y23807550D01*
X56589860Y23807550D01*
G37*
G04 #@! TD*
D16*
G04 #@! TO.C,J10*
X59665000Y38325000D03*
X58715000Y38325000D03*
X51015000Y38325000D03*
X52115000Y38325000D03*
X53215000Y38325000D03*
X54315000Y38325000D03*
X55415000Y38325000D03*
X56515000Y38325000D03*
X57615000Y38325000D03*
D17*
X49465000Y38325000D03*
X60615000Y42625000D03*
D18*
X60615000Y48825000D03*
D19*
X60615000Y52975000D03*
D20*
X47115000Y53425000D03*
G04 #@! TD*
D13*
G04 #@! TO.C,R15*
G36*
X69764506Y47528796D02*
X69788774Y47525196D01*
X69812573Y47519235D01*
X69835672Y47510970D01*
X69857851Y47500480D01*
X69878894Y47487868D01*
X69898600Y47473253D01*
X69916778Y47456777D01*
X69933254Y47438599D01*
X69947869Y47418893D01*
X69960481Y47397850D01*
X69970971Y47375671D01*
X69979236Y47352572D01*
X69985197Y47328773D01*
X69988797Y47304505D01*
X69990001Y47280001D01*
X69990001Y46379999D01*
X69988797Y46355495D01*
X69985197Y46331227D01*
X69979236Y46307428D01*
X69970971Y46284329D01*
X69960481Y46262150D01*
X69947869Y46241107D01*
X69933254Y46221401D01*
X69916778Y46203223D01*
X69898600Y46186747D01*
X69878894Y46172132D01*
X69857851Y46159520D01*
X69835672Y46149030D01*
X69812573Y46140765D01*
X69788774Y46134804D01*
X69764506Y46131204D01*
X69740002Y46130000D01*
X69090000Y46130000D01*
X69065496Y46131204D01*
X69041228Y46134804D01*
X69017429Y46140765D01*
X68994330Y46149030D01*
X68972151Y46159520D01*
X68951108Y46172132D01*
X68931402Y46186747D01*
X68913224Y46203223D01*
X68896748Y46221401D01*
X68882133Y46241107D01*
X68869521Y46262150D01*
X68859031Y46284329D01*
X68850766Y46307428D01*
X68844805Y46331227D01*
X68841205Y46355495D01*
X68840001Y46379999D01*
X68840001Y47280001D01*
X68841205Y47304505D01*
X68844805Y47328773D01*
X68850766Y47352572D01*
X68859031Y47375671D01*
X68869521Y47397850D01*
X68882133Y47418893D01*
X68896748Y47438599D01*
X68913224Y47456777D01*
X68931402Y47473253D01*
X68951108Y47487868D01*
X68972151Y47500480D01*
X68994330Y47510970D01*
X69017429Y47519235D01*
X69041228Y47525196D01*
X69065496Y47528796D01*
X69090000Y47530000D01*
X69740002Y47530000D01*
X69764506Y47528796D01*
X69764506Y47528796D01*
G37*
D14*
X69415001Y46830000D03*
D13*
G36*
X71814504Y47528796D02*
X71838772Y47525196D01*
X71862571Y47519235D01*
X71885670Y47510970D01*
X71907849Y47500480D01*
X71928892Y47487868D01*
X71948598Y47473253D01*
X71966776Y47456777D01*
X71983252Y47438599D01*
X71997867Y47418893D01*
X72010479Y47397850D01*
X72020969Y47375671D01*
X72029234Y47352572D01*
X72035195Y47328773D01*
X72038795Y47304505D01*
X72039999Y47280001D01*
X72039999Y46379999D01*
X72038795Y46355495D01*
X72035195Y46331227D01*
X72029234Y46307428D01*
X72020969Y46284329D01*
X72010479Y46262150D01*
X71997867Y46241107D01*
X71983252Y46221401D01*
X71966776Y46203223D01*
X71948598Y46186747D01*
X71928892Y46172132D01*
X71907849Y46159520D01*
X71885670Y46149030D01*
X71862571Y46140765D01*
X71838772Y46134804D01*
X71814504Y46131204D01*
X71790000Y46130000D01*
X71139998Y46130000D01*
X71115494Y46131204D01*
X71091226Y46134804D01*
X71067427Y46140765D01*
X71044328Y46149030D01*
X71022149Y46159520D01*
X71001106Y46172132D01*
X70981400Y46186747D01*
X70963222Y46203223D01*
X70946746Y46221401D01*
X70932131Y46241107D01*
X70919519Y46262150D01*
X70909029Y46284329D01*
X70900764Y46307428D01*
X70894803Y46331227D01*
X70891203Y46355495D01*
X70889999Y46379999D01*
X70889999Y47280001D01*
X70891203Y47304505D01*
X70894803Y47328773D01*
X70900764Y47352572D01*
X70909029Y47375671D01*
X70919519Y47397850D01*
X70932131Y47418893D01*
X70946746Y47438599D01*
X70963222Y47456777D01*
X70981400Y47473253D01*
X71001106Y47487868D01*
X71022149Y47500480D01*
X71044328Y47510970D01*
X71067427Y47519235D01*
X71091226Y47525196D01*
X71115494Y47528796D01*
X71139998Y47530000D01*
X71790000Y47530000D01*
X71814504Y47528796D01*
X71814504Y47528796D01*
G37*
D14*
X71464999Y46830000D03*
G04 #@! TD*
D21*
G04 #@! TO.C,Y1*
X65950000Y17470000D03*
X69250000Y17470000D03*
X69250000Y19470000D03*
X65950000Y19470000D03*
G04 #@! TD*
D13*
G04 #@! TO.C,C7*
G36*
X64124505Y20068796D02*
X64148773Y20065196D01*
X64172572Y20059235D01*
X64195671Y20050970D01*
X64217850Y20040480D01*
X64238893Y20027868D01*
X64258599Y20013253D01*
X64276777Y19996777D01*
X64293253Y19978599D01*
X64307868Y19958893D01*
X64320480Y19937850D01*
X64330970Y19915671D01*
X64339235Y19892572D01*
X64345196Y19868773D01*
X64348796Y19844505D01*
X64350000Y19820001D01*
X64350000Y19169999D01*
X64348796Y19145495D01*
X64345196Y19121227D01*
X64339235Y19097428D01*
X64330970Y19074329D01*
X64320480Y19052150D01*
X64307868Y19031107D01*
X64293253Y19011401D01*
X64276777Y18993223D01*
X64258599Y18976747D01*
X64238893Y18962132D01*
X64217850Y18949520D01*
X64195671Y18939030D01*
X64172572Y18930765D01*
X64148773Y18924804D01*
X64124505Y18921204D01*
X64100001Y18920000D01*
X63199999Y18920000D01*
X63175495Y18921204D01*
X63151227Y18924804D01*
X63127428Y18930765D01*
X63104329Y18939030D01*
X63082150Y18949520D01*
X63061107Y18962132D01*
X63041401Y18976747D01*
X63023223Y18993223D01*
X63006747Y19011401D01*
X62992132Y19031107D01*
X62979520Y19052150D01*
X62969030Y19074329D01*
X62960765Y19097428D01*
X62954804Y19121227D01*
X62951204Y19145495D01*
X62950000Y19169999D01*
X62950000Y19820001D01*
X62951204Y19844505D01*
X62954804Y19868773D01*
X62960765Y19892572D01*
X62969030Y19915671D01*
X62979520Y19937850D01*
X62992132Y19958893D01*
X63006747Y19978599D01*
X63023223Y19996777D01*
X63041401Y20013253D01*
X63061107Y20027868D01*
X63082150Y20040480D01*
X63104329Y20050970D01*
X63127428Y20059235D01*
X63151227Y20065196D01*
X63175495Y20068796D01*
X63199999Y20070000D01*
X64100001Y20070000D01*
X64124505Y20068796D01*
X64124505Y20068796D01*
G37*
D14*
X63650000Y19495000D03*
D13*
G36*
X64124505Y18018796D02*
X64148773Y18015196D01*
X64172572Y18009235D01*
X64195671Y18000970D01*
X64217850Y17990480D01*
X64238893Y17977868D01*
X64258599Y17963253D01*
X64276777Y17946777D01*
X64293253Y17928599D01*
X64307868Y17908893D01*
X64320480Y17887850D01*
X64330970Y17865671D01*
X64339235Y17842572D01*
X64345196Y17818773D01*
X64348796Y17794505D01*
X64350000Y17770001D01*
X64350000Y17119999D01*
X64348796Y17095495D01*
X64345196Y17071227D01*
X64339235Y17047428D01*
X64330970Y17024329D01*
X64320480Y17002150D01*
X64307868Y16981107D01*
X64293253Y16961401D01*
X64276777Y16943223D01*
X64258599Y16926747D01*
X64238893Y16912132D01*
X64217850Y16899520D01*
X64195671Y16889030D01*
X64172572Y16880765D01*
X64148773Y16874804D01*
X64124505Y16871204D01*
X64100001Y16870000D01*
X63199999Y16870000D01*
X63175495Y16871204D01*
X63151227Y16874804D01*
X63127428Y16880765D01*
X63104329Y16889030D01*
X63082150Y16899520D01*
X63061107Y16912132D01*
X63041401Y16926747D01*
X63023223Y16943223D01*
X63006747Y16961401D01*
X62992132Y16981107D01*
X62979520Y17002150D01*
X62969030Y17024329D01*
X62960765Y17047428D01*
X62954804Y17071227D01*
X62951204Y17095495D01*
X62950000Y17119999D01*
X62950000Y17770001D01*
X62951204Y17794505D01*
X62954804Y17818773D01*
X62960765Y17842572D01*
X62969030Y17865671D01*
X62979520Y17887850D01*
X62992132Y17908893D01*
X63006747Y17928599D01*
X63023223Y17946777D01*
X63041401Y17963253D01*
X63061107Y17977868D01*
X63082150Y17990480D01*
X63104329Y18000970D01*
X63127428Y18009235D01*
X63151227Y18015196D01*
X63175495Y18018796D01*
X63199999Y18020000D01*
X64100001Y18020000D01*
X64124505Y18018796D01*
X64124505Y18018796D01*
G37*
D14*
X63650000Y17445000D03*
G04 #@! TD*
D13*
G04 #@! TO.C,C8*
G36*
X71974505Y20068796D02*
X71998773Y20065196D01*
X72022572Y20059235D01*
X72045671Y20050970D01*
X72067850Y20040480D01*
X72088893Y20027868D01*
X72108599Y20013253D01*
X72126777Y19996777D01*
X72143253Y19978599D01*
X72157868Y19958893D01*
X72170480Y19937850D01*
X72180970Y19915671D01*
X72189235Y19892572D01*
X72195196Y19868773D01*
X72198796Y19844505D01*
X72200000Y19820001D01*
X72200000Y19169999D01*
X72198796Y19145495D01*
X72195196Y19121227D01*
X72189235Y19097428D01*
X72180970Y19074329D01*
X72170480Y19052150D01*
X72157868Y19031107D01*
X72143253Y19011401D01*
X72126777Y18993223D01*
X72108599Y18976747D01*
X72088893Y18962132D01*
X72067850Y18949520D01*
X72045671Y18939030D01*
X72022572Y18930765D01*
X71998773Y18924804D01*
X71974505Y18921204D01*
X71950001Y18920000D01*
X71049999Y18920000D01*
X71025495Y18921204D01*
X71001227Y18924804D01*
X70977428Y18930765D01*
X70954329Y18939030D01*
X70932150Y18949520D01*
X70911107Y18962132D01*
X70891401Y18976747D01*
X70873223Y18993223D01*
X70856747Y19011401D01*
X70842132Y19031107D01*
X70829520Y19052150D01*
X70819030Y19074329D01*
X70810765Y19097428D01*
X70804804Y19121227D01*
X70801204Y19145495D01*
X70800000Y19169999D01*
X70800000Y19820001D01*
X70801204Y19844505D01*
X70804804Y19868773D01*
X70810765Y19892572D01*
X70819030Y19915671D01*
X70829520Y19937850D01*
X70842132Y19958893D01*
X70856747Y19978599D01*
X70873223Y19996777D01*
X70891401Y20013253D01*
X70911107Y20027868D01*
X70932150Y20040480D01*
X70954329Y20050970D01*
X70977428Y20059235D01*
X71001227Y20065196D01*
X71025495Y20068796D01*
X71049999Y20070000D01*
X71950001Y20070000D01*
X71974505Y20068796D01*
X71974505Y20068796D01*
G37*
D14*
X71500000Y19495000D03*
D13*
G36*
X71974505Y18018796D02*
X71998773Y18015196D01*
X72022572Y18009235D01*
X72045671Y18000970D01*
X72067850Y17990480D01*
X72088893Y17977868D01*
X72108599Y17963253D01*
X72126777Y17946777D01*
X72143253Y17928599D01*
X72157868Y17908893D01*
X72170480Y17887850D01*
X72180970Y17865671D01*
X72189235Y17842572D01*
X72195196Y17818773D01*
X72198796Y17794505D01*
X72200000Y17770001D01*
X72200000Y17119999D01*
X72198796Y17095495D01*
X72195196Y17071227D01*
X72189235Y17047428D01*
X72180970Y17024329D01*
X72170480Y17002150D01*
X72157868Y16981107D01*
X72143253Y16961401D01*
X72126777Y16943223D01*
X72108599Y16926747D01*
X72088893Y16912132D01*
X72067850Y16899520D01*
X72045671Y16889030D01*
X72022572Y16880765D01*
X71998773Y16874804D01*
X71974505Y16871204D01*
X71950001Y16870000D01*
X71049999Y16870000D01*
X71025495Y16871204D01*
X71001227Y16874804D01*
X70977428Y16880765D01*
X70954329Y16889030D01*
X70932150Y16899520D01*
X70911107Y16912132D01*
X70891401Y16926747D01*
X70873223Y16943223D01*
X70856747Y16961401D01*
X70842132Y16981107D01*
X70829520Y17002150D01*
X70819030Y17024329D01*
X70810765Y17047428D01*
X70804804Y17071227D01*
X70801204Y17095495D01*
X70800000Y17119999D01*
X70800000Y17770001D01*
X70801204Y17794505D01*
X70804804Y17818773D01*
X70810765Y17842572D01*
X70819030Y17865671D01*
X70829520Y17887850D01*
X70842132Y17908893D01*
X70856747Y17928599D01*
X70873223Y17946777D01*
X70891401Y17963253D01*
X70911107Y17977868D01*
X70932150Y17990480D01*
X70954329Y18000970D01*
X70977428Y18009235D01*
X71001227Y18015196D01*
X71025495Y18018796D01*
X71049999Y18020000D01*
X71950001Y18020000D01*
X71974505Y18018796D01*
X71974505Y18018796D01*
G37*
D14*
X71500000Y17445000D03*
G04 #@! TD*
D13*
G04 #@! TO.C,R8*
G36*
X68419505Y14551796D02*
X68443773Y14548196D01*
X68467572Y14542235D01*
X68490671Y14533970D01*
X68512850Y14523480D01*
X68533893Y14510868D01*
X68553599Y14496253D01*
X68571777Y14479777D01*
X68588253Y14461599D01*
X68602868Y14441893D01*
X68615480Y14420850D01*
X68625970Y14398671D01*
X68634235Y14375572D01*
X68640196Y14351773D01*
X68643796Y14327505D01*
X68645000Y14303001D01*
X68645000Y13402999D01*
X68643796Y13378495D01*
X68640196Y13354227D01*
X68634235Y13330428D01*
X68625970Y13307329D01*
X68615480Y13285150D01*
X68602868Y13264107D01*
X68588253Y13244401D01*
X68571777Y13226223D01*
X68553599Y13209747D01*
X68533893Y13195132D01*
X68512850Y13182520D01*
X68490671Y13172030D01*
X68467572Y13163765D01*
X68443773Y13157804D01*
X68419505Y13154204D01*
X68395001Y13153000D01*
X67744999Y13153000D01*
X67720495Y13154204D01*
X67696227Y13157804D01*
X67672428Y13163765D01*
X67649329Y13172030D01*
X67627150Y13182520D01*
X67606107Y13195132D01*
X67586401Y13209747D01*
X67568223Y13226223D01*
X67551747Y13244401D01*
X67537132Y13264107D01*
X67524520Y13285150D01*
X67514030Y13307329D01*
X67505765Y13330428D01*
X67499804Y13354227D01*
X67496204Y13378495D01*
X67495000Y13402999D01*
X67495000Y14303001D01*
X67496204Y14327505D01*
X67499804Y14351773D01*
X67505765Y14375572D01*
X67514030Y14398671D01*
X67524520Y14420850D01*
X67537132Y14441893D01*
X67551747Y14461599D01*
X67568223Y14479777D01*
X67586401Y14496253D01*
X67606107Y14510868D01*
X67627150Y14523480D01*
X67649329Y14533970D01*
X67672428Y14542235D01*
X67696227Y14548196D01*
X67720495Y14551796D01*
X67744999Y14553000D01*
X68395001Y14553000D01*
X68419505Y14551796D01*
X68419505Y14551796D01*
G37*
D14*
X68070000Y13853000D03*
D13*
G36*
X66369505Y14551796D02*
X66393773Y14548196D01*
X66417572Y14542235D01*
X66440671Y14533970D01*
X66462850Y14523480D01*
X66483893Y14510868D01*
X66503599Y14496253D01*
X66521777Y14479777D01*
X66538253Y14461599D01*
X66552868Y14441893D01*
X66565480Y14420850D01*
X66575970Y14398671D01*
X66584235Y14375572D01*
X66590196Y14351773D01*
X66593796Y14327505D01*
X66595000Y14303001D01*
X66595000Y13402999D01*
X66593796Y13378495D01*
X66590196Y13354227D01*
X66584235Y13330428D01*
X66575970Y13307329D01*
X66565480Y13285150D01*
X66552868Y13264107D01*
X66538253Y13244401D01*
X66521777Y13226223D01*
X66503599Y13209747D01*
X66483893Y13195132D01*
X66462850Y13182520D01*
X66440671Y13172030D01*
X66417572Y13163765D01*
X66393773Y13157804D01*
X66369505Y13154204D01*
X66345001Y13153000D01*
X65694999Y13153000D01*
X65670495Y13154204D01*
X65646227Y13157804D01*
X65622428Y13163765D01*
X65599329Y13172030D01*
X65577150Y13182520D01*
X65556107Y13195132D01*
X65536401Y13209747D01*
X65518223Y13226223D01*
X65501747Y13244401D01*
X65487132Y13264107D01*
X65474520Y13285150D01*
X65464030Y13307329D01*
X65455765Y13330428D01*
X65449804Y13354227D01*
X65446204Y13378495D01*
X65445000Y13402999D01*
X65445000Y14303001D01*
X65446204Y14327505D01*
X65449804Y14351773D01*
X65455765Y14375572D01*
X65464030Y14398671D01*
X65474520Y14420850D01*
X65487132Y14441893D01*
X65501747Y14461599D01*
X65518223Y14479777D01*
X65536401Y14496253D01*
X65556107Y14510868D01*
X65577150Y14523480D01*
X65599329Y14533970D01*
X65622428Y14542235D01*
X65646227Y14548196D01*
X65670495Y14551796D01*
X65694999Y14553000D01*
X66345001Y14553000D01*
X66369505Y14551796D01*
X66369505Y14551796D01*
G37*
D14*
X66020000Y13853000D03*
G04 #@! TD*
D22*
G04 #@! TO.C,D2*
X70310000Y32330000D03*
X70310000Y33730000D03*
X66810000Y32330000D03*
X66810000Y33730000D03*
G04 #@! TD*
D13*
G04 #@! TO.C,C1*
G36*
X66244505Y45368796D02*
X66268773Y45365196D01*
X66292572Y45359235D01*
X66315671Y45350970D01*
X66337850Y45340480D01*
X66358893Y45327868D01*
X66378599Y45313253D01*
X66396777Y45296777D01*
X66413253Y45278599D01*
X66427868Y45258893D01*
X66440480Y45237850D01*
X66450970Y45215671D01*
X66459235Y45192572D01*
X66465196Y45168773D01*
X66468796Y45144505D01*
X66470000Y45120001D01*
X66470000Y44219999D01*
X66468796Y44195495D01*
X66465196Y44171227D01*
X66459235Y44147428D01*
X66450970Y44124329D01*
X66440480Y44102150D01*
X66427868Y44081107D01*
X66413253Y44061401D01*
X66396777Y44043223D01*
X66378599Y44026747D01*
X66358893Y44012132D01*
X66337850Y43999520D01*
X66315671Y43989030D01*
X66292572Y43980765D01*
X66268773Y43974804D01*
X66244505Y43971204D01*
X66220001Y43970000D01*
X65569999Y43970000D01*
X65545495Y43971204D01*
X65521227Y43974804D01*
X65497428Y43980765D01*
X65474329Y43989030D01*
X65452150Y43999520D01*
X65431107Y44012132D01*
X65411401Y44026747D01*
X65393223Y44043223D01*
X65376747Y44061401D01*
X65362132Y44081107D01*
X65349520Y44102150D01*
X65339030Y44124329D01*
X65330765Y44147428D01*
X65324804Y44171227D01*
X65321204Y44195495D01*
X65320000Y44219999D01*
X65320000Y45120001D01*
X65321204Y45144505D01*
X65324804Y45168773D01*
X65330765Y45192572D01*
X65339030Y45215671D01*
X65349520Y45237850D01*
X65362132Y45258893D01*
X65376747Y45278599D01*
X65393223Y45296777D01*
X65411401Y45313253D01*
X65431107Y45327868D01*
X65452150Y45340480D01*
X65474329Y45350970D01*
X65497428Y45359235D01*
X65521227Y45365196D01*
X65545495Y45368796D01*
X65569999Y45370000D01*
X66220001Y45370000D01*
X66244505Y45368796D01*
X66244505Y45368796D01*
G37*
D14*
X65895000Y44670000D03*
D13*
G36*
X64194505Y45368796D02*
X64218773Y45365196D01*
X64242572Y45359235D01*
X64265671Y45350970D01*
X64287850Y45340480D01*
X64308893Y45327868D01*
X64328599Y45313253D01*
X64346777Y45296777D01*
X64363253Y45278599D01*
X64377868Y45258893D01*
X64390480Y45237850D01*
X64400970Y45215671D01*
X64409235Y45192572D01*
X64415196Y45168773D01*
X64418796Y45144505D01*
X64420000Y45120001D01*
X64420000Y44219999D01*
X64418796Y44195495D01*
X64415196Y44171227D01*
X64409235Y44147428D01*
X64400970Y44124329D01*
X64390480Y44102150D01*
X64377868Y44081107D01*
X64363253Y44061401D01*
X64346777Y44043223D01*
X64328599Y44026747D01*
X64308893Y44012132D01*
X64287850Y43999520D01*
X64265671Y43989030D01*
X64242572Y43980765D01*
X64218773Y43974804D01*
X64194505Y43971204D01*
X64170001Y43970000D01*
X63519999Y43970000D01*
X63495495Y43971204D01*
X63471227Y43974804D01*
X63447428Y43980765D01*
X63424329Y43989030D01*
X63402150Y43999520D01*
X63381107Y44012132D01*
X63361401Y44026747D01*
X63343223Y44043223D01*
X63326747Y44061401D01*
X63312132Y44081107D01*
X63299520Y44102150D01*
X63289030Y44124329D01*
X63280765Y44147428D01*
X63274804Y44171227D01*
X63271204Y44195495D01*
X63270000Y44219999D01*
X63270000Y45120001D01*
X63271204Y45144505D01*
X63274804Y45168773D01*
X63280765Y45192572D01*
X63289030Y45215671D01*
X63299520Y45237850D01*
X63312132Y45258893D01*
X63326747Y45278599D01*
X63343223Y45296777D01*
X63361401Y45313253D01*
X63381107Y45327868D01*
X63402150Y45340480D01*
X63424329Y45350970D01*
X63447428Y45359235D01*
X63471227Y45365196D01*
X63495495Y45368796D01*
X63519999Y45370000D01*
X64170001Y45370000D01*
X64194505Y45368796D01*
X64194505Y45368796D01*
G37*
D14*
X63845000Y44670000D03*
G04 #@! TD*
D13*
G04 #@! TO.C,C2*
G36*
X62824505Y36908796D02*
X62848773Y36905196D01*
X62872572Y36899235D01*
X62895671Y36890970D01*
X62917850Y36880480D01*
X62938893Y36867868D01*
X62958599Y36853253D01*
X62976777Y36836777D01*
X62993253Y36818599D01*
X63007868Y36798893D01*
X63020480Y36777850D01*
X63030970Y36755671D01*
X63039235Y36732572D01*
X63045196Y36708773D01*
X63048796Y36684505D01*
X63050000Y36660001D01*
X63050000Y35759999D01*
X63048796Y35735495D01*
X63045196Y35711227D01*
X63039235Y35687428D01*
X63030970Y35664329D01*
X63020480Y35642150D01*
X63007868Y35621107D01*
X62993253Y35601401D01*
X62976777Y35583223D01*
X62958599Y35566747D01*
X62938893Y35552132D01*
X62917850Y35539520D01*
X62895671Y35529030D01*
X62872572Y35520765D01*
X62848773Y35514804D01*
X62824505Y35511204D01*
X62800001Y35510000D01*
X62149999Y35510000D01*
X62125495Y35511204D01*
X62101227Y35514804D01*
X62077428Y35520765D01*
X62054329Y35529030D01*
X62032150Y35539520D01*
X62011107Y35552132D01*
X61991401Y35566747D01*
X61973223Y35583223D01*
X61956747Y35601401D01*
X61942132Y35621107D01*
X61929520Y35642150D01*
X61919030Y35664329D01*
X61910765Y35687428D01*
X61904804Y35711227D01*
X61901204Y35735495D01*
X61900000Y35759999D01*
X61900000Y36660001D01*
X61901204Y36684505D01*
X61904804Y36708773D01*
X61910765Y36732572D01*
X61919030Y36755671D01*
X61929520Y36777850D01*
X61942132Y36798893D01*
X61956747Y36818599D01*
X61973223Y36836777D01*
X61991401Y36853253D01*
X62011107Y36867868D01*
X62032150Y36880480D01*
X62054329Y36890970D01*
X62077428Y36899235D01*
X62101227Y36905196D01*
X62125495Y36908796D01*
X62149999Y36910000D01*
X62800001Y36910000D01*
X62824505Y36908796D01*
X62824505Y36908796D01*
G37*
D14*
X62475000Y36210000D03*
D13*
G36*
X64874505Y36908796D02*
X64898773Y36905196D01*
X64922572Y36899235D01*
X64945671Y36890970D01*
X64967850Y36880480D01*
X64988893Y36867868D01*
X65008599Y36853253D01*
X65026777Y36836777D01*
X65043253Y36818599D01*
X65057868Y36798893D01*
X65070480Y36777850D01*
X65080970Y36755671D01*
X65089235Y36732572D01*
X65095196Y36708773D01*
X65098796Y36684505D01*
X65100000Y36660001D01*
X65100000Y35759999D01*
X65098796Y35735495D01*
X65095196Y35711227D01*
X65089235Y35687428D01*
X65080970Y35664329D01*
X65070480Y35642150D01*
X65057868Y35621107D01*
X65043253Y35601401D01*
X65026777Y35583223D01*
X65008599Y35566747D01*
X64988893Y35552132D01*
X64967850Y35539520D01*
X64945671Y35529030D01*
X64922572Y35520765D01*
X64898773Y35514804D01*
X64874505Y35511204D01*
X64850001Y35510000D01*
X64199999Y35510000D01*
X64175495Y35511204D01*
X64151227Y35514804D01*
X64127428Y35520765D01*
X64104329Y35529030D01*
X64082150Y35539520D01*
X64061107Y35552132D01*
X64041401Y35566747D01*
X64023223Y35583223D01*
X64006747Y35601401D01*
X63992132Y35621107D01*
X63979520Y35642150D01*
X63969030Y35664329D01*
X63960765Y35687428D01*
X63954804Y35711227D01*
X63951204Y35735495D01*
X63950000Y35759999D01*
X63950000Y36660001D01*
X63951204Y36684505D01*
X63954804Y36708773D01*
X63960765Y36732572D01*
X63969030Y36755671D01*
X63979520Y36777850D01*
X63992132Y36798893D01*
X64006747Y36818599D01*
X64023223Y36836777D01*
X64041401Y36853253D01*
X64061107Y36867868D01*
X64082150Y36880480D01*
X64104329Y36890970D01*
X64127428Y36899235D01*
X64151227Y36905196D01*
X64175495Y36908796D01*
X64199999Y36910000D01*
X64850001Y36910000D01*
X64874505Y36908796D01*
X64874505Y36908796D01*
G37*
D14*
X64525000Y36210000D03*
G04 #@! TD*
D13*
G04 #@! TO.C,C3*
G36*
X54724505Y36918796D02*
X54748773Y36915196D01*
X54772572Y36909235D01*
X54795671Y36900970D01*
X54817850Y36890480D01*
X54838893Y36877868D01*
X54858599Y36863253D01*
X54876777Y36846777D01*
X54893253Y36828599D01*
X54907868Y36808893D01*
X54920480Y36787850D01*
X54930970Y36765671D01*
X54939235Y36742572D01*
X54945196Y36718773D01*
X54948796Y36694505D01*
X54950000Y36670001D01*
X54950000Y35769999D01*
X54948796Y35745495D01*
X54945196Y35721227D01*
X54939235Y35697428D01*
X54930970Y35674329D01*
X54920480Y35652150D01*
X54907868Y35631107D01*
X54893253Y35611401D01*
X54876777Y35593223D01*
X54858599Y35576747D01*
X54838893Y35562132D01*
X54817850Y35549520D01*
X54795671Y35539030D01*
X54772572Y35530765D01*
X54748773Y35524804D01*
X54724505Y35521204D01*
X54700001Y35520000D01*
X54049999Y35520000D01*
X54025495Y35521204D01*
X54001227Y35524804D01*
X53977428Y35530765D01*
X53954329Y35539030D01*
X53932150Y35549520D01*
X53911107Y35562132D01*
X53891401Y35576747D01*
X53873223Y35593223D01*
X53856747Y35611401D01*
X53842132Y35631107D01*
X53829520Y35652150D01*
X53819030Y35674329D01*
X53810765Y35697428D01*
X53804804Y35721227D01*
X53801204Y35745495D01*
X53800000Y35769999D01*
X53800000Y36670001D01*
X53801204Y36694505D01*
X53804804Y36718773D01*
X53810765Y36742572D01*
X53819030Y36765671D01*
X53829520Y36787850D01*
X53842132Y36808893D01*
X53856747Y36828599D01*
X53873223Y36846777D01*
X53891401Y36863253D01*
X53911107Y36877868D01*
X53932150Y36890480D01*
X53954329Y36900970D01*
X53977428Y36909235D01*
X54001227Y36915196D01*
X54025495Y36918796D01*
X54049999Y36920000D01*
X54700001Y36920000D01*
X54724505Y36918796D01*
X54724505Y36918796D01*
G37*
D14*
X54375000Y36220000D03*
D13*
G36*
X56774505Y36918796D02*
X56798773Y36915196D01*
X56822572Y36909235D01*
X56845671Y36900970D01*
X56867850Y36890480D01*
X56888893Y36877868D01*
X56908599Y36863253D01*
X56926777Y36846777D01*
X56943253Y36828599D01*
X56957868Y36808893D01*
X56970480Y36787850D01*
X56980970Y36765671D01*
X56989235Y36742572D01*
X56995196Y36718773D01*
X56998796Y36694505D01*
X57000000Y36670001D01*
X57000000Y35769999D01*
X56998796Y35745495D01*
X56995196Y35721227D01*
X56989235Y35697428D01*
X56980970Y35674329D01*
X56970480Y35652150D01*
X56957868Y35631107D01*
X56943253Y35611401D01*
X56926777Y35593223D01*
X56908599Y35576747D01*
X56888893Y35562132D01*
X56867850Y35549520D01*
X56845671Y35539030D01*
X56822572Y35530765D01*
X56798773Y35524804D01*
X56774505Y35521204D01*
X56750001Y35520000D01*
X56099999Y35520000D01*
X56075495Y35521204D01*
X56051227Y35524804D01*
X56027428Y35530765D01*
X56004329Y35539030D01*
X55982150Y35549520D01*
X55961107Y35562132D01*
X55941401Y35576747D01*
X55923223Y35593223D01*
X55906747Y35611401D01*
X55892132Y35631107D01*
X55879520Y35652150D01*
X55869030Y35674329D01*
X55860765Y35697428D01*
X55854804Y35721227D01*
X55851204Y35745495D01*
X55850000Y35769999D01*
X55850000Y36670001D01*
X55851204Y36694505D01*
X55854804Y36718773D01*
X55860765Y36742572D01*
X55869030Y36765671D01*
X55879520Y36787850D01*
X55892132Y36808893D01*
X55906747Y36828599D01*
X55923223Y36846777D01*
X55941401Y36863253D01*
X55961107Y36877868D01*
X55982150Y36890480D01*
X56004329Y36900970D01*
X56027428Y36909235D01*
X56051227Y36915196D01*
X56075495Y36918796D01*
X56099999Y36920000D01*
X56750001Y36920000D01*
X56774505Y36918796D01*
X56774505Y36918796D01*
G37*
D14*
X56425000Y36220000D03*
G04 #@! TD*
D13*
G04 #@! TO.C,C6*
G36*
X51874505Y19978796D02*
X51898773Y19975196D01*
X51922572Y19969235D01*
X51945671Y19960970D01*
X51967850Y19950480D01*
X51988893Y19937868D01*
X52008599Y19923253D01*
X52026777Y19906777D01*
X52043253Y19888599D01*
X52057868Y19868893D01*
X52070480Y19847850D01*
X52080970Y19825671D01*
X52089235Y19802572D01*
X52095196Y19778773D01*
X52098796Y19754505D01*
X52100000Y19730001D01*
X52100000Y18829999D01*
X52098796Y18805495D01*
X52095196Y18781227D01*
X52089235Y18757428D01*
X52080970Y18734329D01*
X52070480Y18712150D01*
X52057868Y18691107D01*
X52043253Y18671401D01*
X52026777Y18653223D01*
X52008599Y18636747D01*
X51988893Y18622132D01*
X51967850Y18609520D01*
X51945671Y18599030D01*
X51922572Y18590765D01*
X51898773Y18584804D01*
X51874505Y18581204D01*
X51850001Y18580000D01*
X51199999Y18580000D01*
X51175495Y18581204D01*
X51151227Y18584804D01*
X51127428Y18590765D01*
X51104329Y18599030D01*
X51082150Y18609520D01*
X51061107Y18622132D01*
X51041401Y18636747D01*
X51023223Y18653223D01*
X51006747Y18671401D01*
X50992132Y18691107D01*
X50979520Y18712150D01*
X50969030Y18734329D01*
X50960765Y18757428D01*
X50954804Y18781227D01*
X50951204Y18805495D01*
X50950000Y18829999D01*
X50950000Y19730001D01*
X50951204Y19754505D01*
X50954804Y19778773D01*
X50960765Y19802572D01*
X50969030Y19825671D01*
X50979520Y19847850D01*
X50992132Y19868893D01*
X51006747Y19888599D01*
X51023223Y19906777D01*
X51041401Y19923253D01*
X51061107Y19937868D01*
X51082150Y19950480D01*
X51104329Y19960970D01*
X51127428Y19969235D01*
X51151227Y19975196D01*
X51175495Y19978796D01*
X51199999Y19980000D01*
X51850001Y19980000D01*
X51874505Y19978796D01*
X51874505Y19978796D01*
G37*
D14*
X51525000Y19280000D03*
D13*
G36*
X49824505Y19978796D02*
X49848773Y19975196D01*
X49872572Y19969235D01*
X49895671Y19960970D01*
X49917850Y19950480D01*
X49938893Y19937868D01*
X49958599Y19923253D01*
X49976777Y19906777D01*
X49993253Y19888599D01*
X50007868Y19868893D01*
X50020480Y19847850D01*
X50030970Y19825671D01*
X50039235Y19802572D01*
X50045196Y19778773D01*
X50048796Y19754505D01*
X50050000Y19730001D01*
X50050000Y18829999D01*
X50048796Y18805495D01*
X50045196Y18781227D01*
X50039235Y18757428D01*
X50030970Y18734329D01*
X50020480Y18712150D01*
X50007868Y18691107D01*
X49993253Y18671401D01*
X49976777Y18653223D01*
X49958599Y18636747D01*
X49938893Y18622132D01*
X49917850Y18609520D01*
X49895671Y18599030D01*
X49872572Y18590765D01*
X49848773Y18584804D01*
X49824505Y18581204D01*
X49800001Y18580000D01*
X49149999Y18580000D01*
X49125495Y18581204D01*
X49101227Y18584804D01*
X49077428Y18590765D01*
X49054329Y18599030D01*
X49032150Y18609520D01*
X49011107Y18622132D01*
X48991401Y18636747D01*
X48973223Y18653223D01*
X48956747Y18671401D01*
X48942132Y18691107D01*
X48929520Y18712150D01*
X48919030Y18734329D01*
X48910765Y18757428D01*
X48904804Y18781227D01*
X48901204Y18805495D01*
X48900000Y18829999D01*
X48900000Y19730001D01*
X48901204Y19754505D01*
X48904804Y19778773D01*
X48910765Y19802572D01*
X48919030Y19825671D01*
X48929520Y19847850D01*
X48942132Y19868893D01*
X48956747Y19888599D01*
X48973223Y19906777D01*
X48991401Y19923253D01*
X49011107Y19937868D01*
X49032150Y19950480D01*
X49054329Y19960970D01*
X49077428Y19969235D01*
X49101227Y19975196D01*
X49125495Y19978796D01*
X49149999Y19980000D01*
X49800001Y19980000D01*
X49824505Y19978796D01*
X49824505Y19978796D01*
G37*
D14*
X49475000Y19280000D03*
G04 #@! TD*
D23*
G04 #@! TO.C,J1*
X70749000Y50874000D03*
X70099000Y50874000D03*
X69449000Y50874000D03*
X68799000Y50874000D03*
X68149000Y50874000D03*
D24*
X71911500Y51234000D03*
X66986500Y51234000D03*
D25*
X72359000Y53534000D03*
X66539000Y53534000D03*
D26*
X70289000Y53534000D03*
X68609000Y53534000D03*
G04 #@! TD*
D13*
G04 #@! TO.C,R1*
G36*
X71754505Y44028796D02*
X71778773Y44025196D01*
X71802572Y44019235D01*
X71825671Y44010970D01*
X71847850Y44000480D01*
X71868893Y43987868D01*
X71888599Y43973253D01*
X71906777Y43956777D01*
X71923253Y43938599D01*
X71937868Y43918893D01*
X71950480Y43897850D01*
X71960970Y43875671D01*
X71969235Y43852572D01*
X71975196Y43828773D01*
X71978796Y43804505D01*
X71980000Y43780001D01*
X71980000Y43129999D01*
X71978796Y43105495D01*
X71975196Y43081227D01*
X71969235Y43057428D01*
X71960970Y43034329D01*
X71950480Y43012150D01*
X71937868Y42991107D01*
X71923253Y42971401D01*
X71906777Y42953223D01*
X71888599Y42936747D01*
X71868893Y42922132D01*
X71847850Y42909520D01*
X71825671Y42899030D01*
X71802572Y42890765D01*
X71778773Y42884804D01*
X71754505Y42881204D01*
X71730001Y42880000D01*
X70829999Y42880000D01*
X70805495Y42881204D01*
X70781227Y42884804D01*
X70757428Y42890765D01*
X70734329Y42899030D01*
X70712150Y42909520D01*
X70691107Y42922132D01*
X70671401Y42936747D01*
X70653223Y42953223D01*
X70636747Y42971401D01*
X70622132Y42991107D01*
X70609520Y43012150D01*
X70599030Y43034329D01*
X70590765Y43057428D01*
X70584804Y43081227D01*
X70581204Y43105495D01*
X70580000Y43129999D01*
X70580000Y43780001D01*
X70581204Y43804505D01*
X70584804Y43828773D01*
X70590765Y43852572D01*
X70599030Y43875671D01*
X70609520Y43897850D01*
X70622132Y43918893D01*
X70636747Y43938599D01*
X70653223Y43956777D01*
X70671401Y43973253D01*
X70691107Y43987868D01*
X70712150Y44000480D01*
X70734329Y44010970D01*
X70757428Y44019235D01*
X70781227Y44025196D01*
X70805495Y44028796D01*
X70829999Y44030000D01*
X71730001Y44030000D01*
X71754505Y44028796D01*
X71754505Y44028796D01*
G37*
D14*
X71280000Y43455000D03*
D13*
G36*
X71754505Y41978796D02*
X71778773Y41975196D01*
X71802572Y41969235D01*
X71825671Y41960970D01*
X71847850Y41950480D01*
X71868893Y41937868D01*
X71888599Y41923253D01*
X71906777Y41906777D01*
X71923253Y41888599D01*
X71937868Y41868893D01*
X71950480Y41847850D01*
X71960970Y41825671D01*
X71969235Y41802572D01*
X71975196Y41778773D01*
X71978796Y41754505D01*
X71980000Y41730001D01*
X71980000Y41079999D01*
X71978796Y41055495D01*
X71975196Y41031227D01*
X71969235Y41007428D01*
X71960970Y40984329D01*
X71950480Y40962150D01*
X71937868Y40941107D01*
X71923253Y40921401D01*
X71906777Y40903223D01*
X71888599Y40886747D01*
X71868893Y40872132D01*
X71847850Y40859520D01*
X71825671Y40849030D01*
X71802572Y40840765D01*
X71778773Y40834804D01*
X71754505Y40831204D01*
X71730001Y40830000D01*
X70829999Y40830000D01*
X70805495Y40831204D01*
X70781227Y40834804D01*
X70757428Y40840765D01*
X70734329Y40849030D01*
X70712150Y40859520D01*
X70691107Y40872132D01*
X70671401Y40886747D01*
X70653223Y40903223D01*
X70636747Y40921401D01*
X70622132Y40941107D01*
X70609520Y40962150D01*
X70599030Y40984329D01*
X70590765Y41007428D01*
X70584804Y41031227D01*
X70581204Y41055495D01*
X70580000Y41079999D01*
X70580000Y41730001D01*
X70581204Y41754505D01*
X70584804Y41778773D01*
X70590765Y41802572D01*
X70599030Y41825671D01*
X70609520Y41847850D01*
X70622132Y41868893D01*
X70636747Y41888599D01*
X70653223Y41906777D01*
X70671401Y41923253D01*
X70691107Y41937868D01*
X70712150Y41950480D01*
X70734329Y41960970D01*
X70757428Y41969235D01*
X70781227Y41975196D01*
X70805495Y41978796D01*
X70829999Y41980000D01*
X71730001Y41980000D01*
X71754505Y41978796D01*
X71754505Y41978796D01*
G37*
D14*
X71280000Y41405000D03*
G04 #@! TD*
D13*
G04 #@! TO.C,R2*
G36*
X66234505Y47318796D02*
X66258773Y47315196D01*
X66282572Y47309235D01*
X66305671Y47300970D01*
X66327850Y47290480D01*
X66348893Y47277868D01*
X66368599Y47263253D01*
X66386777Y47246777D01*
X66403253Y47228599D01*
X66417868Y47208893D01*
X66430480Y47187850D01*
X66440970Y47165671D01*
X66449235Y47142572D01*
X66455196Y47118773D01*
X66458796Y47094505D01*
X66460000Y47070001D01*
X66460000Y46169999D01*
X66458796Y46145495D01*
X66455196Y46121227D01*
X66449235Y46097428D01*
X66440970Y46074329D01*
X66430480Y46052150D01*
X66417868Y46031107D01*
X66403253Y46011401D01*
X66386777Y45993223D01*
X66368599Y45976747D01*
X66348893Y45962132D01*
X66327850Y45949520D01*
X66305671Y45939030D01*
X66282572Y45930765D01*
X66258773Y45924804D01*
X66234505Y45921204D01*
X66210001Y45920000D01*
X65559999Y45920000D01*
X65535495Y45921204D01*
X65511227Y45924804D01*
X65487428Y45930765D01*
X65464329Y45939030D01*
X65442150Y45949520D01*
X65421107Y45962132D01*
X65401401Y45976747D01*
X65383223Y45993223D01*
X65366747Y46011401D01*
X65352132Y46031107D01*
X65339520Y46052150D01*
X65329030Y46074329D01*
X65320765Y46097428D01*
X65314804Y46121227D01*
X65311204Y46145495D01*
X65310000Y46169999D01*
X65310000Y47070001D01*
X65311204Y47094505D01*
X65314804Y47118773D01*
X65320765Y47142572D01*
X65329030Y47165671D01*
X65339520Y47187850D01*
X65352132Y47208893D01*
X65366747Y47228599D01*
X65383223Y47246777D01*
X65401401Y47263253D01*
X65421107Y47277868D01*
X65442150Y47290480D01*
X65464329Y47300970D01*
X65487428Y47309235D01*
X65511227Y47315196D01*
X65535495Y47318796D01*
X65559999Y47320000D01*
X66210001Y47320000D01*
X66234505Y47318796D01*
X66234505Y47318796D01*
G37*
D14*
X65885000Y46620000D03*
D13*
G36*
X64184505Y47318796D02*
X64208773Y47315196D01*
X64232572Y47309235D01*
X64255671Y47300970D01*
X64277850Y47290480D01*
X64298893Y47277868D01*
X64318599Y47263253D01*
X64336777Y47246777D01*
X64353253Y47228599D01*
X64367868Y47208893D01*
X64380480Y47187850D01*
X64390970Y47165671D01*
X64399235Y47142572D01*
X64405196Y47118773D01*
X64408796Y47094505D01*
X64410000Y47070001D01*
X64410000Y46169999D01*
X64408796Y46145495D01*
X64405196Y46121227D01*
X64399235Y46097428D01*
X64390970Y46074329D01*
X64380480Y46052150D01*
X64367868Y46031107D01*
X64353253Y46011401D01*
X64336777Y45993223D01*
X64318599Y45976747D01*
X64298893Y45962132D01*
X64277850Y45949520D01*
X64255671Y45939030D01*
X64232572Y45930765D01*
X64208773Y45924804D01*
X64184505Y45921204D01*
X64160001Y45920000D01*
X63509999Y45920000D01*
X63485495Y45921204D01*
X63461227Y45924804D01*
X63437428Y45930765D01*
X63414329Y45939030D01*
X63392150Y45949520D01*
X63371107Y45962132D01*
X63351401Y45976747D01*
X63333223Y45993223D01*
X63316747Y46011401D01*
X63302132Y46031107D01*
X63289520Y46052150D01*
X63279030Y46074329D01*
X63270765Y46097428D01*
X63264804Y46121227D01*
X63261204Y46145495D01*
X63260000Y46169999D01*
X63260000Y47070001D01*
X63261204Y47094505D01*
X63264804Y47118773D01*
X63270765Y47142572D01*
X63279030Y47165671D01*
X63289520Y47187850D01*
X63302132Y47208893D01*
X63316747Y47228599D01*
X63333223Y47246777D01*
X63351401Y47263253D01*
X63371107Y47277868D01*
X63392150Y47290480D01*
X63414329Y47300970D01*
X63437428Y47309235D01*
X63461227Y47315196D01*
X63485495Y47318796D01*
X63509999Y47320000D01*
X64160001Y47320000D01*
X64184505Y47318796D01*
X64184505Y47318796D01*
G37*
D14*
X63835000Y46620000D03*
G04 #@! TD*
D13*
G04 #@! TO.C,R3*
G36*
X66234505Y49258796D02*
X66258773Y49255196D01*
X66282572Y49249235D01*
X66305671Y49240970D01*
X66327850Y49230480D01*
X66348893Y49217868D01*
X66368599Y49203253D01*
X66386777Y49186777D01*
X66403253Y49168599D01*
X66417868Y49148893D01*
X66430480Y49127850D01*
X66440970Y49105671D01*
X66449235Y49082572D01*
X66455196Y49058773D01*
X66458796Y49034505D01*
X66460000Y49010001D01*
X66460000Y48109999D01*
X66458796Y48085495D01*
X66455196Y48061227D01*
X66449235Y48037428D01*
X66440970Y48014329D01*
X66430480Y47992150D01*
X66417868Y47971107D01*
X66403253Y47951401D01*
X66386777Y47933223D01*
X66368599Y47916747D01*
X66348893Y47902132D01*
X66327850Y47889520D01*
X66305671Y47879030D01*
X66282572Y47870765D01*
X66258773Y47864804D01*
X66234505Y47861204D01*
X66210001Y47860000D01*
X65559999Y47860000D01*
X65535495Y47861204D01*
X65511227Y47864804D01*
X65487428Y47870765D01*
X65464329Y47879030D01*
X65442150Y47889520D01*
X65421107Y47902132D01*
X65401401Y47916747D01*
X65383223Y47933223D01*
X65366747Y47951401D01*
X65352132Y47971107D01*
X65339520Y47992150D01*
X65329030Y48014329D01*
X65320765Y48037428D01*
X65314804Y48061227D01*
X65311204Y48085495D01*
X65310000Y48109999D01*
X65310000Y49010001D01*
X65311204Y49034505D01*
X65314804Y49058773D01*
X65320765Y49082572D01*
X65329030Y49105671D01*
X65339520Y49127850D01*
X65352132Y49148893D01*
X65366747Y49168599D01*
X65383223Y49186777D01*
X65401401Y49203253D01*
X65421107Y49217868D01*
X65442150Y49230480D01*
X65464329Y49240970D01*
X65487428Y49249235D01*
X65511227Y49255196D01*
X65535495Y49258796D01*
X65559999Y49260000D01*
X66210001Y49260000D01*
X66234505Y49258796D01*
X66234505Y49258796D01*
G37*
D14*
X65885000Y48560000D03*
D13*
G36*
X64184505Y49258796D02*
X64208773Y49255196D01*
X64232572Y49249235D01*
X64255671Y49240970D01*
X64277850Y49230480D01*
X64298893Y49217868D01*
X64318599Y49203253D01*
X64336777Y49186777D01*
X64353253Y49168599D01*
X64367868Y49148893D01*
X64380480Y49127850D01*
X64390970Y49105671D01*
X64399235Y49082572D01*
X64405196Y49058773D01*
X64408796Y49034505D01*
X64410000Y49010001D01*
X64410000Y48109999D01*
X64408796Y48085495D01*
X64405196Y48061227D01*
X64399235Y48037428D01*
X64390970Y48014329D01*
X64380480Y47992150D01*
X64367868Y47971107D01*
X64353253Y47951401D01*
X64336777Y47933223D01*
X64318599Y47916747D01*
X64298893Y47902132D01*
X64277850Y47889520D01*
X64255671Y47879030D01*
X64232572Y47870765D01*
X64208773Y47864804D01*
X64184505Y47861204D01*
X64160001Y47860000D01*
X63509999Y47860000D01*
X63485495Y47861204D01*
X63461227Y47864804D01*
X63437428Y47870765D01*
X63414329Y47879030D01*
X63392150Y47889520D01*
X63371107Y47902132D01*
X63351401Y47916747D01*
X63333223Y47933223D01*
X63316747Y47951401D01*
X63302132Y47971107D01*
X63289520Y47992150D01*
X63279030Y48014329D01*
X63270765Y48037428D01*
X63264804Y48061227D01*
X63261204Y48085495D01*
X63260000Y48109999D01*
X63260000Y49010001D01*
X63261204Y49034505D01*
X63264804Y49058773D01*
X63270765Y49082572D01*
X63279030Y49105671D01*
X63289520Y49127850D01*
X63302132Y49148893D01*
X63316747Y49168599D01*
X63333223Y49186777D01*
X63351401Y49203253D01*
X63371107Y49217868D01*
X63392150Y49230480D01*
X63414329Y49240970D01*
X63437428Y49249235D01*
X63461227Y49255196D01*
X63485495Y49258796D01*
X63509999Y49260000D01*
X64160001Y49260000D01*
X64184505Y49258796D01*
X64184505Y49258796D01*
G37*
D14*
X63835000Y48560000D03*
G04 #@! TD*
D13*
G04 #@! TO.C,R4*
G36*
X69004505Y36458796D02*
X69028773Y36455196D01*
X69052572Y36449235D01*
X69075671Y36440970D01*
X69097850Y36430480D01*
X69118893Y36417868D01*
X69138599Y36403253D01*
X69156777Y36386777D01*
X69173253Y36368599D01*
X69187868Y36348893D01*
X69200480Y36327850D01*
X69210970Y36305671D01*
X69219235Y36282572D01*
X69225196Y36258773D01*
X69228796Y36234505D01*
X69230000Y36210001D01*
X69230000Y35309999D01*
X69228796Y35285495D01*
X69225196Y35261227D01*
X69219235Y35237428D01*
X69210970Y35214329D01*
X69200480Y35192150D01*
X69187868Y35171107D01*
X69173253Y35151401D01*
X69156777Y35133223D01*
X69138599Y35116747D01*
X69118893Y35102132D01*
X69097850Y35089520D01*
X69075671Y35079030D01*
X69052572Y35070765D01*
X69028773Y35064804D01*
X69004505Y35061204D01*
X68980001Y35060000D01*
X68329999Y35060000D01*
X68305495Y35061204D01*
X68281227Y35064804D01*
X68257428Y35070765D01*
X68234329Y35079030D01*
X68212150Y35089520D01*
X68191107Y35102132D01*
X68171401Y35116747D01*
X68153223Y35133223D01*
X68136747Y35151401D01*
X68122132Y35171107D01*
X68109520Y35192150D01*
X68099030Y35214329D01*
X68090765Y35237428D01*
X68084804Y35261227D01*
X68081204Y35285495D01*
X68080000Y35309999D01*
X68080000Y36210001D01*
X68081204Y36234505D01*
X68084804Y36258773D01*
X68090765Y36282572D01*
X68099030Y36305671D01*
X68109520Y36327850D01*
X68122132Y36348893D01*
X68136747Y36368599D01*
X68153223Y36386777D01*
X68171401Y36403253D01*
X68191107Y36417868D01*
X68212150Y36430480D01*
X68234329Y36440970D01*
X68257428Y36449235D01*
X68281227Y36455196D01*
X68305495Y36458796D01*
X68329999Y36460000D01*
X68980001Y36460000D01*
X69004505Y36458796D01*
X69004505Y36458796D01*
G37*
D14*
X68655000Y35760000D03*
D13*
G36*
X66954505Y36458796D02*
X66978773Y36455196D01*
X67002572Y36449235D01*
X67025671Y36440970D01*
X67047850Y36430480D01*
X67068893Y36417868D01*
X67088599Y36403253D01*
X67106777Y36386777D01*
X67123253Y36368599D01*
X67137868Y36348893D01*
X67150480Y36327850D01*
X67160970Y36305671D01*
X67169235Y36282572D01*
X67175196Y36258773D01*
X67178796Y36234505D01*
X67180000Y36210001D01*
X67180000Y35309999D01*
X67178796Y35285495D01*
X67175196Y35261227D01*
X67169235Y35237428D01*
X67160970Y35214329D01*
X67150480Y35192150D01*
X67137868Y35171107D01*
X67123253Y35151401D01*
X67106777Y35133223D01*
X67088599Y35116747D01*
X67068893Y35102132D01*
X67047850Y35089520D01*
X67025671Y35079030D01*
X67002572Y35070765D01*
X66978773Y35064804D01*
X66954505Y35061204D01*
X66930001Y35060000D01*
X66279999Y35060000D01*
X66255495Y35061204D01*
X66231227Y35064804D01*
X66207428Y35070765D01*
X66184329Y35079030D01*
X66162150Y35089520D01*
X66141107Y35102132D01*
X66121401Y35116747D01*
X66103223Y35133223D01*
X66086747Y35151401D01*
X66072132Y35171107D01*
X66059520Y35192150D01*
X66049030Y35214329D01*
X66040765Y35237428D01*
X66034804Y35261227D01*
X66031204Y35285495D01*
X66030000Y35309999D01*
X66030000Y36210001D01*
X66031204Y36234505D01*
X66034804Y36258773D01*
X66040765Y36282572D01*
X66049030Y36305671D01*
X66059520Y36327850D01*
X66072132Y36348893D01*
X66086747Y36368599D01*
X66103223Y36386777D01*
X66121401Y36403253D01*
X66141107Y36417868D01*
X66162150Y36430480D01*
X66184329Y36440970D01*
X66207428Y36449235D01*
X66231227Y36455196D01*
X66255495Y36458796D01*
X66279999Y36460000D01*
X66930001Y36460000D01*
X66954505Y36458796D01*
X66954505Y36458796D01*
G37*
D14*
X66605000Y35760000D03*
G04 #@! TD*
D13*
G04 #@! TO.C,R5*
G36*
X73479505Y32578796D02*
X73503773Y32575196D01*
X73527572Y32569235D01*
X73550671Y32560970D01*
X73572850Y32550480D01*
X73593893Y32537868D01*
X73613599Y32523253D01*
X73631777Y32506777D01*
X73648253Y32488599D01*
X73662868Y32468893D01*
X73675480Y32447850D01*
X73685970Y32425671D01*
X73694235Y32402572D01*
X73700196Y32378773D01*
X73703796Y32354505D01*
X73705000Y32330001D01*
X73705000Y31679999D01*
X73703796Y31655495D01*
X73700196Y31631227D01*
X73694235Y31607428D01*
X73685970Y31584329D01*
X73675480Y31562150D01*
X73662868Y31541107D01*
X73648253Y31521401D01*
X73631777Y31503223D01*
X73613599Y31486747D01*
X73593893Y31472132D01*
X73572850Y31459520D01*
X73550671Y31449030D01*
X73527572Y31440765D01*
X73503773Y31434804D01*
X73479505Y31431204D01*
X73455001Y31430000D01*
X72554999Y31430000D01*
X72530495Y31431204D01*
X72506227Y31434804D01*
X72482428Y31440765D01*
X72459329Y31449030D01*
X72437150Y31459520D01*
X72416107Y31472132D01*
X72396401Y31486747D01*
X72378223Y31503223D01*
X72361747Y31521401D01*
X72347132Y31541107D01*
X72334520Y31562150D01*
X72324030Y31584329D01*
X72315765Y31607428D01*
X72309804Y31631227D01*
X72306204Y31655495D01*
X72305000Y31679999D01*
X72305000Y32330001D01*
X72306204Y32354505D01*
X72309804Y32378773D01*
X72315765Y32402572D01*
X72324030Y32425671D01*
X72334520Y32447850D01*
X72347132Y32468893D01*
X72361747Y32488599D01*
X72378223Y32506777D01*
X72396401Y32523253D01*
X72416107Y32537868D01*
X72437150Y32550480D01*
X72459329Y32560970D01*
X72482428Y32569235D01*
X72506227Y32575196D01*
X72530495Y32578796D01*
X72554999Y32580000D01*
X73455001Y32580000D01*
X73479505Y32578796D01*
X73479505Y32578796D01*
G37*
D14*
X73005000Y32005000D03*
D13*
G36*
X73479505Y34628796D02*
X73503773Y34625196D01*
X73527572Y34619235D01*
X73550671Y34610970D01*
X73572850Y34600480D01*
X73593893Y34587868D01*
X73613599Y34573253D01*
X73631777Y34556777D01*
X73648253Y34538599D01*
X73662868Y34518893D01*
X73675480Y34497850D01*
X73685970Y34475671D01*
X73694235Y34452572D01*
X73700196Y34428773D01*
X73703796Y34404505D01*
X73705000Y34380001D01*
X73705000Y33729999D01*
X73703796Y33705495D01*
X73700196Y33681227D01*
X73694235Y33657428D01*
X73685970Y33634329D01*
X73675480Y33612150D01*
X73662868Y33591107D01*
X73648253Y33571401D01*
X73631777Y33553223D01*
X73613599Y33536747D01*
X73593893Y33522132D01*
X73572850Y33509520D01*
X73550671Y33499030D01*
X73527572Y33490765D01*
X73503773Y33484804D01*
X73479505Y33481204D01*
X73455001Y33480000D01*
X72554999Y33480000D01*
X72530495Y33481204D01*
X72506227Y33484804D01*
X72482428Y33490765D01*
X72459329Y33499030D01*
X72437150Y33509520D01*
X72416107Y33522132D01*
X72396401Y33536747D01*
X72378223Y33553223D01*
X72361747Y33571401D01*
X72347132Y33591107D01*
X72334520Y33612150D01*
X72324030Y33634329D01*
X72315765Y33657428D01*
X72309804Y33681227D01*
X72306204Y33705495D01*
X72305000Y33729999D01*
X72305000Y34380001D01*
X72306204Y34404505D01*
X72309804Y34428773D01*
X72315765Y34452572D01*
X72324030Y34475671D01*
X72334520Y34497850D01*
X72347132Y34518893D01*
X72361747Y34538599D01*
X72378223Y34556777D01*
X72396401Y34573253D01*
X72416107Y34587868D01*
X72437150Y34600480D01*
X72459329Y34610970D01*
X72482428Y34619235D01*
X72506227Y34625196D01*
X72530495Y34628796D01*
X72554999Y34630000D01*
X73455001Y34630000D01*
X73479505Y34628796D01*
X73479505Y34628796D01*
G37*
D14*
X73005000Y34055000D03*
G04 #@! TD*
D13*
G04 #@! TO.C,R6*
G36*
X66904505Y30958796D02*
X66928773Y30955196D01*
X66952572Y30949235D01*
X66975671Y30940970D01*
X66997850Y30930480D01*
X67018893Y30917868D01*
X67038599Y30903253D01*
X67056777Y30886777D01*
X67073253Y30868599D01*
X67087868Y30848893D01*
X67100480Y30827850D01*
X67110970Y30805671D01*
X67119235Y30782572D01*
X67125196Y30758773D01*
X67128796Y30734505D01*
X67130000Y30710001D01*
X67130000Y29809999D01*
X67128796Y29785495D01*
X67125196Y29761227D01*
X67119235Y29737428D01*
X67110970Y29714329D01*
X67100480Y29692150D01*
X67087868Y29671107D01*
X67073253Y29651401D01*
X67056777Y29633223D01*
X67038599Y29616747D01*
X67018893Y29602132D01*
X66997850Y29589520D01*
X66975671Y29579030D01*
X66952572Y29570765D01*
X66928773Y29564804D01*
X66904505Y29561204D01*
X66880001Y29560000D01*
X66229999Y29560000D01*
X66205495Y29561204D01*
X66181227Y29564804D01*
X66157428Y29570765D01*
X66134329Y29579030D01*
X66112150Y29589520D01*
X66091107Y29602132D01*
X66071401Y29616747D01*
X66053223Y29633223D01*
X66036747Y29651401D01*
X66022132Y29671107D01*
X66009520Y29692150D01*
X65999030Y29714329D01*
X65990765Y29737428D01*
X65984804Y29761227D01*
X65981204Y29785495D01*
X65980000Y29809999D01*
X65980000Y30710001D01*
X65981204Y30734505D01*
X65984804Y30758773D01*
X65990765Y30782572D01*
X65999030Y30805671D01*
X66009520Y30827850D01*
X66022132Y30848893D01*
X66036747Y30868599D01*
X66053223Y30886777D01*
X66071401Y30903253D01*
X66091107Y30917868D01*
X66112150Y30930480D01*
X66134329Y30940970D01*
X66157428Y30949235D01*
X66181227Y30955196D01*
X66205495Y30958796D01*
X66229999Y30960000D01*
X66880001Y30960000D01*
X66904505Y30958796D01*
X66904505Y30958796D01*
G37*
D14*
X66555000Y30260000D03*
D13*
G36*
X68954505Y30958796D02*
X68978773Y30955196D01*
X69002572Y30949235D01*
X69025671Y30940970D01*
X69047850Y30930480D01*
X69068893Y30917868D01*
X69088599Y30903253D01*
X69106777Y30886777D01*
X69123253Y30868599D01*
X69137868Y30848893D01*
X69150480Y30827850D01*
X69160970Y30805671D01*
X69169235Y30782572D01*
X69175196Y30758773D01*
X69178796Y30734505D01*
X69180000Y30710001D01*
X69180000Y29809999D01*
X69178796Y29785495D01*
X69175196Y29761227D01*
X69169235Y29737428D01*
X69160970Y29714329D01*
X69150480Y29692150D01*
X69137868Y29671107D01*
X69123253Y29651401D01*
X69106777Y29633223D01*
X69088599Y29616747D01*
X69068893Y29602132D01*
X69047850Y29589520D01*
X69025671Y29579030D01*
X69002572Y29570765D01*
X68978773Y29564804D01*
X68954505Y29561204D01*
X68930001Y29560000D01*
X68279999Y29560000D01*
X68255495Y29561204D01*
X68231227Y29564804D01*
X68207428Y29570765D01*
X68184329Y29579030D01*
X68162150Y29589520D01*
X68141107Y29602132D01*
X68121401Y29616747D01*
X68103223Y29633223D01*
X68086747Y29651401D01*
X68072132Y29671107D01*
X68059520Y29692150D01*
X68049030Y29714329D01*
X68040765Y29737428D01*
X68034804Y29761227D01*
X68031204Y29785495D01*
X68030000Y29809999D01*
X68030000Y30710001D01*
X68031204Y30734505D01*
X68034804Y30758773D01*
X68040765Y30782572D01*
X68049030Y30805671D01*
X68059520Y30827850D01*
X68072132Y30848893D01*
X68086747Y30868599D01*
X68103223Y30886777D01*
X68121401Y30903253D01*
X68141107Y30917868D01*
X68162150Y30930480D01*
X68184329Y30940970D01*
X68207428Y30949235D01*
X68231227Y30955196D01*
X68255495Y30958796D01*
X68279999Y30960000D01*
X68930001Y30960000D01*
X68954505Y30958796D01*
X68954505Y30958796D01*
G37*
D14*
X68605000Y30260000D03*
G04 #@! TD*
D13*
G04 #@! TO.C,R7*
G36*
X50404505Y14508796D02*
X50428773Y14505196D01*
X50452572Y14499235D01*
X50475671Y14490970D01*
X50497850Y14480480D01*
X50518893Y14467868D01*
X50538599Y14453253D01*
X50556777Y14436777D01*
X50573253Y14418599D01*
X50587868Y14398893D01*
X50600480Y14377850D01*
X50610970Y14355671D01*
X50619235Y14332572D01*
X50625196Y14308773D01*
X50628796Y14284505D01*
X50630000Y14260001D01*
X50630000Y13359999D01*
X50628796Y13335495D01*
X50625196Y13311227D01*
X50619235Y13287428D01*
X50610970Y13264329D01*
X50600480Y13242150D01*
X50587868Y13221107D01*
X50573253Y13201401D01*
X50556777Y13183223D01*
X50538599Y13166747D01*
X50518893Y13152132D01*
X50497850Y13139520D01*
X50475671Y13129030D01*
X50452572Y13120765D01*
X50428773Y13114804D01*
X50404505Y13111204D01*
X50380001Y13110000D01*
X49729999Y13110000D01*
X49705495Y13111204D01*
X49681227Y13114804D01*
X49657428Y13120765D01*
X49634329Y13129030D01*
X49612150Y13139520D01*
X49591107Y13152132D01*
X49571401Y13166747D01*
X49553223Y13183223D01*
X49536747Y13201401D01*
X49522132Y13221107D01*
X49509520Y13242150D01*
X49499030Y13264329D01*
X49490765Y13287428D01*
X49484804Y13311227D01*
X49481204Y13335495D01*
X49480000Y13359999D01*
X49480000Y14260001D01*
X49481204Y14284505D01*
X49484804Y14308773D01*
X49490765Y14332572D01*
X49499030Y14355671D01*
X49509520Y14377850D01*
X49522132Y14398893D01*
X49536747Y14418599D01*
X49553223Y14436777D01*
X49571401Y14453253D01*
X49591107Y14467868D01*
X49612150Y14480480D01*
X49634329Y14490970D01*
X49657428Y14499235D01*
X49681227Y14505196D01*
X49705495Y14508796D01*
X49729999Y14510000D01*
X50380001Y14510000D01*
X50404505Y14508796D01*
X50404505Y14508796D01*
G37*
D14*
X50055000Y13810000D03*
D13*
G36*
X48354505Y14508796D02*
X48378773Y14505196D01*
X48402572Y14499235D01*
X48425671Y14490970D01*
X48447850Y14480480D01*
X48468893Y14467868D01*
X48488599Y14453253D01*
X48506777Y14436777D01*
X48523253Y14418599D01*
X48537868Y14398893D01*
X48550480Y14377850D01*
X48560970Y14355671D01*
X48569235Y14332572D01*
X48575196Y14308773D01*
X48578796Y14284505D01*
X48580000Y14260001D01*
X48580000Y13359999D01*
X48578796Y13335495D01*
X48575196Y13311227D01*
X48569235Y13287428D01*
X48560970Y13264329D01*
X48550480Y13242150D01*
X48537868Y13221107D01*
X48523253Y13201401D01*
X48506777Y13183223D01*
X48488599Y13166747D01*
X48468893Y13152132D01*
X48447850Y13139520D01*
X48425671Y13129030D01*
X48402572Y13120765D01*
X48378773Y13114804D01*
X48354505Y13111204D01*
X48330001Y13110000D01*
X47679999Y13110000D01*
X47655495Y13111204D01*
X47631227Y13114804D01*
X47607428Y13120765D01*
X47584329Y13129030D01*
X47562150Y13139520D01*
X47541107Y13152132D01*
X47521401Y13166747D01*
X47503223Y13183223D01*
X47486747Y13201401D01*
X47472132Y13221107D01*
X47459520Y13242150D01*
X47449030Y13264329D01*
X47440765Y13287428D01*
X47434804Y13311227D01*
X47431204Y13335495D01*
X47430000Y13359999D01*
X47430000Y14260001D01*
X47431204Y14284505D01*
X47434804Y14308773D01*
X47440765Y14332572D01*
X47449030Y14355671D01*
X47459520Y14377850D01*
X47472132Y14398893D01*
X47486747Y14418599D01*
X47503223Y14436777D01*
X47521401Y14453253D01*
X47541107Y14467868D01*
X47562150Y14480480D01*
X47584329Y14490970D01*
X47607428Y14499235D01*
X47631227Y14505196D01*
X47655495Y14508796D01*
X47679999Y14510000D01*
X48330001Y14510000D01*
X48354505Y14508796D01*
X48354505Y14508796D01*
G37*
D14*
X48005000Y13810000D03*
G04 #@! TD*
D13*
G04 #@! TO.C,R10*
G36*
X63829505Y14533796D02*
X63853773Y14530196D01*
X63877572Y14524235D01*
X63900671Y14515970D01*
X63922850Y14505480D01*
X63943893Y14492868D01*
X63963599Y14478253D01*
X63981777Y14461777D01*
X63998253Y14443599D01*
X64012868Y14423893D01*
X64025480Y14402850D01*
X64035970Y14380671D01*
X64044235Y14357572D01*
X64050196Y14333773D01*
X64053796Y14309505D01*
X64055000Y14285001D01*
X64055000Y13384999D01*
X64053796Y13360495D01*
X64050196Y13336227D01*
X64044235Y13312428D01*
X64035970Y13289329D01*
X64025480Y13267150D01*
X64012868Y13246107D01*
X63998253Y13226401D01*
X63981777Y13208223D01*
X63963599Y13191747D01*
X63943893Y13177132D01*
X63922850Y13164520D01*
X63900671Y13154030D01*
X63877572Y13145765D01*
X63853773Y13139804D01*
X63829505Y13136204D01*
X63805001Y13135000D01*
X63154999Y13135000D01*
X63130495Y13136204D01*
X63106227Y13139804D01*
X63082428Y13145765D01*
X63059329Y13154030D01*
X63037150Y13164520D01*
X63016107Y13177132D01*
X62996401Y13191747D01*
X62978223Y13208223D01*
X62961747Y13226401D01*
X62947132Y13246107D01*
X62934520Y13267150D01*
X62924030Y13289329D01*
X62915765Y13312428D01*
X62909804Y13336227D01*
X62906204Y13360495D01*
X62905000Y13384999D01*
X62905000Y14285001D01*
X62906204Y14309505D01*
X62909804Y14333773D01*
X62915765Y14357572D01*
X62924030Y14380671D01*
X62934520Y14402850D01*
X62947132Y14423893D01*
X62961747Y14443599D01*
X62978223Y14461777D01*
X62996401Y14478253D01*
X63016107Y14492868D01*
X63037150Y14505480D01*
X63059329Y14515970D01*
X63082428Y14524235D01*
X63106227Y14530196D01*
X63130495Y14533796D01*
X63154999Y14535000D01*
X63805001Y14535000D01*
X63829505Y14533796D01*
X63829505Y14533796D01*
G37*
D14*
X63480000Y13835000D03*
D13*
G36*
X61779505Y14533796D02*
X61803773Y14530196D01*
X61827572Y14524235D01*
X61850671Y14515970D01*
X61872850Y14505480D01*
X61893893Y14492868D01*
X61913599Y14478253D01*
X61931777Y14461777D01*
X61948253Y14443599D01*
X61962868Y14423893D01*
X61975480Y14402850D01*
X61985970Y14380671D01*
X61994235Y14357572D01*
X62000196Y14333773D01*
X62003796Y14309505D01*
X62005000Y14285001D01*
X62005000Y13384999D01*
X62003796Y13360495D01*
X62000196Y13336227D01*
X61994235Y13312428D01*
X61985970Y13289329D01*
X61975480Y13267150D01*
X61962868Y13246107D01*
X61948253Y13226401D01*
X61931777Y13208223D01*
X61913599Y13191747D01*
X61893893Y13177132D01*
X61872850Y13164520D01*
X61850671Y13154030D01*
X61827572Y13145765D01*
X61803773Y13139804D01*
X61779505Y13136204D01*
X61755001Y13135000D01*
X61104999Y13135000D01*
X61080495Y13136204D01*
X61056227Y13139804D01*
X61032428Y13145765D01*
X61009329Y13154030D01*
X60987150Y13164520D01*
X60966107Y13177132D01*
X60946401Y13191747D01*
X60928223Y13208223D01*
X60911747Y13226401D01*
X60897132Y13246107D01*
X60884520Y13267150D01*
X60874030Y13289329D01*
X60865765Y13312428D01*
X60859804Y13336227D01*
X60856204Y13360495D01*
X60855000Y13384999D01*
X60855000Y14285001D01*
X60856204Y14309505D01*
X60859804Y14333773D01*
X60865765Y14357572D01*
X60874030Y14380671D01*
X60884520Y14402850D01*
X60897132Y14423893D01*
X60911747Y14443599D01*
X60928223Y14461777D01*
X60946401Y14478253D01*
X60966107Y14492868D01*
X60987150Y14505480D01*
X61009329Y14515970D01*
X61032428Y14524235D01*
X61056227Y14530196D01*
X61080495Y14533796D01*
X61104999Y14535000D01*
X61755001Y14535000D01*
X61779505Y14533796D01*
X61779505Y14533796D01*
G37*
D14*
X61430000Y13835000D03*
G04 #@! TD*
D27*
G04 #@! TO.C,U2*
X65400000Y40780000D03*
X65400000Y41730000D03*
X65400000Y42680000D03*
X62700000Y42680000D03*
X62700000Y40780000D03*
G04 #@! TD*
D13*
G04 #@! TO.C,R16*
G36*
X53004505Y14458796D02*
X53028773Y14455196D01*
X53052572Y14449235D01*
X53075671Y14440970D01*
X53097850Y14430480D01*
X53118893Y14417868D01*
X53138599Y14403253D01*
X53156777Y14386777D01*
X53173253Y14368599D01*
X53187868Y14348893D01*
X53200480Y14327850D01*
X53210970Y14305671D01*
X53219235Y14282572D01*
X53225196Y14258773D01*
X53228796Y14234505D01*
X53230000Y14210001D01*
X53230000Y13309999D01*
X53228796Y13285495D01*
X53225196Y13261227D01*
X53219235Y13237428D01*
X53210970Y13214329D01*
X53200480Y13192150D01*
X53187868Y13171107D01*
X53173253Y13151401D01*
X53156777Y13133223D01*
X53138599Y13116747D01*
X53118893Y13102132D01*
X53097850Y13089520D01*
X53075671Y13079030D01*
X53052572Y13070765D01*
X53028773Y13064804D01*
X53004505Y13061204D01*
X52980001Y13060000D01*
X52329999Y13060000D01*
X52305495Y13061204D01*
X52281227Y13064804D01*
X52257428Y13070765D01*
X52234329Y13079030D01*
X52212150Y13089520D01*
X52191107Y13102132D01*
X52171401Y13116747D01*
X52153223Y13133223D01*
X52136747Y13151401D01*
X52122132Y13171107D01*
X52109520Y13192150D01*
X52099030Y13214329D01*
X52090765Y13237428D01*
X52084804Y13261227D01*
X52081204Y13285495D01*
X52080000Y13309999D01*
X52080000Y14210001D01*
X52081204Y14234505D01*
X52084804Y14258773D01*
X52090765Y14282572D01*
X52099030Y14305671D01*
X52109520Y14327850D01*
X52122132Y14348893D01*
X52136747Y14368599D01*
X52153223Y14386777D01*
X52171401Y14403253D01*
X52191107Y14417868D01*
X52212150Y14430480D01*
X52234329Y14440970D01*
X52257428Y14449235D01*
X52281227Y14455196D01*
X52305495Y14458796D01*
X52329999Y14460000D01*
X52980001Y14460000D01*
X53004505Y14458796D01*
X53004505Y14458796D01*
G37*
D14*
X52655000Y13760000D03*
D13*
G36*
X55054505Y14458796D02*
X55078773Y14455196D01*
X55102572Y14449235D01*
X55125671Y14440970D01*
X55147850Y14430480D01*
X55168893Y14417868D01*
X55188599Y14403253D01*
X55206777Y14386777D01*
X55223253Y14368599D01*
X55237868Y14348893D01*
X55250480Y14327850D01*
X55260970Y14305671D01*
X55269235Y14282572D01*
X55275196Y14258773D01*
X55278796Y14234505D01*
X55280000Y14210001D01*
X55280000Y13309999D01*
X55278796Y13285495D01*
X55275196Y13261227D01*
X55269235Y13237428D01*
X55260970Y13214329D01*
X55250480Y13192150D01*
X55237868Y13171107D01*
X55223253Y13151401D01*
X55206777Y13133223D01*
X55188599Y13116747D01*
X55168893Y13102132D01*
X55147850Y13089520D01*
X55125671Y13079030D01*
X55102572Y13070765D01*
X55078773Y13064804D01*
X55054505Y13061204D01*
X55030001Y13060000D01*
X54379999Y13060000D01*
X54355495Y13061204D01*
X54331227Y13064804D01*
X54307428Y13070765D01*
X54284329Y13079030D01*
X54262150Y13089520D01*
X54241107Y13102132D01*
X54221401Y13116747D01*
X54203223Y13133223D01*
X54186747Y13151401D01*
X54172132Y13171107D01*
X54159520Y13192150D01*
X54149030Y13214329D01*
X54140765Y13237428D01*
X54134804Y13261227D01*
X54131204Y13285495D01*
X54130000Y13309999D01*
X54130000Y14210001D01*
X54131204Y14234505D01*
X54134804Y14258773D01*
X54140765Y14282572D01*
X54149030Y14305671D01*
X54159520Y14327850D01*
X54172132Y14348893D01*
X54186747Y14368599D01*
X54203223Y14386777D01*
X54221401Y14403253D01*
X54241107Y14417868D01*
X54262150Y14430480D01*
X54284329Y14440970D01*
X54307428Y14449235D01*
X54331227Y14455196D01*
X54355495Y14458796D01*
X54379999Y14460000D01*
X55030001Y14460000D01*
X55054505Y14458796D01*
X55054505Y14458796D01*
G37*
D14*
X54705000Y13760000D03*
G04 #@! TD*
D13*
G04 #@! TO.C,R17*
G36*
X59104505Y14458796D02*
X59128773Y14455196D01*
X59152572Y14449235D01*
X59175671Y14440970D01*
X59197850Y14430480D01*
X59218893Y14417868D01*
X59238599Y14403253D01*
X59256777Y14386777D01*
X59273253Y14368599D01*
X59287868Y14348893D01*
X59300480Y14327850D01*
X59310970Y14305671D01*
X59319235Y14282572D01*
X59325196Y14258773D01*
X59328796Y14234505D01*
X59330000Y14210001D01*
X59330000Y13309999D01*
X59328796Y13285495D01*
X59325196Y13261227D01*
X59319235Y13237428D01*
X59310970Y13214329D01*
X59300480Y13192150D01*
X59287868Y13171107D01*
X59273253Y13151401D01*
X59256777Y13133223D01*
X59238599Y13116747D01*
X59218893Y13102132D01*
X59197850Y13089520D01*
X59175671Y13079030D01*
X59152572Y13070765D01*
X59128773Y13064804D01*
X59104505Y13061204D01*
X59080001Y13060000D01*
X58429999Y13060000D01*
X58405495Y13061204D01*
X58381227Y13064804D01*
X58357428Y13070765D01*
X58334329Y13079030D01*
X58312150Y13089520D01*
X58291107Y13102132D01*
X58271401Y13116747D01*
X58253223Y13133223D01*
X58236747Y13151401D01*
X58222132Y13171107D01*
X58209520Y13192150D01*
X58199030Y13214329D01*
X58190765Y13237428D01*
X58184804Y13261227D01*
X58181204Y13285495D01*
X58180000Y13309999D01*
X58180000Y14210001D01*
X58181204Y14234505D01*
X58184804Y14258773D01*
X58190765Y14282572D01*
X58199030Y14305671D01*
X58209520Y14327850D01*
X58222132Y14348893D01*
X58236747Y14368599D01*
X58253223Y14386777D01*
X58271401Y14403253D01*
X58291107Y14417868D01*
X58312150Y14430480D01*
X58334329Y14440970D01*
X58357428Y14449235D01*
X58381227Y14455196D01*
X58405495Y14458796D01*
X58429999Y14460000D01*
X59080001Y14460000D01*
X59104505Y14458796D01*
X59104505Y14458796D01*
G37*
D14*
X58755000Y13760000D03*
D13*
G36*
X57054505Y14458796D02*
X57078773Y14455196D01*
X57102572Y14449235D01*
X57125671Y14440970D01*
X57147850Y14430480D01*
X57168893Y14417868D01*
X57188599Y14403253D01*
X57206777Y14386777D01*
X57223253Y14368599D01*
X57237868Y14348893D01*
X57250480Y14327850D01*
X57260970Y14305671D01*
X57269235Y14282572D01*
X57275196Y14258773D01*
X57278796Y14234505D01*
X57280000Y14210001D01*
X57280000Y13309999D01*
X57278796Y13285495D01*
X57275196Y13261227D01*
X57269235Y13237428D01*
X57260970Y13214329D01*
X57250480Y13192150D01*
X57237868Y13171107D01*
X57223253Y13151401D01*
X57206777Y13133223D01*
X57188599Y13116747D01*
X57168893Y13102132D01*
X57147850Y13089520D01*
X57125671Y13079030D01*
X57102572Y13070765D01*
X57078773Y13064804D01*
X57054505Y13061204D01*
X57030001Y13060000D01*
X56379999Y13060000D01*
X56355495Y13061204D01*
X56331227Y13064804D01*
X56307428Y13070765D01*
X56284329Y13079030D01*
X56262150Y13089520D01*
X56241107Y13102132D01*
X56221401Y13116747D01*
X56203223Y13133223D01*
X56186747Y13151401D01*
X56172132Y13171107D01*
X56159520Y13192150D01*
X56149030Y13214329D01*
X56140765Y13237428D01*
X56134804Y13261227D01*
X56131204Y13285495D01*
X56130000Y13309999D01*
X56130000Y14210001D01*
X56131204Y14234505D01*
X56134804Y14258773D01*
X56140765Y14282572D01*
X56149030Y14305671D01*
X56159520Y14327850D01*
X56172132Y14348893D01*
X56186747Y14368599D01*
X56203223Y14386777D01*
X56221401Y14403253D01*
X56241107Y14417868D01*
X56262150Y14430480D01*
X56284329Y14440970D01*
X56307428Y14449235D01*
X56331227Y14455196D01*
X56355495Y14458796D01*
X56379999Y14460000D01*
X57030001Y14460000D01*
X57054505Y14458796D01*
X57054505Y14458796D01*
G37*
D14*
X56705000Y13760000D03*
G04 #@! TD*
D13*
G04 #@! TO.C,C9*
G36*
X64874505Y38808796D02*
X64898773Y38805196D01*
X64922572Y38799235D01*
X64945671Y38790970D01*
X64967850Y38780480D01*
X64988893Y38767868D01*
X65008599Y38753253D01*
X65026777Y38736777D01*
X65043253Y38718599D01*
X65057868Y38698893D01*
X65070480Y38677850D01*
X65080970Y38655671D01*
X65089235Y38632572D01*
X65095196Y38608773D01*
X65098796Y38584505D01*
X65100000Y38560001D01*
X65100000Y37659999D01*
X65098796Y37635495D01*
X65095196Y37611227D01*
X65089235Y37587428D01*
X65080970Y37564329D01*
X65070480Y37542150D01*
X65057868Y37521107D01*
X65043253Y37501401D01*
X65026777Y37483223D01*
X65008599Y37466747D01*
X64988893Y37452132D01*
X64967850Y37439520D01*
X64945671Y37429030D01*
X64922572Y37420765D01*
X64898773Y37414804D01*
X64874505Y37411204D01*
X64850001Y37410000D01*
X64199999Y37410000D01*
X64175495Y37411204D01*
X64151227Y37414804D01*
X64127428Y37420765D01*
X64104329Y37429030D01*
X64082150Y37439520D01*
X64061107Y37452132D01*
X64041401Y37466747D01*
X64023223Y37483223D01*
X64006747Y37501401D01*
X63992132Y37521107D01*
X63979520Y37542150D01*
X63969030Y37564329D01*
X63960765Y37587428D01*
X63954804Y37611227D01*
X63951204Y37635495D01*
X63950000Y37659999D01*
X63950000Y38560001D01*
X63951204Y38584505D01*
X63954804Y38608773D01*
X63960765Y38632572D01*
X63969030Y38655671D01*
X63979520Y38677850D01*
X63992132Y38698893D01*
X64006747Y38718599D01*
X64023223Y38736777D01*
X64041401Y38753253D01*
X64061107Y38767868D01*
X64082150Y38780480D01*
X64104329Y38790970D01*
X64127428Y38799235D01*
X64151227Y38805196D01*
X64175495Y38808796D01*
X64199999Y38810000D01*
X64850001Y38810000D01*
X64874505Y38808796D01*
X64874505Y38808796D01*
G37*
D14*
X64525000Y38110000D03*
D13*
G36*
X62824505Y38808796D02*
X62848773Y38805196D01*
X62872572Y38799235D01*
X62895671Y38790970D01*
X62917850Y38780480D01*
X62938893Y38767868D01*
X62958599Y38753253D01*
X62976777Y38736777D01*
X62993253Y38718599D01*
X63007868Y38698893D01*
X63020480Y38677850D01*
X63030970Y38655671D01*
X63039235Y38632572D01*
X63045196Y38608773D01*
X63048796Y38584505D01*
X63050000Y38560001D01*
X63050000Y37659999D01*
X63048796Y37635495D01*
X63045196Y37611227D01*
X63039235Y37587428D01*
X63030970Y37564329D01*
X63020480Y37542150D01*
X63007868Y37521107D01*
X62993253Y37501401D01*
X62976777Y37483223D01*
X62958599Y37466747D01*
X62938893Y37452132D01*
X62917850Y37439520D01*
X62895671Y37429030D01*
X62872572Y37420765D01*
X62848773Y37414804D01*
X62824505Y37411204D01*
X62800001Y37410000D01*
X62149999Y37410000D01*
X62125495Y37411204D01*
X62101227Y37414804D01*
X62077428Y37420765D01*
X62054329Y37429030D01*
X62032150Y37439520D01*
X62011107Y37452132D01*
X61991401Y37466747D01*
X61973223Y37483223D01*
X61956747Y37501401D01*
X61942132Y37521107D01*
X61929520Y37542150D01*
X61919030Y37564329D01*
X61910765Y37587428D01*
X61904804Y37611227D01*
X61901204Y37635495D01*
X61900000Y37659999D01*
X61900000Y38560001D01*
X61901204Y38584505D01*
X61904804Y38608773D01*
X61910765Y38632572D01*
X61919030Y38655671D01*
X61929520Y38677850D01*
X61942132Y38698893D01*
X61956747Y38718599D01*
X61973223Y38736777D01*
X61991401Y38753253D01*
X62011107Y38767868D01*
X62032150Y38780480D01*
X62054329Y38790970D01*
X62077428Y38799235D01*
X62101227Y38805196D01*
X62125495Y38808796D01*
X62149999Y38810000D01*
X62800001Y38810000D01*
X62824505Y38808796D01*
X62824505Y38808796D01*
G37*
D14*
X62475000Y38110000D03*
G04 #@! TD*
D13*
G04 #@! TO.C,C10*
G36*
X64600900Y25901588D02*
X64625168Y25897988D01*
X64648967Y25892027D01*
X64672066Y25883762D01*
X64694245Y25873272D01*
X64715288Y25860660D01*
X64734994Y25846045D01*
X64753172Y25829569D01*
X65389569Y25193172D01*
X65406045Y25174994D01*
X65420660Y25155288D01*
X65433272Y25134245D01*
X65443762Y25112066D01*
X65452027Y25088967D01*
X65457988Y25065168D01*
X65461588Y25040900D01*
X65462792Y25016396D01*
X65461588Y24991892D01*
X65457988Y24967624D01*
X65452027Y24943825D01*
X65443762Y24920726D01*
X65433272Y24898547D01*
X65420660Y24877504D01*
X65406045Y24857798D01*
X65389569Y24839620D01*
X64929948Y24379999D01*
X64911770Y24363523D01*
X64892064Y24348908D01*
X64871021Y24336296D01*
X64848842Y24325806D01*
X64825743Y24317541D01*
X64801944Y24311580D01*
X64777676Y24307980D01*
X64753172Y24306776D01*
X64728668Y24307980D01*
X64704400Y24311580D01*
X64680601Y24317541D01*
X64657502Y24325806D01*
X64635323Y24336296D01*
X64614280Y24348908D01*
X64594574Y24363523D01*
X64576396Y24379999D01*
X63939999Y25016396D01*
X63923523Y25034574D01*
X63908908Y25054280D01*
X63896296Y25075323D01*
X63885806Y25097502D01*
X63877541Y25120601D01*
X63871580Y25144400D01*
X63867980Y25168668D01*
X63866776Y25193172D01*
X63867980Y25217676D01*
X63871580Y25241944D01*
X63877541Y25265743D01*
X63885806Y25288842D01*
X63896296Y25311021D01*
X63908908Y25332064D01*
X63923523Y25351770D01*
X63939999Y25369948D01*
X64399620Y25829569D01*
X64417798Y25846045D01*
X64437504Y25860660D01*
X64458547Y25873272D01*
X64480726Y25883762D01*
X64503825Y25892027D01*
X64527624Y25897988D01*
X64551892Y25901588D01*
X64576396Y25902792D01*
X64600900Y25901588D01*
X64600900Y25901588D01*
G37*
D14*
X64664784Y25104784D03*
D13*
G36*
X63151332Y24452020D02*
X63175600Y24448420D01*
X63199399Y24442459D01*
X63222498Y24434194D01*
X63244677Y24423704D01*
X63265720Y24411092D01*
X63285426Y24396477D01*
X63303604Y24380001D01*
X63940001Y23743604D01*
X63956477Y23725426D01*
X63971092Y23705720D01*
X63983704Y23684677D01*
X63994194Y23662498D01*
X64002459Y23639399D01*
X64008420Y23615600D01*
X64012020Y23591332D01*
X64013224Y23566828D01*
X64012020Y23542324D01*
X64008420Y23518056D01*
X64002459Y23494257D01*
X63994194Y23471158D01*
X63983704Y23448979D01*
X63971092Y23427936D01*
X63956477Y23408230D01*
X63940001Y23390052D01*
X63480380Y22930431D01*
X63462202Y22913955D01*
X63442496Y22899340D01*
X63421453Y22886728D01*
X63399274Y22876238D01*
X63376175Y22867973D01*
X63352376Y22862012D01*
X63328108Y22858412D01*
X63303604Y22857208D01*
X63279100Y22858412D01*
X63254832Y22862012D01*
X63231033Y22867973D01*
X63207934Y22876238D01*
X63185755Y22886728D01*
X63164712Y22899340D01*
X63145006Y22913955D01*
X63126828Y22930431D01*
X62490431Y23566828D01*
X62473955Y23585006D01*
X62459340Y23604712D01*
X62446728Y23625755D01*
X62436238Y23647934D01*
X62427973Y23671033D01*
X62422012Y23694832D01*
X62418412Y23719100D01*
X62417208Y23743604D01*
X62418412Y23768108D01*
X62422012Y23792376D01*
X62427973Y23816175D01*
X62436238Y23839274D01*
X62446728Y23861453D01*
X62459340Y23882496D01*
X62473955Y23902202D01*
X62490431Y23920380D01*
X62950052Y24380001D01*
X62968230Y24396477D01*
X62987936Y24411092D01*
X63008979Y24423704D01*
X63031158Y24434194D01*
X63054257Y24442459D01*
X63078056Y24448420D01*
X63102324Y24452020D01*
X63126828Y24453224D01*
X63151332Y24452020D01*
X63151332Y24452020D01*
G37*
D14*
X63215216Y23655216D03*
G04 #@! TD*
D13*
G04 #@! TO.C,D1*
G36*
X69714505Y43998796D02*
X69738773Y43995196D01*
X69762572Y43989235D01*
X69785671Y43980970D01*
X69807850Y43970480D01*
X69828893Y43957868D01*
X69848599Y43943253D01*
X69866777Y43926777D01*
X69883253Y43908599D01*
X69897868Y43888893D01*
X69910480Y43867850D01*
X69920970Y43845671D01*
X69929235Y43822572D01*
X69935196Y43798773D01*
X69938796Y43774505D01*
X69940000Y43750001D01*
X69940000Y43099999D01*
X69938796Y43075495D01*
X69935196Y43051227D01*
X69929235Y43027428D01*
X69920970Y43004329D01*
X69910480Y42982150D01*
X69897868Y42961107D01*
X69883253Y42941401D01*
X69866777Y42923223D01*
X69848599Y42906747D01*
X69828893Y42892132D01*
X69807850Y42879520D01*
X69785671Y42869030D01*
X69762572Y42860765D01*
X69738773Y42854804D01*
X69714505Y42851204D01*
X69690001Y42850000D01*
X68789999Y42850000D01*
X68765495Y42851204D01*
X68741227Y42854804D01*
X68717428Y42860765D01*
X68694329Y42869030D01*
X68672150Y42879520D01*
X68651107Y42892132D01*
X68631401Y42906747D01*
X68613223Y42923223D01*
X68596747Y42941401D01*
X68582132Y42961107D01*
X68569520Y42982150D01*
X68559030Y43004329D01*
X68550765Y43027428D01*
X68544804Y43051227D01*
X68541204Y43075495D01*
X68540000Y43099999D01*
X68540000Y43750001D01*
X68541204Y43774505D01*
X68544804Y43798773D01*
X68550765Y43822572D01*
X68559030Y43845671D01*
X68569520Y43867850D01*
X68582132Y43888893D01*
X68596747Y43908599D01*
X68613223Y43926777D01*
X68631401Y43943253D01*
X68651107Y43957868D01*
X68672150Y43970480D01*
X68694329Y43980970D01*
X68717428Y43989235D01*
X68741227Y43995196D01*
X68765495Y43998796D01*
X68789999Y44000000D01*
X69690001Y44000000D01*
X69714505Y43998796D01*
X69714505Y43998796D01*
G37*
D14*
X69240000Y43425000D03*
D13*
G36*
X69714505Y41948796D02*
X69738773Y41945196D01*
X69762572Y41939235D01*
X69785671Y41930970D01*
X69807850Y41920480D01*
X69828893Y41907868D01*
X69848599Y41893253D01*
X69866777Y41876777D01*
X69883253Y41858599D01*
X69897868Y41838893D01*
X69910480Y41817850D01*
X69920970Y41795671D01*
X69929235Y41772572D01*
X69935196Y41748773D01*
X69938796Y41724505D01*
X69940000Y41700001D01*
X69940000Y41049999D01*
X69938796Y41025495D01*
X69935196Y41001227D01*
X69929235Y40977428D01*
X69920970Y40954329D01*
X69910480Y40932150D01*
X69897868Y40911107D01*
X69883253Y40891401D01*
X69866777Y40873223D01*
X69848599Y40856747D01*
X69828893Y40842132D01*
X69807850Y40829520D01*
X69785671Y40819030D01*
X69762572Y40810765D01*
X69738773Y40804804D01*
X69714505Y40801204D01*
X69690001Y40800000D01*
X68789999Y40800000D01*
X68765495Y40801204D01*
X68741227Y40804804D01*
X68717428Y40810765D01*
X68694329Y40819030D01*
X68672150Y40829520D01*
X68651107Y40842132D01*
X68631401Y40856747D01*
X68613223Y40873223D01*
X68596747Y40891401D01*
X68582132Y40911107D01*
X68569520Y40932150D01*
X68559030Y40954329D01*
X68550765Y40977428D01*
X68544804Y41001227D01*
X68541204Y41025495D01*
X68540000Y41049999D01*
X68540000Y41700001D01*
X68541204Y41724505D01*
X68544804Y41748773D01*
X68550765Y41772572D01*
X68559030Y41795671D01*
X68569520Y41817850D01*
X68582132Y41838893D01*
X68596747Y41858599D01*
X68613223Y41876777D01*
X68631401Y41893253D01*
X68651107Y41907868D01*
X68672150Y41920480D01*
X68694329Y41930970D01*
X68717428Y41939235D01*
X68741227Y41945196D01*
X68765495Y41948796D01*
X68789999Y41950000D01*
X69690001Y41950000D01*
X69714505Y41948796D01*
X69714505Y41948796D01*
G37*
D14*
X69240000Y41375000D03*
G04 #@! TD*
D13*
G04 #@! TO.C,R9*
G36*
X60114505Y17768796D02*
X60138773Y17765196D01*
X60162572Y17759235D01*
X60185671Y17750970D01*
X60207850Y17740480D01*
X60228893Y17727868D01*
X60248599Y17713253D01*
X60266777Y17696777D01*
X60283253Y17678599D01*
X60297868Y17658893D01*
X60310480Y17637850D01*
X60320970Y17615671D01*
X60329235Y17592572D01*
X60335196Y17568773D01*
X60338796Y17544505D01*
X60340000Y17520001D01*
X60340000Y16869999D01*
X60338796Y16845495D01*
X60335196Y16821227D01*
X60329235Y16797428D01*
X60320970Y16774329D01*
X60310480Y16752150D01*
X60297868Y16731107D01*
X60283253Y16711401D01*
X60266777Y16693223D01*
X60248599Y16676747D01*
X60228893Y16662132D01*
X60207850Y16649520D01*
X60185671Y16639030D01*
X60162572Y16630765D01*
X60138773Y16624804D01*
X60114505Y16621204D01*
X60090001Y16620000D01*
X59189999Y16620000D01*
X59165495Y16621204D01*
X59141227Y16624804D01*
X59117428Y16630765D01*
X59094329Y16639030D01*
X59072150Y16649520D01*
X59051107Y16662132D01*
X59031401Y16676747D01*
X59013223Y16693223D01*
X58996747Y16711401D01*
X58982132Y16731107D01*
X58969520Y16752150D01*
X58959030Y16774329D01*
X58950765Y16797428D01*
X58944804Y16821227D01*
X58941204Y16845495D01*
X58940000Y16869999D01*
X58940000Y17520001D01*
X58941204Y17544505D01*
X58944804Y17568773D01*
X58950765Y17592572D01*
X58959030Y17615671D01*
X58969520Y17637850D01*
X58982132Y17658893D01*
X58996747Y17678599D01*
X59013223Y17696777D01*
X59031401Y17713253D01*
X59051107Y17727868D01*
X59072150Y17740480D01*
X59094329Y17750970D01*
X59117428Y17759235D01*
X59141227Y17765196D01*
X59165495Y17768796D01*
X59189999Y17770000D01*
X60090001Y17770000D01*
X60114505Y17768796D01*
X60114505Y17768796D01*
G37*
D14*
X59640000Y17195000D03*
D13*
G36*
X60114505Y19818796D02*
X60138773Y19815196D01*
X60162572Y19809235D01*
X60185671Y19800970D01*
X60207850Y19790480D01*
X60228893Y19777868D01*
X60248599Y19763253D01*
X60266777Y19746777D01*
X60283253Y19728599D01*
X60297868Y19708893D01*
X60310480Y19687850D01*
X60320970Y19665671D01*
X60329235Y19642572D01*
X60335196Y19618773D01*
X60338796Y19594505D01*
X60340000Y19570001D01*
X60340000Y18919999D01*
X60338796Y18895495D01*
X60335196Y18871227D01*
X60329235Y18847428D01*
X60320970Y18824329D01*
X60310480Y18802150D01*
X60297868Y18781107D01*
X60283253Y18761401D01*
X60266777Y18743223D01*
X60248599Y18726747D01*
X60228893Y18712132D01*
X60207850Y18699520D01*
X60185671Y18689030D01*
X60162572Y18680765D01*
X60138773Y18674804D01*
X60114505Y18671204D01*
X60090001Y18670000D01*
X59189999Y18670000D01*
X59165495Y18671204D01*
X59141227Y18674804D01*
X59117428Y18680765D01*
X59094329Y18689030D01*
X59072150Y18699520D01*
X59051107Y18712132D01*
X59031401Y18726747D01*
X59013223Y18743223D01*
X58996747Y18761401D01*
X58982132Y18781107D01*
X58969520Y18802150D01*
X58959030Y18824329D01*
X58950765Y18847428D01*
X58944804Y18871227D01*
X58941204Y18895495D01*
X58940000Y18919999D01*
X58940000Y19570001D01*
X58941204Y19594505D01*
X58944804Y19618773D01*
X58950765Y19642572D01*
X58959030Y19665671D01*
X58969520Y19687850D01*
X58982132Y19708893D01*
X58996747Y19728599D01*
X59013223Y19746777D01*
X59031401Y19763253D01*
X59051107Y19777868D01*
X59072150Y19790480D01*
X59094329Y19800970D01*
X59117428Y19809235D01*
X59141227Y19815196D01*
X59165495Y19818796D01*
X59189999Y19820000D01*
X60090001Y19820000D01*
X60114505Y19818796D01*
X60114505Y19818796D01*
G37*
D14*
X59640000Y19245000D03*
G04 #@! TD*
D13*
G04 #@! TO.C,R14*
G36*
X51404505Y17928796D02*
X51428773Y17925196D01*
X51452572Y17919235D01*
X51475671Y17910970D01*
X51497850Y17900480D01*
X51518893Y17887868D01*
X51538599Y17873253D01*
X51556777Y17856777D01*
X51573253Y17838599D01*
X51587868Y17818893D01*
X51600480Y17797850D01*
X51610970Y17775671D01*
X51619235Y17752572D01*
X51625196Y17728773D01*
X51628796Y17704505D01*
X51630000Y17680001D01*
X51630000Y16779999D01*
X51628796Y16755495D01*
X51625196Y16731227D01*
X51619235Y16707428D01*
X51610970Y16684329D01*
X51600480Y16662150D01*
X51587868Y16641107D01*
X51573253Y16621401D01*
X51556777Y16603223D01*
X51538599Y16586747D01*
X51518893Y16572132D01*
X51497850Y16559520D01*
X51475671Y16549030D01*
X51452572Y16540765D01*
X51428773Y16534804D01*
X51404505Y16531204D01*
X51380001Y16530000D01*
X50729999Y16530000D01*
X50705495Y16531204D01*
X50681227Y16534804D01*
X50657428Y16540765D01*
X50634329Y16549030D01*
X50612150Y16559520D01*
X50591107Y16572132D01*
X50571401Y16586747D01*
X50553223Y16603223D01*
X50536747Y16621401D01*
X50522132Y16641107D01*
X50509520Y16662150D01*
X50499030Y16684329D01*
X50490765Y16707428D01*
X50484804Y16731227D01*
X50481204Y16755495D01*
X50480000Y16779999D01*
X50480000Y17680001D01*
X50481204Y17704505D01*
X50484804Y17728773D01*
X50490765Y17752572D01*
X50499030Y17775671D01*
X50509520Y17797850D01*
X50522132Y17818893D01*
X50536747Y17838599D01*
X50553223Y17856777D01*
X50571401Y17873253D01*
X50591107Y17887868D01*
X50612150Y17900480D01*
X50634329Y17910970D01*
X50657428Y17919235D01*
X50681227Y17925196D01*
X50705495Y17928796D01*
X50729999Y17930000D01*
X51380001Y17930000D01*
X51404505Y17928796D01*
X51404505Y17928796D01*
G37*
D14*
X51055000Y17230000D03*
D13*
G36*
X49354505Y17928796D02*
X49378773Y17925196D01*
X49402572Y17919235D01*
X49425671Y17910970D01*
X49447850Y17900480D01*
X49468893Y17887868D01*
X49488599Y17873253D01*
X49506777Y17856777D01*
X49523253Y17838599D01*
X49537868Y17818893D01*
X49550480Y17797850D01*
X49560970Y17775671D01*
X49569235Y17752572D01*
X49575196Y17728773D01*
X49578796Y17704505D01*
X49580000Y17680001D01*
X49580000Y16779999D01*
X49578796Y16755495D01*
X49575196Y16731227D01*
X49569235Y16707428D01*
X49560970Y16684329D01*
X49550480Y16662150D01*
X49537868Y16641107D01*
X49523253Y16621401D01*
X49506777Y16603223D01*
X49488599Y16586747D01*
X49468893Y16572132D01*
X49447850Y16559520D01*
X49425671Y16549030D01*
X49402572Y16540765D01*
X49378773Y16534804D01*
X49354505Y16531204D01*
X49330001Y16530000D01*
X48679999Y16530000D01*
X48655495Y16531204D01*
X48631227Y16534804D01*
X48607428Y16540765D01*
X48584329Y16549030D01*
X48562150Y16559520D01*
X48541107Y16572132D01*
X48521401Y16586747D01*
X48503223Y16603223D01*
X48486747Y16621401D01*
X48472132Y16641107D01*
X48459520Y16662150D01*
X48449030Y16684329D01*
X48440765Y16707428D01*
X48434804Y16731227D01*
X48431204Y16755495D01*
X48430000Y16779999D01*
X48430000Y17680001D01*
X48431204Y17704505D01*
X48434804Y17728773D01*
X48440765Y17752572D01*
X48449030Y17775671D01*
X48459520Y17797850D01*
X48472132Y17818893D01*
X48486747Y17838599D01*
X48503223Y17856777D01*
X48521401Y17873253D01*
X48541107Y17887868D01*
X48562150Y17900480D01*
X48584329Y17910970D01*
X48607428Y17919235D01*
X48631227Y17925196D01*
X48655495Y17928796D01*
X48679999Y17930000D01*
X49330001Y17930000D01*
X49354505Y17928796D01*
X49354505Y17928796D01*
G37*
D14*
X49005000Y17230000D03*
G04 #@! TD*
D13*
G04 #@! TO.C,C11*
G36*
X61249505Y35008796D02*
X61273773Y35005196D01*
X61297572Y34999235D01*
X61320671Y34990970D01*
X61342850Y34980480D01*
X61363893Y34967868D01*
X61383599Y34953253D01*
X61401777Y34936777D01*
X61418253Y34918599D01*
X61432868Y34898893D01*
X61445480Y34877850D01*
X61455970Y34855671D01*
X61464235Y34832572D01*
X61470196Y34808773D01*
X61473796Y34784505D01*
X61475000Y34760001D01*
X61475000Y33859999D01*
X61473796Y33835495D01*
X61470196Y33811227D01*
X61464235Y33787428D01*
X61455970Y33764329D01*
X61445480Y33742150D01*
X61432868Y33721107D01*
X61418253Y33701401D01*
X61401777Y33683223D01*
X61383599Y33666747D01*
X61363893Y33652132D01*
X61342850Y33639520D01*
X61320671Y33629030D01*
X61297572Y33620765D01*
X61273773Y33614804D01*
X61249505Y33611204D01*
X61225001Y33610000D01*
X60574999Y33610000D01*
X60550495Y33611204D01*
X60526227Y33614804D01*
X60502428Y33620765D01*
X60479329Y33629030D01*
X60457150Y33639520D01*
X60436107Y33652132D01*
X60416401Y33666747D01*
X60398223Y33683223D01*
X60381747Y33701401D01*
X60367132Y33721107D01*
X60354520Y33742150D01*
X60344030Y33764329D01*
X60335765Y33787428D01*
X60329804Y33811227D01*
X60326204Y33835495D01*
X60325000Y33859999D01*
X60325000Y34760001D01*
X60326204Y34784505D01*
X60329804Y34808773D01*
X60335765Y34832572D01*
X60344030Y34855671D01*
X60354520Y34877850D01*
X60367132Y34898893D01*
X60381747Y34918599D01*
X60398223Y34936777D01*
X60416401Y34953253D01*
X60436107Y34967868D01*
X60457150Y34980480D01*
X60479329Y34990970D01*
X60502428Y34999235D01*
X60526227Y35005196D01*
X60550495Y35008796D01*
X60574999Y35010000D01*
X61225001Y35010000D01*
X61249505Y35008796D01*
X61249505Y35008796D01*
G37*
D14*
X60900000Y34310000D03*
D13*
G36*
X63299505Y35008796D02*
X63323773Y35005196D01*
X63347572Y34999235D01*
X63370671Y34990970D01*
X63392850Y34980480D01*
X63413893Y34967868D01*
X63433599Y34953253D01*
X63451777Y34936777D01*
X63468253Y34918599D01*
X63482868Y34898893D01*
X63495480Y34877850D01*
X63505970Y34855671D01*
X63514235Y34832572D01*
X63520196Y34808773D01*
X63523796Y34784505D01*
X63525000Y34760001D01*
X63525000Y33859999D01*
X63523796Y33835495D01*
X63520196Y33811227D01*
X63514235Y33787428D01*
X63505970Y33764329D01*
X63495480Y33742150D01*
X63482868Y33721107D01*
X63468253Y33701401D01*
X63451777Y33683223D01*
X63433599Y33666747D01*
X63413893Y33652132D01*
X63392850Y33639520D01*
X63370671Y33629030D01*
X63347572Y33620765D01*
X63323773Y33614804D01*
X63299505Y33611204D01*
X63275001Y33610000D01*
X62624999Y33610000D01*
X62600495Y33611204D01*
X62576227Y33614804D01*
X62552428Y33620765D01*
X62529329Y33629030D01*
X62507150Y33639520D01*
X62486107Y33652132D01*
X62466401Y33666747D01*
X62448223Y33683223D01*
X62431747Y33701401D01*
X62417132Y33721107D01*
X62404520Y33742150D01*
X62394030Y33764329D01*
X62385765Y33787428D01*
X62379804Y33811227D01*
X62376204Y33835495D01*
X62375000Y33859999D01*
X62375000Y34760001D01*
X62376204Y34784505D01*
X62379804Y34808773D01*
X62385765Y34832572D01*
X62394030Y34855671D01*
X62404520Y34877850D01*
X62417132Y34898893D01*
X62431747Y34918599D01*
X62448223Y34936777D01*
X62466401Y34953253D01*
X62486107Y34967868D01*
X62507150Y34980480D01*
X62529329Y34990970D01*
X62552428Y34999235D01*
X62576227Y35005196D01*
X62600495Y35008796D01*
X62624999Y35010000D01*
X63275001Y35010000D01*
X63299505Y35008796D01*
X63299505Y35008796D01*
G37*
D14*
X62950000Y34310000D03*
G04 #@! TD*
M02*
