G04 #@! TF.GenerationSoftware,KiCad,Pcbnew,(5.0.2)-1*
G04 #@! TF.CreationDate,2019-03-01T11:01:03+00:00*
G04 #@! TF.ProjectId,PCB_Card,5043425f-4361-4726-942e-6b696361645f,02*
G04 #@! TF.SameCoordinates,PX6ddf710PY7643e10*
G04 #@! TF.FileFunction,Other,Fab,Top*
%FSLAX46Y46*%
G04 Gerber Fmt 4.6, Leading zero omitted, Abs format (unit mm)*
G04 Created by KiCad (PCBNEW (5.0.2)-1) date 01/03/2019 11:01:03*
%MOMM*%
%LPD*%
G01*
G04 APERTURE LIST*
%ADD10C,0.300000*%
%ADD11C,0.200000*%
%ADD12C,0.150000*%
%ADD13C,0.100000*%
%ADD14C,0.075000*%
%ADD15C,0.080000*%
G04 APERTURE END LIST*
D10*
X-8918572Y32219086D02*
X-8918572Y32933372D01*
X-9632858Y33004800D01*
X-9561429Y32933372D01*
X-9490000Y32790515D01*
X-9490000Y32433372D01*
X-9561429Y32290515D01*
X-9632858Y32219086D01*
X-9775715Y32147658D01*
X-10132858Y32147658D01*
X-10275715Y32219086D01*
X-10347143Y32290515D01*
X-10418572Y32433372D01*
X-10418572Y32790515D01*
X-10347143Y32933372D01*
X-10275715Y33004800D01*
X-8918572Y30790515D02*
X-8918572Y31504800D01*
X-9632858Y31576229D01*
X-9561429Y31504800D01*
X-9490000Y31361943D01*
X-9490000Y31004800D01*
X-9561429Y30861943D01*
X-9632858Y30790515D01*
X-9775715Y30719086D01*
X-10132858Y30719086D01*
X-10275715Y30790515D01*
X-10347143Y30861943D01*
X-10418572Y31004800D01*
X-10418572Y31361943D01*
X-10347143Y31504800D01*
X-10275715Y31576229D01*
X-10275715Y30076229D02*
X-10347143Y30004800D01*
X-10418572Y30076229D01*
X-10347143Y30147658D01*
X-10275715Y30076229D01*
X-10418572Y30076229D01*
X-8918572Y29076229D02*
X-8918572Y28933372D01*
X-8990000Y28790515D01*
X-9061429Y28719086D01*
X-9204286Y28647658D01*
X-9490000Y28576229D01*
X-9847143Y28576229D01*
X-10132858Y28647658D01*
X-10275715Y28719086D01*
X-10347143Y28790515D01*
X-10418572Y28933372D01*
X-10418572Y29076229D01*
X-10347143Y29219086D01*
X-10275715Y29290515D01*
X-10132858Y29361943D01*
X-9847143Y29433372D01*
X-9490000Y29433372D01*
X-9204286Y29361943D01*
X-9061429Y29290515D01*
X-8990000Y29219086D01*
X-8918572Y29076229D01*
X-8918572Y27647658D02*
X-8918572Y27504800D01*
X-8990000Y27361943D01*
X-9061429Y27290515D01*
X-9204286Y27219086D01*
X-9490000Y27147658D01*
X-9847143Y27147658D01*
X-10132858Y27219086D01*
X-10275715Y27290515D01*
X-10347143Y27361943D01*
X-10418572Y27504800D01*
X-10418572Y27647658D01*
X-10347143Y27790515D01*
X-10275715Y27861943D01*
X-10132858Y27933372D01*
X-9847143Y28004800D01*
X-9490000Y28004800D01*
X-9204286Y27933372D01*
X-9061429Y27861943D01*
X-8990000Y27790515D01*
X-8918572Y27647658D01*
X-10418572Y25361943D02*
X-9418572Y25361943D01*
X-9561429Y25361943D02*
X-9490000Y25290515D01*
X-9418572Y25147658D01*
X-9418572Y24933372D01*
X-9490000Y24790515D01*
X-9632858Y24719086D01*
X-10418572Y24719086D01*
X-9632858Y24719086D02*
X-9490000Y24647658D01*
X-9418572Y24504800D01*
X-9418572Y24290515D01*
X-9490000Y24147658D01*
X-9632858Y24076229D01*
X-10418572Y24076229D01*
X-10418572Y23361943D02*
X-9418572Y23361943D01*
X-9561429Y23361943D02*
X-9490000Y23290515D01*
X-9418572Y23147658D01*
X-9418572Y22933372D01*
X-9490000Y22790515D01*
X-9632858Y22719086D01*
X-10418572Y22719086D01*
X-9632858Y22719086D02*
X-9490000Y22647658D01*
X-9418572Y22504800D01*
X-9418572Y22290515D01*
X-9490000Y22147658D01*
X-9632858Y22076229D01*
X-10418572Y22076229D01*
X-7640000Y55010000D02*
X-7640000Y-400D01*
X13670000Y55010000D02*
X-8226421Y55010000D01*
X13670000Y-400D02*
X-8226421Y-400D01*
X-7640000Y-400D02*
X-8226421Y1126104D01*
X-7640000Y-400D02*
X-7053579Y1126104D01*
X-7640000Y55010000D02*
X-8226421Y53883496D01*
X-7640000Y55010000D02*
X-7053579Y53883496D01*
X38760718Y-7261428D02*
X38617861Y-7190000D01*
X38546432Y-7118571D01*
X38475004Y-6975714D01*
X38475004Y-6904285D01*
X38546432Y-6761428D01*
X38617861Y-6690000D01*
X38760718Y-6618571D01*
X39046432Y-6618571D01*
X39189289Y-6690000D01*
X39260718Y-6761428D01*
X39332146Y-6904285D01*
X39332146Y-6975714D01*
X39260718Y-7118571D01*
X39189289Y-7190000D01*
X39046432Y-7261428D01*
X38760718Y-7261428D01*
X38617861Y-7332857D01*
X38546432Y-7404285D01*
X38475004Y-7547142D01*
X38475004Y-7832857D01*
X38546432Y-7975714D01*
X38617861Y-8047142D01*
X38760718Y-8118571D01*
X39046432Y-8118571D01*
X39189289Y-8047142D01*
X39260718Y-7975714D01*
X39332146Y-7832857D01*
X39332146Y-7547142D01*
X39260718Y-7404285D01*
X39189289Y-7332857D01*
X39046432Y-7261428D01*
X40189289Y-7261428D02*
X40046432Y-7190000D01*
X39975004Y-7118571D01*
X39903575Y-6975714D01*
X39903575Y-6904285D01*
X39975004Y-6761428D01*
X40046432Y-6690000D01*
X40189289Y-6618571D01*
X40475004Y-6618571D01*
X40617861Y-6690000D01*
X40689289Y-6761428D01*
X40760718Y-6904285D01*
X40760718Y-6975714D01*
X40689289Y-7118571D01*
X40617861Y-7190000D01*
X40475004Y-7261428D01*
X40189289Y-7261428D01*
X40046432Y-7332857D01*
X39975004Y-7404285D01*
X39903575Y-7547142D01*
X39903575Y-7832857D01*
X39975004Y-7975714D01*
X40046432Y-8047142D01*
X40189289Y-8118571D01*
X40475004Y-8118571D01*
X40617861Y-8047142D01*
X40689289Y-7975714D01*
X40760718Y-7832857D01*
X40760718Y-7547142D01*
X40689289Y-7404285D01*
X40617861Y-7332857D01*
X40475004Y-7261428D01*
X41403575Y-7975714D02*
X41475004Y-8047142D01*
X41403575Y-8118571D01*
X41332146Y-8047142D01*
X41403575Y-7975714D01*
X41403575Y-8118571D01*
X42403575Y-6618571D02*
X42546432Y-6618571D01*
X42689289Y-6690000D01*
X42760718Y-6761428D01*
X42832146Y-6904285D01*
X42903575Y-7190000D01*
X42903575Y-7547142D01*
X42832146Y-7832857D01*
X42760718Y-7975714D01*
X42689289Y-8047142D01*
X42546432Y-8118571D01*
X42403575Y-8118571D01*
X42260718Y-8047142D01*
X42189289Y-7975714D01*
X42117861Y-7832857D01*
X42046432Y-7547142D01*
X42046432Y-7190000D01*
X42117861Y-6904285D01*
X42189289Y-6761428D01*
X42260718Y-6690000D01*
X42403575Y-6618571D01*
X43832146Y-6618571D02*
X43975004Y-6618571D01*
X44117861Y-6690000D01*
X44189289Y-6761428D01*
X44260718Y-6904285D01*
X44332146Y-7190000D01*
X44332146Y-7547142D01*
X44260718Y-7832857D01*
X44189289Y-7975714D01*
X44117861Y-8047142D01*
X43975004Y-8118571D01*
X43832146Y-8118571D01*
X43689289Y-8047142D01*
X43617861Y-7975714D01*
X43546432Y-7832857D01*
X43475004Y-7547142D01*
X43475004Y-7190000D01*
X43546432Y-6904285D01*
X43617861Y-6761428D01*
X43689289Y-6690000D01*
X43832146Y-6618571D01*
X46117861Y-8118571D02*
X46117861Y-7118571D01*
X46117861Y-7261428D02*
X46189289Y-7190000D01*
X46332146Y-7118571D01*
X46546432Y-7118571D01*
X46689289Y-7190000D01*
X46760718Y-7332857D01*
X46760718Y-8118571D01*
X46760718Y-7332857D02*
X46832146Y-7190000D01*
X46975004Y-7118571D01*
X47189289Y-7118571D01*
X47332146Y-7190000D01*
X47403575Y-7332857D01*
X47403575Y-8118571D01*
X48117861Y-8118571D02*
X48117861Y-7118571D01*
X48117861Y-7261428D02*
X48189289Y-7190000D01*
X48332146Y-7118571D01*
X48546432Y-7118571D01*
X48689289Y-7190000D01*
X48760718Y-7332857D01*
X48760718Y-8118571D01*
X48760718Y-7332857D02*
X48832146Y-7190000D01*
X48975004Y-7118571D01*
X49189289Y-7118571D01*
X49332146Y-7190000D01*
X49403575Y-7332857D01*
X49403575Y-8118571D01*
X-20000Y-5340000D02*
X87970009Y-5340000D01*
X-20000Y7710000D02*
X-20000Y-5926421D01*
X87970009Y7710000D02*
X87970009Y-5926421D01*
X87970009Y-5340000D02*
X86843505Y-5926421D01*
X87970009Y-5340000D02*
X86843505Y-4753579D01*
X-20000Y-5340000D02*
X1106504Y-5926421D01*
X-20000Y-5340000D02*
X1106504Y-4753579D01*
D11*
X87980000Y50010000D02*
X87980000Y5010000D01*
X-20000Y5010000D02*
G75*
G03X4980000Y10000I5000000J0D01*
G01*
X87980000Y5010000D02*
G75*
G02X82980000Y10000I-5000000J0D01*
G01*
X87980000Y50010000D02*
G75*
G03X82980000Y55010000I-5000000J0D01*
G01*
X-20000Y50010000D02*
G75*
G02X4980000Y55010000I5000000J0D01*
G01*
X-20000Y5010000D02*
X-20000Y50010000D01*
X82980000Y10000D02*
X4980000Y10000D01*
X4980000Y55010000D02*
X82980000Y55010000D01*
D12*
G04 #@! TO.C,J6*
X3080000Y4200000D02*
X3080000Y30360000D01*
X3080000Y30360000D02*
X32300000Y30360000D01*
X32300000Y30360000D02*
X32300000Y4200000D01*
X32300000Y4200000D02*
X3080000Y4200000D01*
X45430000Y25900000D02*
X45430000Y14500000D01*
X45430000Y14500000D02*
X36700000Y14500000D01*
X36700000Y14500000D02*
X32300000Y6800000D01*
X45430000Y25900000D02*
X36700000Y25900000D01*
X32300000Y27760000D02*
X36700000Y25900000D01*
D13*
G04 #@! TO.C,Q1*
X57230000Y17170000D02*
X57230000Y19620000D01*
X56680000Y16600000D02*
X55830000Y16600000D01*
X57230000Y17170000D02*
X56680000Y16600000D01*
X55830000Y16600000D02*
X55830000Y19640000D01*
X57230000Y19640000D02*
X55830000Y19640000D01*
G04 #@! TO.C,C4*
X54321371Y22027157D02*
X53472843Y21178629D01*
X53472843Y21178629D02*
X52058629Y22592843D01*
X52058629Y22592843D02*
X52907157Y23441371D01*
X52907157Y23441371D02*
X54321371Y22027157D01*
G04 #@! TO.C,C5*
X52541371Y32682843D02*
X51127157Y31268629D01*
X51692843Y33531371D02*
X52541371Y32682843D01*
X50278629Y32117157D02*
X51692843Y33531371D01*
X51127157Y31268629D02*
X50278629Y32117157D01*
G04 #@! TO.C,U1*
X56642893Y24037359D02*
X52400253Y28280000D01*
X52400253Y28280000D02*
X57350000Y33229747D01*
X57350000Y33229747D02*
X62299747Y28280000D01*
X62299747Y28280000D02*
X58057107Y24037359D01*
X58057107Y24037359D02*
X56642893Y24037359D01*
G04 #@! TO.C,J10*
X57705000Y54175000D02*
X57705000Y54025000D01*
X59905000Y54175000D02*
X60715000Y54175000D01*
X48305000Y54175000D02*
X46865000Y54175000D01*
X57905000Y54375000D02*
X59705000Y54375000D01*
X57705000Y54175000D02*
X57905000Y54375000D01*
X59705000Y54375000D02*
X59905000Y54175000D01*
X50755000Y54375000D02*
X51280000Y54025000D01*
X48505000Y54375000D02*
X48305000Y54175000D01*
X48505000Y54375000D02*
X50755000Y54375000D01*
X60715000Y54175000D02*
X60715000Y38225000D01*
X46865000Y54175000D02*
X46865000Y38225000D01*
X46865000Y38225000D02*
X60715000Y38225000D01*
X51280000Y54025000D02*
X57705000Y54025000D01*
X59215000Y55775000D02*
X49215000Y55775000D01*
X59215000Y59775000D02*
X49215000Y59775000D01*
X48715000Y59275000D02*
X48715000Y54375000D01*
X59715000Y54375000D02*
X59715000Y59275000D01*
X49215000Y55775000D02*
G75*
G03X48715000Y55275000I0J-500000D01*
G01*
X59715000Y55275000D02*
G75*
G03X59215000Y55775000I-500000J0D01*
G01*
X49215000Y59775000D02*
G75*
G03X48715000Y59275000I0J-500000D01*
G01*
X59715000Y59275000D02*
G75*
G03X59215000Y59775000I-500000J0D01*
G01*
G04 #@! TO.C,R15*
X69440000Y46230000D02*
X69440000Y47430000D01*
X69440000Y47430000D02*
X71440000Y47430000D01*
X71440000Y47430000D02*
X71440000Y46230000D01*
X71440000Y46230000D02*
X69440000Y46230000D01*
G04 #@! TO.C,J3*
X80855000Y20645000D02*
X86855000Y20645000D01*
X86855000Y21285000D02*
X86855000Y20645000D01*
X80855000Y21285000D02*
X86855000Y21285000D01*
X76495000Y20645000D02*
X78315000Y20645000D01*
X76495000Y21285000D02*
X76495000Y20645000D01*
X76495000Y21285000D02*
X78315000Y21285000D01*
X80855000Y23185000D02*
X86855000Y23185000D01*
X86855000Y23825000D02*
X86855000Y23185000D01*
X80855000Y23825000D02*
X86855000Y23825000D01*
X76495000Y23185000D02*
X78315000Y23185000D01*
X76495000Y23825000D02*
X76495000Y23185000D01*
X76495000Y23825000D02*
X78315000Y23825000D01*
X80855000Y25725000D02*
X86855000Y25725000D01*
X86855000Y26365000D02*
X86855000Y25725000D01*
X80855000Y26365000D02*
X86855000Y26365000D01*
X76495000Y25725000D02*
X78315000Y25725000D01*
X76495000Y26365000D02*
X76495000Y25725000D01*
X76495000Y26365000D02*
X78315000Y26365000D01*
X80855000Y28265000D02*
X86855000Y28265000D01*
X86855000Y28905000D02*
X86855000Y28265000D01*
X80855000Y28905000D02*
X86855000Y28905000D01*
X76495000Y28265000D02*
X78315000Y28265000D01*
X76495000Y28905000D02*
X76495000Y28265000D01*
X76495000Y28905000D02*
X78315000Y28905000D01*
X80855000Y30805000D02*
X86855000Y30805000D01*
X86855000Y31445000D02*
X86855000Y30805000D01*
X80855000Y31445000D02*
X86855000Y31445000D01*
X76495000Y30805000D02*
X78315000Y30805000D01*
X76495000Y31445000D02*
X76495000Y30805000D01*
X76495000Y31445000D02*
X78315000Y31445000D01*
X80855000Y33345000D02*
X86855000Y33345000D01*
X86855000Y33985000D02*
X86855000Y33345000D01*
X80855000Y33985000D02*
X86855000Y33985000D01*
X76495000Y33345000D02*
X78315000Y33345000D01*
X76495000Y33985000D02*
X76495000Y33345000D01*
X76495000Y33985000D02*
X78315000Y33985000D01*
X78315000Y34300000D02*
X78950000Y34935000D01*
X78315000Y19695000D02*
X78315000Y34300000D01*
X80855000Y19695000D02*
X78315000Y19695000D01*
X80855000Y34935000D02*
X80855000Y19695000D01*
X78950000Y34935000D02*
X80855000Y34935000D01*
G04 #@! TO.C,Y1*
X65300000Y20070000D02*
X69900000Y20070000D01*
X69900000Y20070000D02*
X70100000Y19870000D01*
X70100000Y19870000D02*
X70100000Y17070000D01*
X70100000Y17070000D02*
X69900000Y16870000D01*
X69900000Y16870000D02*
X65300000Y16870000D01*
X65300000Y16870000D02*
X65100000Y17070000D01*
X65100000Y17070000D02*
X65100000Y19870000D01*
X65100000Y19870000D02*
X65300000Y20070000D01*
X65100000Y17870000D02*
X66100000Y16870000D01*
G04 #@! TO.C,C7*
X64250000Y19470000D02*
X64250000Y17470000D01*
X63050000Y19470000D02*
X64250000Y19470000D01*
X63050000Y17470000D02*
X63050000Y19470000D01*
X64250000Y17470000D02*
X63050000Y17470000D01*
G04 #@! TO.C,C8*
X70900000Y19470000D02*
X72100000Y19470000D01*
X72100000Y19470000D02*
X72100000Y17470000D01*
X72100000Y17470000D02*
X70900000Y17470000D01*
X70900000Y17470000D02*
X70900000Y19470000D01*
G04 #@! TO.C,R8*
X68045000Y14453000D02*
X68045000Y13253000D01*
X68045000Y13253000D02*
X66045000Y13253000D01*
X66045000Y13253000D02*
X66045000Y14453000D01*
X66045000Y14453000D02*
X68045000Y14453000D01*
G04 #@! TO.C,D2*
X69485000Y31680000D02*
X66960000Y31680000D01*
X66960000Y31680000D02*
X66960000Y34380000D01*
X66960000Y34380000D02*
X70160000Y34380000D01*
X70160000Y34380000D02*
X70160000Y32355000D01*
X70160000Y32355000D02*
X69485000Y31680000D01*
G04 #@! TO.C,C1*
X65870000Y45270000D02*
X65870000Y44070000D01*
X65870000Y44070000D02*
X63870000Y44070000D01*
X63870000Y44070000D02*
X63870000Y45270000D01*
X63870000Y45270000D02*
X65870000Y45270000D01*
G04 #@! TO.C,C2*
X62500000Y36810000D02*
X64500000Y36810000D01*
X62500000Y35610000D02*
X62500000Y36810000D01*
X64500000Y35610000D02*
X62500000Y35610000D01*
X64500000Y36810000D02*
X64500000Y35610000D01*
G04 #@! TO.C,C3*
X54400000Y35620000D02*
X54400000Y36820000D01*
X54400000Y36820000D02*
X56400000Y36820000D01*
X56400000Y36820000D02*
X56400000Y35620000D01*
X56400000Y35620000D02*
X54400000Y35620000D01*
G04 #@! TO.C,C6*
X51500000Y18680000D02*
X49500000Y18680000D01*
X51500000Y19880000D02*
X51500000Y18680000D01*
X49500000Y19880000D02*
X51500000Y19880000D01*
X49500000Y18680000D02*
X49500000Y19880000D01*
G04 #@! TO.C,J1*
X65699000Y55684000D02*
X73199000Y55684000D01*
X65699000Y50684000D02*
X65699000Y55684000D01*
X73199000Y50684000D02*
X65699000Y50684000D01*
X73199000Y55684000D02*
X73199000Y50684000D01*
X72699000Y54984000D02*
X66199000Y54984000D01*
G04 #@! TO.C,J2*
X78950000Y51445000D02*
X80855000Y51445000D01*
X80855000Y51445000D02*
X80855000Y36205000D01*
X80855000Y36205000D02*
X78315000Y36205000D01*
X78315000Y36205000D02*
X78315000Y50810000D01*
X78315000Y50810000D02*
X78950000Y51445000D01*
X76495000Y50495000D02*
X78315000Y50495000D01*
X76495000Y50495000D02*
X76495000Y49855000D01*
X76495000Y49855000D02*
X78315000Y49855000D01*
X80855000Y50495000D02*
X86855000Y50495000D01*
X86855000Y50495000D02*
X86855000Y49855000D01*
X80855000Y49855000D02*
X86855000Y49855000D01*
X76495000Y47955000D02*
X78315000Y47955000D01*
X76495000Y47955000D02*
X76495000Y47315000D01*
X76495000Y47315000D02*
X78315000Y47315000D01*
X80855000Y47955000D02*
X86855000Y47955000D01*
X86855000Y47955000D02*
X86855000Y47315000D01*
X80855000Y47315000D02*
X86855000Y47315000D01*
X76495000Y45415000D02*
X78315000Y45415000D01*
X76495000Y45415000D02*
X76495000Y44775000D01*
X76495000Y44775000D02*
X78315000Y44775000D01*
X80855000Y45415000D02*
X86855000Y45415000D01*
X86855000Y45415000D02*
X86855000Y44775000D01*
X80855000Y44775000D02*
X86855000Y44775000D01*
X76495000Y42875000D02*
X78315000Y42875000D01*
X76495000Y42875000D02*
X76495000Y42235000D01*
X76495000Y42235000D02*
X78315000Y42235000D01*
X80855000Y42875000D02*
X86855000Y42875000D01*
X86855000Y42875000D02*
X86855000Y42235000D01*
X80855000Y42235000D02*
X86855000Y42235000D01*
X76495000Y40335000D02*
X78315000Y40335000D01*
X76495000Y40335000D02*
X76495000Y39695000D01*
X76495000Y39695000D02*
X78315000Y39695000D01*
X80855000Y40335000D02*
X86855000Y40335000D01*
X86855000Y40335000D02*
X86855000Y39695000D01*
X80855000Y39695000D02*
X86855000Y39695000D01*
X76495000Y37795000D02*
X78315000Y37795000D01*
X76495000Y37795000D02*
X76495000Y37155000D01*
X76495000Y37155000D02*
X78315000Y37155000D01*
X80855000Y37795000D02*
X86855000Y37795000D01*
X86855000Y37795000D02*
X86855000Y37155000D01*
X80855000Y37155000D02*
X86855000Y37155000D01*
G04 #@! TO.C,J4*
X72370000Y8670000D02*
X72370000Y6765000D01*
X72370000Y6765000D02*
X62210000Y6765000D01*
X62210000Y6765000D02*
X62210000Y9305000D01*
X62210000Y9305000D02*
X71735000Y9305000D01*
X71735000Y9305000D02*
X72370000Y8670000D01*
X71420000Y11125000D02*
X71420000Y9305000D01*
X71420000Y11125000D02*
X70780000Y11125000D01*
X70780000Y11125000D02*
X70780000Y9305000D01*
X71420000Y6765000D02*
X71420000Y765000D01*
X71420000Y765000D02*
X70780000Y765000D01*
X70780000Y6765000D02*
X70780000Y765000D01*
X68880000Y11125000D02*
X68880000Y9305000D01*
X68880000Y11125000D02*
X68240000Y11125000D01*
X68240000Y11125000D02*
X68240000Y9305000D01*
X68880000Y6765000D02*
X68880000Y765000D01*
X68880000Y765000D02*
X68240000Y765000D01*
X68240000Y6765000D02*
X68240000Y765000D01*
X66340000Y11125000D02*
X66340000Y9305000D01*
X66340000Y11125000D02*
X65700000Y11125000D01*
X65700000Y11125000D02*
X65700000Y9305000D01*
X66340000Y6765000D02*
X66340000Y765000D01*
X66340000Y765000D02*
X65700000Y765000D01*
X65700000Y6765000D02*
X65700000Y765000D01*
X63800000Y11125000D02*
X63800000Y9305000D01*
X63800000Y11125000D02*
X63160000Y11125000D01*
X63160000Y11125000D02*
X63160000Y9305000D01*
X63800000Y6765000D02*
X63800000Y765000D01*
X63800000Y765000D02*
X63160000Y765000D01*
X63160000Y6765000D02*
X63160000Y765000D01*
G04 #@! TO.C,J5*
X78950000Y18425000D02*
X80855000Y18425000D01*
X80855000Y18425000D02*
X80855000Y3185000D01*
X80855000Y3185000D02*
X78315000Y3185000D01*
X78315000Y3185000D02*
X78315000Y17790000D01*
X78315000Y17790000D02*
X78950000Y18425000D01*
X76495000Y17475000D02*
X78315000Y17475000D01*
X76495000Y17475000D02*
X76495000Y16835000D01*
X76495000Y16835000D02*
X78315000Y16835000D01*
X80855000Y17475000D02*
X86855000Y17475000D01*
X86855000Y17475000D02*
X86855000Y16835000D01*
X80855000Y16835000D02*
X86855000Y16835000D01*
X76495000Y14935000D02*
X78315000Y14935000D01*
X76495000Y14935000D02*
X76495000Y14295000D01*
X76495000Y14295000D02*
X78315000Y14295000D01*
X80855000Y14935000D02*
X86855000Y14935000D01*
X86855000Y14935000D02*
X86855000Y14295000D01*
X80855000Y14295000D02*
X86855000Y14295000D01*
X76495000Y12395000D02*
X78315000Y12395000D01*
X76495000Y12395000D02*
X76495000Y11755000D01*
X76495000Y11755000D02*
X78315000Y11755000D01*
X80855000Y12395000D02*
X86855000Y12395000D01*
X86855000Y12395000D02*
X86855000Y11755000D01*
X80855000Y11755000D02*
X86855000Y11755000D01*
X76495000Y9855000D02*
X78315000Y9855000D01*
X76495000Y9855000D02*
X76495000Y9215000D01*
X76495000Y9215000D02*
X78315000Y9215000D01*
X80855000Y9855000D02*
X86855000Y9855000D01*
X86855000Y9855000D02*
X86855000Y9215000D01*
X80855000Y9215000D02*
X86855000Y9215000D01*
X76495000Y7315000D02*
X78315000Y7315000D01*
X76495000Y7315000D02*
X76495000Y6675000D01*
X76495000Y6675000D02*
X78315000Y6675000D01*
X80855000Y7315000D02*
X86855000Y7315000D01*
X86855000Y7315000D02*
X86855000Y6675000D01*
X80855000Y6675000D02*
X86855000Y6675000D01*
X76495000Y4775000D02*
X78315000Y4775000D01*
X76495000Y4775000D02*
X76495000Y4135000D01*
X76495000Y4135000D02*
X78315000Y4135000D01*
X80855000Y4775000D02*
X86855000Y4775000D01*
X86855000Y4775000D02*
X86855000Y4135000D01*
X80855000Y4135000D02*
X86855000Y4135000D01*
G04 #@! TO.C,R1*
X70680000Y43430000D02*
X71880000Y43430000D01*
X71880000Y43430000D02*
X71880000Y41430000D01*
X71880000Y41430000D02*
X70680000Y41430000D01*
X70680000Y41430000D02*
X70680000Y43430000D01*
G04 #@! TO.C,R2*
X65860000Y47220000D02*
X65860000Y46020000D01*
X65860000Y46020000D02*
X63860000Y46020000D01*
X63860000Y46020000D02*
X63860000Y47220000D01*
X63860000Y47220000D02*
X65860000Y47220000D01*
G04 #@! TO.C,R3*
X65860000Y47960000D02*
X63860000Y47960000D01*
X65860000Y49160000D02*
X65860000Y47960000D01*
X63860000Y49160000D02*
X65860000Y49160000D01*
X63860000Y47960000D02*
X63860000Y49160000D01*
G04 #@! TO.C,R4*
X68630000Y36360000D02*
X68630000Y35160000D01*
X68630000Y35160000D02*
X66630000Y35160000D01*
X66630000Y35160000D02*
X66630000Y36360000D01*
X66630000Y36360000D02*
X68630000Y36360000D01*
G04 #@! TO.C,R5*
X72405000Y32030000D02*
X72405000Y34030000D01*
X73605000Y32030000D02*
X72405000Y32030000D01*
X73605000Y34030000D02*
X73605000Y32030000D01*
X72405000Y34030000D02*
X73605000Y34030000D01*
G04 #@! TO.C,R6*
X66580000Y30860000D02*
X68580000Y30860000D01*
X66580000Y29660000D02*
X66580000Y30860000D01*
X68580000Y29660000D02*
X66580000Y29660000D01*
X68580000Y30860000D02*
X68580000Y29660000D01*
G04 #@! TO.C,R7*
X50030000Y14410000D02*
X50030000Y13210000D01*
X50030000Y13210000D02*
X48030000Y13210000D01*
X48030000Y13210000D02*
X48030000Y14410000D01*
X48030000Y14410000D02*
X50030000Y14410000D01*
G04 #@! TO.C,R10*
X63455000Y13235000D02*
X61455000Y13235000D01*
X63455000Y14435000D02*
X63455000Y13235000D01*
X61455000Y14435000D02*
X63455000Y14435000D01*
X61455000Y13235000D02*
X61455000Y14435000D01*
G04 #@! TO.C,U2*
X64950000Y40830000D02*
X64300000Y40180000D01*
X63150000Y40180000D02*
X64300000Y40180000D01*
X64950000Y40830000D02*
X64950000Y43280000D01*
X63150000Y43280000D02*
X64950000Y43280000D01*
X63150000Y40180000D02*
X63150000Y43280000D01*
G04 #@! TO.C,J9*
X59200000Y8675000D02*
X59200000Y6770000D01*
X59200000Y6770000D02*
X46500000Y6770000D01*
X46500000Y6770000D02*
X46500000Y9310000D01*
X46500000Y9310000D02*
X58565000Y9310000D01*
X58565000Y9310000D02*
X59200000Y8675000D01*
X58250000Y11130000D02*
X58250000Y9310000D01*
X58250000Y11130000D02*
X57610000Y11130000D01*
X57610000Y11130000D02*
X57610000Y9310000D01*
X58250000Y6770000D02*
X58250000Y770000D01*
X58250000Y770000D02*
X57610000Y770000D01*
X57610000Y6770000D02*
X57610000Y770000D01*
X55710000Y11130000D02*
X55710000Y9310000D01*
X55710000Y11130000D02*
X55070000Y11130000D01*
X55070000Y11130000D02*
X55070000Y9310000D01*
X55710000Y6770000D02*
X55710000Y770000D01*
X55710000Y770000D02*
X55070000Y770000D01*
X55070000Y6770000D02*
X55070000Y770000D01*
X53170000Y11130000D02*
X53170000Y9310000D01*
X53170000Y11130000D02*
X52530000Y11130000D01*
X52530000Y11130000D02*
X52530000Y9310000D01*
X53170000Y6770000D02*
X53170000Y770000D01*
X53170000Y770000D02*
X52530000Y770000D01*
X52530000Y6770000D02*
X52530000Y770000D01*
X50630000Y11130000D02*
X50630000Y9310000D01*
X50630000Y11130000D02*
X49990000Y11130000D01*
X49990000Y11130000D02*
X49990000Y9310000D01*
X50630000Y6770000D02*
X50630000Y770000D01*
X50630000Y770000D02*
X49990000Y770000D01*
X49990000Y6770000D02*
X49990000Y770000D01*
X48090000Y11130000D02*
X48090000Y9310000D01*
X48090000Y11130000D02*
X47450000Y11130000D01*
X47450000Y11130000D02*
X47450000Y9310000D01*
X48090000Y6770000D02*
X48090000Y770000D01*
X48090000Y770000D02*
X47450000Y770000D01*
X47450000Y6770000D02*
X47450000Y770000D01*
G04 #@! TO.C,R16*
X52680000Y14360000D02*
X54680000Y14360000D01*
X52680000Y13160000D02*
X52680000Y14360000D01*
X54680000Y13160000D02*
X52680000Y13160000D01*
X54680000Y14360000D02*
X54680000Y13160000D01*
G04 #@! TO.C,R17*
X58730000Y14360000D02*
X58730000Y13160000D01*
X58730000Y13160000D02*
X56730000Y13160000D01*
X56730000Y13160000D02*
X56730000Y14360000D01*
X56730000Y14360000D02*
X58730000Y14360000D01*
G04 #@! TO.C,C9*
X64500000Y38710000D02*
X64500000Y37510000D01*
X64500000Y37510000D02*
X62500000Y37510000D01*
X62500000Y37510000D02*
X62500000Y38710000D01*
X62500000Y38710000D02*
X64500000Y38710000D01*
G04 #@! TO.C,C10*
X64222843Y25511371D02*
X65071371Y24662843D01*
X65071371Y24662843D02*
X63657157Y23248629D01*
X63657157Y23248629D02*
X62808629Y24097157D01*
X62808629Y24097157D02*
X64222843Y25511371D01*
G04 #@! TO.C,D1*
X69840000Y41400000D02*
X69840000Y43100000D01*
X69840000Y43100000D02*
X69540000Y43400000D01*
X69540000Y43400000D02*
X68640000Y43400000D01*
X68640000Y43400000D02*
X68640000Y41400000D01*
X68640000Y41400000D02*
X69840000Y41400000D01*
G04 #@! TO.C,R9*
X60240000Y17220000D02*
X59040000Y17220000D01*
X59040000Y17220000D02*
X59040000Y19220000D01*
X59040000Y19220000D02*
X60240000Y19220000D01*
X60240000Y19220000D02*
X60240000Y17220000D01*
G04 #@! TO.C,R14*
X51030000Y16630000D02*
X49030000Y16630000D01*
X51030000Y17830000D02*
X51030000Y16630000D01*
X49030000Y17830000D02*
X51030000Y17830000D01*
X49030000Y16630000D02*
X49030000Y17830000D01*
G04 #@! TO.C,C11*
X60925000Y33710000D02*
X60925000Y34910000D01*
X60925000Y34910000D02*
X62925000Y34910000D01*
X62925000Y34910000D02*
X62925000Y33710000D01*
X62925000Y33710000D02*
X60925000Y33710000D01*
G04 #@! TD*
G04 #@! TO.C,Q1*
D14*
X56256190Y18167620D02*
X56280000Y18215239D01*
X56327619Y18262858D01*
X56399047Y18334286D01*
X56422857Y18381905D01*
X56422857Y18429524D01*
X56303809Y18405715D02*
X56327619Y18453334D01*
X56375238Y18500953D01*
X56470476Y18524762D01*
X56637142Y18524762D01*
X56732380Y18500953D01*
X56780000Y18453334D01*
X56803809Y18405715D01*
X56803809Y18310477D01*
X56780000Y18262858D01*
X56732380Y18215239D01*
X56637142Y18191429D01*
X56470476Y18191429D01*
X56375238Y18215239D01*
X56327619Y18262858D01*
X56303809Y18310477D01*
X56303809Y18405715D01*
X56303809Y17715239D02*
X56303809Y18000953D01*
X56303809Y17858096D02*
X56803809Y17858096D01*
X56732380Y17905715D01*
X56684761Y17953334D01*
X56660952Y18000953D01*
G04 #@! TO.C,C4*
D15*
X53004805Y22242657D02*
X52971133Y22242657D01*
X52903790Y22276329D01*
X52870118Y22310000D01*
X52836446Y22377344D01*
X52836446Y22444688D01*
X52853282Y22495195D01*
X52903790Y22579375D01*
X52954297Y22629882D01*
X53038477Y22680390D01*
X53088984Y22697226D01*
X53156328Y22697226D01*
X53223671Y22663554D01*
X53257343Y22629882D01*
X53291015Y22562539D01*
X53291015Y22528867D01*
X53509881Y22141642D02*
X53274179Y21905939D01*
X53560389Y22360508D02*
X53223671Y22192149D01*
X53442538Y21973283D01*
G04 #@! TO.C,C5*
X51477343Y32214806D02*
X51477343Y32181134D01*
X51443671Y32113791D01*
X51410000Y32080119D01*
X51342656Y32046447D01*
X51275312Y32046447D01*
X51224805Y32063283D01*
X51140625Y32113791D01*
X51090118Y32164298D01*
X51039610Y32248478D01*
X51022774Y32298985D01*
X51022774Y32366329D01*
X51056446Y32433672D01*
X51090118Y32467344D01*
X51157461Y32501016D01*
X51191133Y32501016D01*
X51477343Y32854569D02*
X51308984Y32686210D01*
X51460507Y32501016D01*
X51460507Y32534688D01*
X51477343Y32585195D01*
X51561522Y32669375D01*
X51612030Y32686210D01*
X51645702Y32686210D01*
X51696209Y32669375D01*
X51780389Y32585195D01*
X51797225Y32534688D01*
X51797225Y32501016D01*
X51780389Y32450508D01*
X51696209Y32366329D01*
X51645702Y32349493D01*
X51612030Y32349493D01*
G04 #@! TO.C,U1*
D12*
X57198477Y29205974D02*
X56626057Y28633554D01*
X56592385Y28532539D01*
X56592385Y28465195D01*
X56626057Y28364180D01*
X56760744Y28229493D01*
X56861759Y28195821D01*
X56929103Y28195821D01*
X57030118Y28229493D01*
X57602538Y28801913D01*
X57602538Y27387699D02*
X57198477Y27791760D01*
X57400507Y27589730D02*
X58107614Y28296836D01*
X57939255Y28263165D01*
X57804568Y28263165D01*
X57703553Y28296836D01*
G04 #@! TO.C,J10*
D13*
X53055476Y46972620D02*
X53055476Y46258334D01*
X53007857Y46115477D01*
X52912619Y46020239D01*
X52769761Y45972620D01*
X52674523Y45972620D01*
X54055476Y45972620D02*
X53484047Y45972620D01*
X53769761Y45972620D02*
X53769761Y46972620D01*
X53674523Y46829762D01*
X53579285Y46734524D01*
X53484047Y46686905D01*
X54674523Y46972620D02*
X54769761Y46972620D01*
X54865000Y46925000D01*
X54912619Y46877381D01*
X54960238Y46782143D01*
X55007857Y46591667D01*
X55007857Y46353572D01*
X54960238Y46163096D01*
X54912619Y46067858D01*
X54865000Y46020239D01*
X54769761Y45972620D01*
X54674523Y45972620D01*
X54579285Y46020239D01*
X54531666Y46067858D01*
X54484047Y46163096D01*
X54436428Y46353572D01*
X54436428Y46591667D01*
X54484047Y46782143D01*
X54531666Y46877381D01*
X54579285Y46925000D01*
X54674523Y46972620D01*
G04 #@! TO.C,R15*
D15*
X70118571Y46603810D02*
X69951904Y46841905D01*
X69832857Y46603810D02*
X69832857Y47103810D01*
X70023333Y47103810D01*
X70070952Y47080000D01*
X70094761Y47056191D01*
X70118571Y47008572D01*
X70118571Y46937143D01*
X70094761Y46889524D01*
X70070952Y46865715D01*
X70023333Y46841905D01*
X69832857Y46841905D01*
X70594761Y46603810D02*
X70309047Y46603810D01*
X70451904Y46603810D02*
X70451904Y47103810D01*
X70404285Y47032381D01*
X70356666Y46984762D01*
X70309047Y46960953D01*
X71047142Y47103810D02*
X70809047Y47103810D01*
X70785238Y46865715D01*
X70809047Y46889524D01*
X70856666Y46913334D01*
X70975714Y46913334D01*
X71023333Y46889524D01*
X71047142Y46865715D01*
X71070952Y46818096D01*
X71070952Y46699048D01*
X71047142Y46651429D01*
X71023333Y46627620D01*
X70975714Y46603810D01*
X70856666Y46603810D01*
X70809047Y46627620D01*
X70785238Y46651429D01*
G04 #@! TO.C,J3*
D12*
X79037380Y26981667D02*
X79751666Y26981667D01*
X79894523Y26934048D01*
X79989761Y26838810D01*
X80037380Y26695953D01*
X80037380Y26600715D01*
X79037380Y27362620D02*
X79037380Y27981667D01*
X79418333Y27648334D01*
X79418333Y27791191D01*
X79465952Y27886429D01*
X79513571Y27934048D01*
X79608809Y27981667D01*
X79846904Y27981667D01*
X79942142Y27934048D01*
X79989761Y27886429D01*
X80037380Y27791191D01*
X80037380Y27505477D01*
X79989761Y27410239D01*
X79942142Y27362620D01*
G04 #@! TO.C,Y1*
X67123809Y18493810D02*
X67123809Y18017620D01*
X66790476Y19017620D02*
X67123809Y18493810D01*
X67457142Y19017620D01*
X68314285Y18017620D02*
X67742857Y18017620D01*
X68028571Y18017620D02*
X68028571Y19017620D01*
X67933333Y18874762D01*
X67838095Y18779524D01*
X67742857Y18731905D01*
G04 #@! TO.C,C7*
D15*
X63828571Y18386667D02*
X63852380Y18362858D01*
X63876190Y18291429D01*
X63876190Y18243810D01*
X63852380Y18172381D01*
X63804761Y18124762D01*
X63757142Y18100953D01*
X63661904Y18077143D01*
X63590476Y18077143D01*
X63495238Y18100953D01*
X63447619Y18124762D01*
X63400000Y18172381D01*
X63376190Y18243810D01*
X63376190Y18291429D01*
X63400000Y18362858D01*
X63423809Y18386667D01*
X63376190Y18553334D02*
X63376190Y18886667D01*
X63876190Y18672381D01*
G04 #@! TO.C,C8*
X71678571Y18386667D02*
X71702380Y18362858D01*
X71726190Y18291429D01*
X71726190Y18243810D01*
X71702380Y18172381D01*
X71654761Y18124762D01*
X71607142Y18100953D01*
X71511904Y18077143D01*
X71440476Y18077143D01*
X71345238Y18100953D01*
X71297619Y18124762D01*
X71250000Y18172381D01*
X71226190Y18243810D01*
X71226190Y18291429D01*
X71250000Y18362858D01*
X71273809Y18386667D01*
X71440476Y18672381D02*
X71416666Y18624762D01*
X71392857Y18600953D01*
X71345238Y18577143D01*
X71321428Y18577143D01*
X71273809Y18600953D01*
X71250000Y18624762D01*
X71226190Y18672381D01*
X71226190Y18767620D01*
X71250000Y18815239D01*
X71273809Y18839048D01*
X71321428Y18862858D01*
X71345238Y18862858D01*
X71392857Y18839048D01*
X71416666Y18815239D01*
X71440476Y18767620D01*
X71440476Y18672381D01*
X71464285Y18624762D01*
X71488095Y18600953D01*
X71535714Y18577143D01*
X71630952Y18577143D01*
X71678571Y18600953D01*
X71702380Y18624762D01*
X71726190Y18672381D01*
X71726190Y18767620D01*
X71702380Y18815239D01*
X71678571Y18839048D01*
X71630952Y18862858D01*
X71535714Y18862858D01*
X71488095Y18839048D01*
X71464285Y18815239D01*
X71440476Y18767620D01*
G04 #@! TO.C,R8*
X66961666Y13626810D02*
X66795000Y13864905D01*
X66675952Y13626810D02*
X66675952Y14126810D01*
X66866428Y14126810D01*
X66914047Y14103000D01*
X66937857Y14079191D01*
X66961666Y14031572D01*
X66961666Y13960143D01*
X66937857Y13912524D01*
X66914047Y13888715D01*
X66866428Y13864905D01*
X66675952Y13864905D01*
X67247380Y13912524D02*
X67199761Y13936334D01*
X67175952Y13960143D01*
X67152142Y14007762D01*
X67152142Y14031572D01*
X67175952Y14079191D01*
X67199761Y14103000D01*
X67247380Y14126810D01*
X67342619Y14126810D01*
X67390238Y14103000D01*
X67414047Y14079191D01*
X67437857Y14031572D01*
X67437857Y14007762D01*
X67414047Y13960143D01*
X67390238Y13936334D01*
X67342619Y13912524D01*
X67247380Y13912524D01*
X67199761Y13888715D01*
X67175952Y13864905D01*
X67152142Y13817286D01*
X67152142Y13722048D01*
X67175952Y13674429D01*
X67199761Y13650620D01*
X67247380Y13626810D01*
X67342619Y13626810D01*
X67390238Y13650620D01*
X67414047Y13674429D01*
X67437857Y13722048D01*
X67437857Y13817286D01*
X67414047Y13864905D01*
X67390238Y13888715D01*
X67342619Y13912524D01*
G04 #@! TO.C,D2*
D12*
X67821904Y30277620D02*
X67821904Y31277620D01*
X68060000Y31277620D01*
X68202857Y31230000D01*
X68298095Y31134762D01*
X68345714Y31039524D01*
X68393333Y30849048D01*
X68393333Y30706191D01*
X68345714Y30515715D01*
X68298095Y30420477D01*
X68202857Y30325239D01*
X68060000Y30277620D01*
X67821904Y30277620D01*
X68774285Y31182381D02*
X68821904Y31230000D01*
X68917142Y31277620D01*
X69155238Y31277620D01*
X69250476Y31230000D01*
X69298095Y31182381D01*
X69345714Y31087143D01*
X69345714Y30991905D01*
X69298095Y30849048D01*
X68726666Y30277620D01*
X69345714Y30277620D01*
G04 #@! TO.C,C1*
D15*
X64786666Y44491429D02*
X64762857Y44467620D01*
X64691428Y44443810D01*
X64643809Y44443810D01*
X64572380Y44467620D01*
X64524761Y44515239D01*
X64500952Y44562858D01*
X64477142Y44658096D01*
X64477142Y44729524D01*
X64500952Y44824762D01*
X64524761Y44872381D01*
X64572380Y44920000D01*
X64643809Y44943810D01*
X64691428Y44943810D01*
X64762857Y44920000D01*
X64786666Y44896191D01*
X65262857Y44443810D02*
X64977142Y44443810D01*
X65120000Y44443810D02*
X65120000Y44943810D01*
X65072380Y44872381D01*
X65024761Y44824762D01*
X64977142Y44800953D01*
G04 #@! TO.C,C2*
X63416666Y36031429D02*
X63392857Y36007620D01*
X63321428Y35983810D01*
X63273809Y35983810D01*
X63202380Y36007620D01*
X63154761Y36055239D01*
X63130952Y36102858D01*
X63107142Y36198096D01*
X63107142Y36269524D01*
X63130952Y36364762D01*
X63154761Y36412381D01*
X63202380Y36460000D01*
X63273809Y36483810D01*
X63321428Y36483810D01*
X63392857Y36460000D01*
X63416666Y36436191D01*
X63607142Y36436191D02*
X63630952Y36460000D01*
X63678571Y36483810D01*
X63797619Y36483810D01*
X63845238Y36460000D01*
X63869047Y36436191D01*
X63892857Y36388572D01*
X63892857Y36340953D01*
X63869047Y36269524D01*
X63583333Y35983810D01*
X63892857Y35983810D01*
G04 #@! TO.C,C3*
X55316666Y36041429D02*
X55292857Y36017620D01*
X55221428Y35993810D01*
X55173809Y35993810D01*
X55102380Y36017620D01*
X55054761Y36065239D01*
X55030952Y36112858D01*
X55007142Y36208096D01*
X55007142Y36279524D01*
X55030952Y36374762D01*
X55054761Y36422381D01*
X55102380Y36470000D01*
X55173809Y36493810D01*
X55221428Y36493810D01*
X55292857Y36470000D01*
X55316666Y36446191D01*
X55483333Y36493810D02*
X55792857Y36493810D01*
X55626190Y36303334D01*
X55697619Y36303334D01*
X55745238Y36279524D01*
X55769047Y36255715D01*
X55792857Y36208096D01*
X55792857Y36089048D01*
X55769047Y36041429D01*
X55745238Y36017620D01*
X55697619Y35993810D01*
X55554761Y35993810D01*
X55507142Y36017620D01*
X55483333Y36041429D01*
G04 #@! TO.C,C6*
X50416666Y19101429D02*
X50392857Y19077620D01*
X50321428Y19053810D01*
X50273809Y19053810D01*
X50202380Y19077620D01*
X50154761Y19125239D01*
X50130952Y19172858D01*
X50107142Y19268096D01*
X50107142Y19339524D01*
X50130952Y19434762D01*
X50154761Y19482381D01*
X50202380Y19530000D01*
X50273809Y19553810D01*
X50321428Y19553810D01*
X50392857Y19530000D01*
X50416666Y19506191D01*
X50845238Y19553810D02*
X50750000Y19553810D01*
X50702380Y19530000D01*
X50678571Y19506191D01*
X50630952Y19434762D01*
X50607142Y19339524D01*
X50607142Y19149048D01*
X50630952Y19101429D01*
X50654761Y19077620D01*
X50702380Y19053810D01*
X50797619Y19053810D01*
X50845238Y19077620D01*
X50869047Y19101429D01*
X50892857Y19149048D01*
X50892857Y19268096D01*
X50869047Y19315715D01*
X50845238Y19339524D01*
X50797619Y19363334D01*
X50702380Y19363334D01*
X50654761Y19339524D01*
X50630952Y19315715D01*
X50607142Y19268096D01*
G04 #@! TO.C,J1*
D12*
X69115666Y54081620D02*
X69115666Y53367334D01*
X69068047Y53224477D01*
X68972809Y53129239D01*
X68829952Y53081620D01*
X68734714Y53081620D01*
X70115666Y53081620D02*
X69544238Y53081620D01*
X69829952Y53081620D02*
X69829952Y54081620D01*
X69734714Y53938762D01*
X69639476Y53843524D01*
X69544238Y53795905D01*
G04 #@! TO.C,J2*
X79037380Y43491667D02*
X79751666Y43491667D01*
X79894523Y43444048D01*
X79989761Y43348810D01*
X80037380Y43205953D01*
X80037380Y43110715D01*
X79132619Y43920239D02*
X79085000Y43967858D01*
X79037380Y44063096D01*
X79037380Y44301191D01*
X79085000Y44396429D01*
X79132619Y44444048D01*
X79227857Y44491667D01*
X79323095Y44491667D01*
X79465952Y44444048D01*
X80037380Y43872620D01*
X80037380Y44491667D01*
G04 #@! TO.C,J4*
X66956666Y8582620D02*
X66956666Y7868334D01*
X66909047Y7725477D01*
X66813809Y7630239D01*
X66670952Y7582620D01*
X66575714Y7582620D01*
X67861428Y8249286D02*
X67861428Y7582620D01*
X67623333Y8630239D02*
X67385238Y7915953D01*
X68004285Y7915953D01*
G04 #@! TO.C,J5*
X79037380Y10471667D02*
X79751666Y10471667D01*
X79894523Y10424048D01*
X79989761Y10328810D01*
X80037380Y10185953D01*
X80037380Y10090715D01*
X79037380Y11424048D02*
X79037380Y10947858D01*
X79513571Y10900239D01*
X79465952Y10947858D01*
X79418333Y11043096D01*
X79418333Y11281191D01*
X79465952Y11376429D01*
X79513571Y11424048D01*
X79608809Y11471667D01*
X79846904Y11471667D01*
X79942142Y11424048D01*
X79989761Y11376429D01*
X80037380Y11281191D01*
X80037380Y11043096D01*
X79989761Y10947858D01*
X79942142Y10900239D01*
G04 #@! TO.C,R1*
D15*
X71506190Y42346667D02*
X71268095Y42180000D01*
X71506190Y42060953D02*
X71006190Y42060953D01*
X71006190Y42251429D01*
X71030000Y42299048D01*
X71053809Y42322858D01*
X71101428Y42346667D01*
X71172857Y42346667D01*
X71220476Y42322858D01*
X71244285Y42299048D01*
X71268095Y42251429D01*
X71268095Y42060953D01*
X71506190Y42822858D02*
X71506190Y42537143D01*
X71506190Y42680000D02*
X71006190Y42680000D01*
X71077619Y42632381D01*
X71125238Y42584762D01*
X71149047Y42537143D01*
G04 #@! TO.C,R2*
X64776666Y46393810D02*
X64610000Y46631905D01*
X64490952Y46393810D02*
X64490952Y46893810D01*
X64681428Y46893810D01*
X64729047Y46870000D01*
X64752857Y46846191D01*
X64776666Y46798572D01*
X64776666Y46727143D01*
X64752857Y46679524D01*
X64729047Y46655715D01*
X64681428Y46631905D01*
X64490952Y46631905D01*
X64967142Y46846191D02*
X64990952Y46870000D01*
X65038571Y46893810D01*
X65157619Y46893810D01*
X65205238Y46870000D01*
X65229047Y46846191D01*
X65252857Y46798572D01*
X65252857Y46750953D01*
X65229047Y46679524D01*
X64943333Y46393810D01*
X65252857Y46393810D01*
G04 #@! TO.C,R3*
X64776666Y48333810D02*
X64610000Y48571905D01*
X64490952Y48333810D02*
X64490952Y48833810D01*
X64681428Y48833810D01*
X64729047Y48810000D01*
X64752857Y48786191D01*
X64776666Y48738572D01*
X64776666Y48667143D01*
X64752857Y48619524D01*
X64729047Y48595715D01*
X64681428Y48571905D01*
X64490952Y48571905D01*
X64943333Y48833810D02*
X65252857Y48833810D01*
X65086190Y48643334D01*
X65157619Y48643334D01*
X65205238Y48619524D01*
X65229047Y48595715D01*
X65252857Y48548096D01*
X65252857Y48429048D01*
X65229047Y48381429D01*
X65205238Y48357620D01*
X65157619Y48333810D01*
X65014761Y48333810D01*
X64967142Y48357620D01*
X64943333Y48381429D01*
G04 #@! TO.C,R4*
X67546666Y35533810D02*
X67380000Y35771905D01*
X67260952Y35533810D02*
X67260952Y36033810D01*
X67451428Y36033810D01*
X67499047Y36010000D01*
X67522857Y35986191D01*
X67546666Y35938572D01*
X67546666Y35867143D01*
X67522857Y35819524D01*
X67499047Y35795715D01*
X67451428Y35771905D01*
X67260952Y35771905D01*
X67975238Y35867143D02*
X67975238Y35533810D01*
X67856190Y36057620D02*
X67737142Y35700477D01*
X68046666Y35700477D01*
G04 #@! TO.C,R5*
X73231190Y32946667D02*
X72993095Y32780000D01*
X73231190Y32660953D02*
X72731190Y32660953D01*
X72731190Y32851429D01*
X72755000Y32899048D01*
X72778809Y32922858D01*
X72826428Y32946667D01*
X72897857Y32946667D01*
X72945476Y32922858D01*
X72969285Y32899048D01*
X72993095Y32851429D01*
X72993095Y32660953D01*
X72731190Y33399048D02*
X72731190Y33160953D01*
X72969285Y33137143D01*
X72945476Y33160953D01*
X72921666Y33208572D01*
X72921666Y33327620D01*
X72945476Y33375239D01*
X72969285Y33399048D01*
X73016904Y33422858D01*
X73135952Y33422858D01*
X73183571Y33399048D01*
X73207380Y33375239D01*
X73231190Y33327620D01*
X73231190Y33208572D01*
X73207380Y33160953D01*
X73183571Y33137143D01*
G04 #@! TO.C,R6*
X67496666Y30033810D02*
X67330000Y30271905D01*
X67210952Y30033810D02*
X67210952Y30533810D01*
X67401428Y30533810D01*
X67449047Y30510000D01*
X67472857Y30486191D01*
X67496666Y30438572D01*
X67496666Y30367143D01*
X67472857Y30319524D01*
X67449047Y30295715D01*
X67401428Y30271905D01*
X67210952Y30271905D01*
X67925238Y30533810D02*
X67830000Y30533810D01*
X67782380Y30510000D01*
X67758571Y30486191D01*
X67710952Y30414762D01*
X67687142Y30319524D01*
X67687142Y30129048D01*
X67710952Y30081429D01*
X67734761Y30057620D01*
X67782380Y30033810D01*
X67877619Y30033810D01*
X67925238Y30057620D01*
X67949047Y30081429D01*
X67972857Y30129048D01*
X67972857Y30248096D01*
X67949047Y30295715D01*
X67925238Y30319524D01*
X67877619Y30343334D01*
X67782380Y30343334D01*
X67734761Y30319524D01*
X67710952Y30295715D01*
X67687142Y30248096D01*
G04 #@! TO.C,R7*
X48946666Y13583810D02*
X48780000Y13821905D01*
X48660952Y13583810D02*
X48660952Y14083810D01*
X48851428Y14083810D01*
X48899047Y14060000D01*
X48922857Y14036191D01*
X48946666Y13988572D01*
X48946666Y13917143D01*
X48922857Y13869524D01*
X48899047Y13845715D01*
X48851428Y13821905D01*
X48660952Y13821905D01*
X49113333Y14083810D02*
X49446666Y14083810D01*
X49232380Y13583810D01*
G04 #@! TO.C,R10*
X62133571Y13608810D02*
X61966904Y13846905D01*
X61847857Y13608810D02*
X61847857Y14108810D01*
X62038333Y14108810D01*
X62085952Y14085000D01*
X62109761Y14061191D01*
X62133571Y14013572D01*
X62133571Y13942143D01*
X62109761Y13894524D01*
X62085952Y13870715D01*
X62038333Y13846905D01*
X61847857Y13846905D01*
X62609761Y13608810D02*
X62324047Y13608810D01*
X62466904Y13608810D02*
X62466904Y14108810D01*
X62419285Y14037381D01*
X62371666Y13989762D01*
X62324047Y13965953D01*
X62919285Y14108810D02*
X62966904Y14108810D01*
X63014523Y14085000D01*
X63038333Y14061191D01*
X63062142Y14013572D01*
X63085952Y13918334D01*
X63085952Y13799286D01*
X63062142Y13704048D01*
X63038333Y13656429D01*
X63014523Y13632620D01*
X62966904Y13608810D01*
X62919285Y13608810D01*
X62871666Y13632620D01*
X62847857Y13656429D01*
X62824047Y13704048D01*
X62800238Y13799286D01*
X62800238Y13918334D01*
X62824047Y14013572D01*
X62847857Y14061191D01*
X62871666Y14085000D01*
X62919285Y14108810D01*
G04 #@! TO.C,U2*
D14*
X64323809Y42110953D02*
X63919047Y42110953D01*
X63871428Y42087143D01*
X63847619Y42063334D01*
X63823809Y42015715D01*
X63823809Y41920477D01*
X63847619Y41872858D01*
X63871428Y41849048D01*
X63919047Y41825239D01*
X64323809Y41825239D01*
X64276190Y41610953D02*
X64300000Y41587143D01*
X64323809Y41539524D01*
X64323809Y41420477D01*
X64300000Y41372858D01*
X64276190Y41349048D01*
X64228571Y41325239D01*
X64180952Y41325239D01*
X64109523Y41349048D01*
X63823809Y41634762D01*
X63823809Y41325239D01*
G04 #@! TO.C,*
D12*
G04 #@! TO.C,J9*
X52516666Y8587620D02*
X52516666Y7873334D01*
X52469047Y7730477D01*
X52373809Y7635239D01*
X52230952Y7587620D01*
X52135714Y7587620D01*
X53040476Y7587620D02*
X53230952Y7587620D01*
X53326190Y7635239D01*
X53373809Y7682858D01*
X53469047Y7825715D01*
X53516666Y8016191D01*
X53516666Y8397143D01*
X53469047Y8492381D01*
X53421428Y8540000D01*
X53326190Y8587620D01*
X53135714Y8587620D01*
X53040476Y8540000D01*
X52992857Y8492381D01*
X52945238Y8397143D01*
X52945238Y8159048D01*
X52992857Y8063810D01*
X53040476Y8016191D01*
X53135714Y7968572D01*
X53326190Y7968572D01*
X53421428Y8016191D01*
X53469047Y8063810D01*
X53516666Y8159048D01*
G04 #@! TO.C,R16*
D15*
X53358571Y13533810D02*
X53191904Y13771905D01*
X53072857Y13533810D02*
X53072857Y14033810D01*
X53263333Y14033810D01*
X53310952Y14010000D01*
X53334761Y13986191D01*
X53358571Y13938572D01*
X53358571Y13867143D01*
X53334761Y13819524D01*
X53310952Y13795715D01*
X53263333Y13771905D01*
X53072857Y13771905D01*
X53834761Y13533810D02*
X53549047Y13533810D01*
X53691904Y13533810D02*
X53691904Y14033810D01*
X53644285Y13962381D01*
X53596666Y13914762D01*
X53549047Y13890953D01*
X54263333Y14033810D02*
X54168095Y14033810D01*
X54120476Y14010000D01*
X54096666Y13986191D01*
X54049047Y13914762D01*
X54025238Y13819524D01*
X54025238Y13629048D01*
X54049047Y13581429D01*
X54072857Y13557620D01*
X54120476Y13533810D01*
X54215714Y13533810D01*
X54263333Y13557620D01*
X54287142Y13581429D01*
X54310952Y13629048D01*
X54310952Y13748096D01*
X54287142Y13795715D01*
X54263333Y13819524D01*
X54215714Y13843334D01*
X54120476Y13843334D01*
X54072857Y13819524D01*
X54049047Y13795715D01*
X54025238Y13748096D01*
G04 #@! TO.C,R17*
X57408571Y13533810D02*
X57241904Y13771905D01*
X57122857Y13533810D02*
X57122857Y14033810D01*
X57313333Y14033810D01*
X57360952Y14010000D01*
X57384761Y13986191D01*
X57408571Y13938572D01*
X57408571Y13867143D01*
X57384761Y13819524D01*
X57360952Y13795715D01*
X57313333Y13771905D01*
X57122857Y13771905D01*
X57884761Y13533810D02*
X57599047Y13533810D01*
X57741904Y13533810D02*
X57741904Y14033810D01*
X57694285Y13962381D01*
X57646666Y13914762D01*
X57599047Y13890953D01*
X58051428Y14033810D02*
X58384761Y14033810D01*
X58170476Y13533810D01*
G04 #@! TO.C,C9*
X63416666Y37931429D02*
X63392857Y37907620D01*
X63321428Y37883810D01*
X63273809Y37883810D01*
X63202380Y37907620D01*
X63154761Y37955239D01*
X63130952Y38002858D01*
X63107142Y38098096D01*
X63107142Y38169524D01*
X63130952Y38264762D01*
X63154761Y38312381D01*
X63202380Y38360000D01*
X63273809Y38383810D01*
X63321428Y38383810D01*
X63392857Y38360000D01*
X63416666Y38336191D01*
X63654761Y37883810D02*
X63750000Y37883810D01*
X63797619Y37907620D01*
X63821428Y37931429D01*
X63869047Y38002858D01*
X63892857Y38098096D01*
X63892857Y38288572D01*
X63869047Y38336191D01*
X63845238Y38360000D01*
X63797619Y38383810D01*
X63702380Y38383810D01*
X63654761Y38360000D01*
X63630952Y38336191D01*
X63607142Y38288572D01*
X63607142Y38169524D01*
X63630952Y38121905D01*
X63654761Y38098096D01*
X63702380Y38074286D01*
X63797619Y38074286D01*
X63845238Y38098096D01*
X63869047Y38121905D01*
X63892857Y38169524D01*
G04 #@! TO.C,C10*
X63838984Y24026447D02*
X63838984Y23992775D01*
X63805312Y23925432D01*
X63771641Y23891760D01*
X63704297Y23858088D01*
X63636954Y23858088D01*
X63586446Y23874924D01*
X63502267Y23925432D01*
X63451759Y23975939D01*
X63401251Y24060119D01*
X63384416Y24110626D01*
X63384416Y24177970D01*
X63418087Y24245313D01*
X63451759Y24278985D01*
X63519103Y24312657D01*
X63552774Y24312657D01*
X64209374Y24329493D02*
X64007343Y24127462D01*
X64108358Y24228478D02*
X63754805Y24582031D01*
X63771641Y24497852D01*
X63771641Y24430508D01*
X63754805Y24380000D01*
X64074687Y24901913D02*
X64108358Y24935584D01*
X64158866Y24952420D01*
X64192538Y24952420D01*
X64243045Y24935584D01*
X64327225Y24885077D01*
X64411404Y24800897D01*
X64461912Y24716718D01*
X64478748Y24666210D01*
X64478748Y24632539D01*
X64461912Y24582031D01*
X64428240Y24548359D01*
X64377732Y24531523D01*
X64344061Y24531523D01*
X64293553Y24548359D01*
X64209374Y24598867D01*
X64125194Y24683046D01*
X64074687Y24767226D01*
X64057851Y24817733D01*
X64057851Y24851405D01*
X64074687Y24901913D01*
G04 #@! TO.C,D1*
X69466190Y42030953D02*
X68966190Y42030953D01*
X68966190Y42150000D01*
X68990000Y42221429D01*
X69037619Y42269048D01*
X69085238Y42292858D01*
X69180476Y42316667D01*
X69251904Y42316667D01*
X69347142Y42292858D01*
X69394761Y42269048D01*
X69442380Y42221429D01*
X69466190Y42150000D01*
X69466190Y42030953D01*
X69466190Y42792858D02*
X69466190Y42507143D01*
X69466190Y42650000D02*
X68966190Y42650000D01*
X69037619Y42602381D01*
X69085238Y42554762D01*
X69109047Y42507143D01*
G04 #@! TO.C,R9*
X59866190Y18136667D02*
X59628095Y17970000D01*
X59866190Y17850953D02*
X59366190Y17850953D01*
X59366190Y18041429D01*
X59390000Y18089048D01*
X59413809Y18112858D01*
X59461428Y18136667D01*
X59532857Y18136667D01*
X59580476Y18112858D01*
X59604285Y18089048D01*
X59628095Y18041429D01*
X59628095Y17850953D01*
X59866190Y18374762D02*
X59866190Y18470000D01*
X59842380Y18517620D01*
X59818571Y18541429D01*
X59747142Y18589048D01*
X59651904Y18612858D01*
X59461428Y18612858D01*
X59413809Y18589048D01*
X59390000Y18565239D01*
X59366190Y18517620D01*
X59366190Y18422381D01*
X59390000Y18374762D01*
X59413809Y18350953D01*
X59461428Y18327143D01*
X59580476Y18327143D01*
X59628095Y18350953D01*
X59651904Y18374762D01*
X59675714Y18422381D01*
X59675714Y18517620D01*
X59651904Y18565239D01*
X59628095Y18589048D01*
X59580476Y18612858D01*
G04 #@! TO.C,R14*
X49708571Y17003810D02*
X49541904Y17241905D01*
X49422857Y17003810D02*
X49422857Y17503810D01*
X49613333Y17503810D01*
X49660952Y17480000D01*
X49684761Y17456191D01*
X49708571Y17408572D01*
X49708571Y17337143D01*
X49684761Y17289524D01*
X49660952Y17265715D01*
X49613333Y17241905D01*
X49422857Y17241905D01*
X50184761Y17003810D02*
X49899047Y17003810D01*
X50041904Y17003810D02*
X50041904Y17503810D01*
X49994285Y17432381D01*
X49946666Y17384762D01*
X49899047Y17360953D01*
X50613333Y17337143D02*
X50613333Y17003810D01*
X50494285Y17527620D02*
X50375238Y17170477D01*
X50684761Y17170477D01*
G04 #@! TO.C,C11*
X61603571Y34131429D02*
X61579761Y34107620D01*
X61508333Y34083810D01*
X61460714Y34083810D01*
X61389285Y34107620D01*
X61341666Y34155239D01*
X61317857Y34202858D01*
X61294047Y34298096D01*
X61294047Y34369524D01*
X61317857Y34464762D01*
X61341666Y34512381D01*
X61389285Y34560000D01*
X61460714Y34583810D01*
X61508333Y34583810D01*
X61579761Y34560000D01*
X61603571Y34536191D01*
X62079761Y34083810D02*
X61794047Y34083810D01*
X61936904Y34083810D02*
X61936904Y34583810D01*
X61889285Y34512381D01*
X61841666Y34464762D01*
X61794047Y34440953D01*
X62555952Y34083810D02*
X62270238Y34083810D01*
X62413095Y34083810D02*
X62413095Y34583810D01*
X62365476Y34512381D01*
X62317857Y34464762D01*
X62270238Y34440953D01*
G04 #@! TD*
M02*
