%FSLAX45Y45*%
G04 Gerber Fmt 4.5, Leading zero omitted, Abs format (unit mm)*
G04 Created by KiCad (PCBNEW (5.0.2)-1) date 05/04/2019 09:56:55*
%MOMM*%
%LPD*%
G01*
G04 APERTURE LIST*
%ADD10C,0.200000*%
%ADD11C,0.300000*%
G04 APERTURE END LIST*
D10*
X8798000Y5001000D02*
X8798000Y501000D01*
X-2000Y501000D02*
G75*
G03X498000Y1000I500000J0D01*
G01*
X8798000Y501000D02*
G75*
G02X8298000Y1000I-500000J0D01*
G01*
X8798000Y5001000D02*
G75*
G03X8298000Y5501000I-500000J0D01*
G01*
X-2000Y5001000D02*
G75*
G02X498000Y5501000I500000J0D01*
G01*
X-2000Y501000D02*
X-2000Y5001000D01*
X8298000Y1000D02*
X498000Y1000D01*
X498000Y5501000D02*
X8298000Y5501000D01*
D10*
X5518500Y5126000D02*
X5608500Y5036000D01*
X5608500Y5126000D02*
X5518500Y5036000D01*
X6198500Y5126000D02*
X6288500Y5036000D01*
X6288500Y5126000D02*
X6198500Y5036000D01*
X4413000Y5001000D02*
G75*
G03X4413000Y5001000I-215000J0D01*
G01*
D11*
X274428Y-474714D02*
X274428Y-174714D01*
X345857Y-174714D01*
X388714Y-189000D01*
X417286Y-217571D01*
X431571Y-246143D01*
X445857Y-303286D01*
X445857Y-346143D01*
X431571Y-403286D01*
X417286Y-431857D01*
X388714Y-460429D01*
X345857Y-474714D01*
X274428Y-474714D01*
X574428Y-474714D02*
X574428Y-274714D01*
X574428Y-331857D02*
X588714Y-303286D01*
X603000Y-289000D01*
X631571Y-274714D01*
X660143Y-274714D01*
X760143Y-474714D02*
X760143Y-274714D01*
X760143Y-174714D02*
X745857Y-189000D01*
X760143Y-203286D01*
X774428Y-189000D01*
X760143Y-174714D01*
X760143Y-203286D01*
X945857Y-474714D02*
X917286Y-460429D01*
X903000Y-431857D01*
X903000Y-174714D01*
X1103000Y-474714D02*
X1074428Y-460429D01*
X1060143Y-431857D01*
X1060143Y-174714D01*
X1445857Y-474714D02*
X1445857Y-174714D01*
X1545857Y-389000D01*
X1645857Y-174714D01*
X1645857Y-474714D01*
X1917286Y-474714D02*
X1917286Y-317572D01*
X1903000Y-289000D01*
X1874428Y-274714D01*
X1817286Y-274714D01*
X1788714Y-289000D01*
X1917286Y-460429D02*
X1888714Y-474714D01*
X1817286Y-474714D01*
X1788714Y-460429D01*
X1774428Y-431857D01*
X1774428Y-403286D01*
X1788714Y-374714D01*
X1817286Y-360429D01*
X1888714Y-360429D01*
X1917286Y-346143D01*
X2060143Y-274714D02*
X2060143Y-574714D01*
X2060143Y-289000D02*
X2088714Y-274714D01*
X2145857Y-274714D01*
X2174428Y-289000D01*
X2188714Y-303286D01*
X2203000Y-331857D01*
X2203000Y-417571D01*
X2188714Y-446143D01*
X2174428Y-460429D01*
X2145857Y-474714D01*
X2088714Y-474714D01*
X2060143Y-460429D01*
X2331571Y-446143D02*
X2345857Y-460429D01*
X2331571Y-474714D01*
X2317286Y-460429D01*
X2331571Y-446143D01*
X2331571Y-474714D01*
X2331571Y-289000D02*
X2345857Y-303286D01*
X2331571Y-317572D01*
X2317286Y-303286D01*
X2331571Y-289000D01*
X2331571Y-317572D01*
X-102000Y-924000D02*
X-12000Y-1014000D01*
X-12000Y-924000D02*
X-102000Y-1014000D01*
X331571Y-804714D02*
X360143Y-804714D01*
X388714Y-819000D01*
X403000Y-833286D01*
X417286Y-861857D01*
X431571Y-919000D01*
X431571Y-990429D01*
X417286Y-1047571D01*
X403000Y-1076143D01*
X388714Y-1090429D01*
X360143Y-1104714D01*
X331571Y-1104714D01*
X303000Y-1090429D01*
X288714Y-1076143D01*
X274428Y-1047571D01*
X260143Y-990429D01*
X260143Y-919000D01*
X274428Y-861857D01*
X288714Y-833286D01*
X303000Y-819000D01*
X331571Y-804714D01*
X560143Y-1076143D02*
X574428Y-1090429D01*
X560143Y-1104714D01*
X545857Y-1090429D01*
X560143Y-1076143D01*
X560143Y-1104714D01*
X717286Y-1104714D02*
X774428Y-1104714D01*
X803000Y-1090429D01*
X817286Y-1076143D01*
X845857Y-1033286D01*
X860143Y-976143D01*
X860143Y-861857D01*
X845857Y-833286D01*
X831571Y-819000D01*
X803000Y-804714D01*
X745857Y-804714D01*
X717286Y-819000D01*
X703000Y-833286D01*
X688714Y-861857D01*
X688714Y-933286D01*
X703000Y-961857D01*
X717286Y-976143D01*
X745857Y-990429D01*
X803000Y-990429D01*
X831571Y-976143D01*
X845857Y-961857D01*
X860143Y-933286D01*
X1045857Y-804714D02*
X1074428Y-804714D01*
X1103000Y-819000D01*
X1117286Y-833286D01*
X1131571Y-861857D01*
X1145857Y-919000D01*
X1145857Y-990429D01*
X1131571Y-1047571D01*
X1117286Y-1076143D01*
X1103000Y-1090429D01*
X1074428Y-1104714D01*
X1045857Y-1104714D01*
X1017286Y-1090429D01*
X1003000Y-1076143D01*
X988714Y-1047571D01*
X974428Y-990429D01*
X974428Y-919000D01*
X988714Y-861857D01*
X1003000Y-833286D01*
X1017286Y-819000D01*
X1045857Y-804714D01*
X1274428Y-1104714D02*
X1274428Y-904714D01*
X1274428Y-933286D02*
X1288714Y-919000D01*
X1317286Y-904714D01*
X1360143Y-904714D01*
X1388714Y-919000D01*
X1403000Y-947571D01*
X1403000Y-1104714D01*
X1403000Y-947571D02*
X1417286Y-919000D01*
X1445857Y-904714D01*
X1488714Y-904714D01*
X1517286Y-919000D01*
X1531571Y-947571D01*
X1531571Y-1104714D01*
X1674428Y-1104714D02*
X1674428Y-904714D01*
X1674428Y-933286D02*
X1688714Y-919000D01*
X1717286Y-904714D01*
X1760143Y-904714D01*
X1788714Y-919000D01*
X1803000Y-947571D01*
X1803000Y-1104714D01*
X1803000Y-947571D02*
X1817286Y-919000D01*
X1845857Y-904714D01*
X1888714Y-904714D01*
X1917286Y-919000D01*
X1931571Y-947571D01*
X1931571Y-1104714D01*
X2517286Y-790429D02*
X2260143Y-1176143D01*
X2903000Y-804714D02*
X2931571Y-804714D01*
X2960143Y-819000D01*
X2974428Y-833286D01*
X2988714Y-861857D01*
X3003000Y-919000D01*
X3003000Y-990429D01*
X2988714Y-1047571D01*
X2974428Y-1076143D01*
X2960143Y-1090429D01*
X2931571Y-1104714D01*
X2903000Y-1104714D01*
X2874428Y-1090429D01*
X2860143Y-1076143D01*
X2845857Y-1047571D01*
X2831571Y-990429D01*
X2831571Y-919000D01*
X2845857Y-861857D01*
X2860143Y-833286D01*
X2874428Y-819000D01*
X2903000Y-804714D01*
X3131571Y-1076143D02*
X3145857Y-1090429D01*
X3131571Y-1104714D01*
X3117286Y-1090429D01*
X3131571Y-1076143D01*
X3131571Y-1104714D01*
X3331571Y-804714D02*
X3360143Y-804714D01*
X3388714Y-819000D01*
X3403000Y-833286D01*
X3417286Y-861857D01*
X3431571Y-919000D01*
X3431571Y-990429D01*
X3417286Y-1047571D01*
X3403000Y-1076143D01*
X3388714Y-1090429D01*
X3360143Y-1104714D01*
X3331571Y-1104714D01*
X3303000Y-1090429D01*
X3288714Y-1076143D01*
X3274428Y-1047571D01*
X3260143Y-990429D01*
X3260143Y-919000D01*
X3274428Y-861857D01*
X3288714Y-833286D01*
X3303000Y-819000D01*
X3331571Y-804714D01*
X3531571Y-804714D02*
X3717286Y-804714D01*
X3617286Y-919000D01*
X3660143Y-919000D01*
X3688714Y-933286D01*
X3703000Y-947571D01*
X3717286Y-976143D01*
X3717286Y-1047571D01*
X3703000Y-1076143D01*
X3688714Y-1090429D01*
X3660143Y-1104714D01*
X3574428Y-1104714D01*
X3545857Y-1090429D01*
X3531571Y-1076143D01*
X3988714Y-804714D02*
X3845857Y-804714D01*
X3831571Y-947571D01*
X3845857Y-933286D01*
X3874428Y-919000D01*
X3945857Y-919000D01*
X3974428Y-933286D01*
X3988714Y-947571D01*
X4003000Y-976143D01*
X4003000Y-1047571D01*
X3988714Y-1076143D01*
X3974428Y-1090429D01*
X3945857Y-1104714D01*
X3874428Y-1104714D01*
X3845857Y-1090429D01*
X3831571Y-1076143D01*
X4117286Y-804714D02*
X4117286Y-861857D01*
X4231571Y-804714D02*
X4231571Y-861857D01*
X4674428Y-1219000D02*
X4660143Y-1204714D01*
X4631571Y-1161857D01*
X4617286Y-1133286D01*
X4603000Y-1090429D01*
X4588714Y-1019000D01*
X4588714Y-961857D01*
X4603000Y-890429D01*
X4617286Y-847571D01*
X4631571Y-819000D01*
X4660143Y-776143D01*
X4674428Y-761857D01*
X4774428Y-833286D02*
X4788714Y-819000D01*
X4817286Y-804714D01*
X4888714Y-804714D01*
X4917286Y-819000D01*
X4931571Y-833286D01*
X4945857Y-861857D01*
X4945857Y-890429D01*
X4931571Y-933286D01*
X4760143Y-1104714D01*
X4945857Y-1104714D01*
X5303000Y-1104714D02*
X5303000Y-804714D01*
X5431571Y-1104714D02*
X5431571Y-947571D01*
X5417286Y-919000D01*
X5388714Y-904714D01*
X5345857Y-904714D01*
X5317286Y-919000D01*
X5303000Y-933286D01*
X5617286Y-1104714D02*
X5588714Y-1090429D01*
X5574428Y-1076143D01*
X5560143Y-1047571D01*
X5560143Y-961857D01*
X5574428Y-933286D01*
X5588714Y-919000D01*
X5617286Y-904714D01*
X5660143Y-904714D01*
X5688714Y-919000D01*
X5703000Y-933286D01*
X5717286Y-961857D01*
X5717286Y-1047571D01*
X5703000Y-1076143D01*
X5688714Y-1090429D01*
X5660143Y-1104714D01*
X5617286Y-1104714D01*
X5888714Y-1104714D02*
X5860143Y-1090429D01*
X5845857Y-1061857D01*
X5845857Y-804714D01*
X6117286Y-1090429D02*
X6088714Y-1104714D01*
X6031571Y-1104714D01*
X6003000Y-1090429D01*
X5988714Y-1061857D01*
X5988714Y-947571D01*
X6003000Y-919000D01*
X6031571Y-904714D01*
X6088714Y-904714D01*
X6117286Y-919000D01*
X6131571Y-947571D01*
X6131571Y-976143D01*
X5988714Y-1004714D01*
X6245857Y-1090429D02*
X6274428Y-1104714D01*
X6331571Y-1104714D01*
X6360143Y-1090429D01*
X6374428Y-1061857D01*
X6374428Y-1047571D01*
X6360143Y-1019000D01*
X6331571Y-1004714D01*
X6288714Y-1004714D01*
X6260143Y-990429D01*
X6245857Y-961857D01*
X6245857Y-947571D01*
X6260143Y-919000D01*
X6288714Y-904714D01*
X6331571Y-904714D01*
X6360143Y-919000D01*
X6474428Y-1219000D02*
X6488714Y-1204714D01*
X6517286Y-1161857D01*
X6531571Y-1133286D01*
X6545857Y-1090429D01*
X6560143Y-1019000D01*
X6560143Y-961857D01*
X6545857Y-890429D01*
X6531571Y-847571D01*
X6517286Y-819000D01*
X6488714Y-776143D01*
X6474428Y-761857D01*
X7017286Y-1219000D02*
X7003000Y-1204714D01*
X6974428Y-1161857D01*
X6960143Y-1133286D01*
X6945857Y-1090429D01*
X6931571Y-1019000D01*
X6931571Y-961857D01*
X6945857Y-890429D01*
X6960143Y-847571D01*
X6974428Y-819000D01*
X7003000Y-776143D01*
X7017286Y-761857D01*
X7131571Y-904714D02*
X7131571Y-1104714D01*
X7131571Y-933286D02*
X7145857Y-919000D01*
X7174428Y-904714D01*
X7217286Y-904714D01*
X7245857Y-919000D01*
X7260143Y-947571D01*
X7260143Y-1104714D01*
X7445857Y-1104714D02*
X7417286Y-1090429D01*
X7403000Y-1076143D01*
X7388714Y-1047571D01*
X7388714Y-961857D01*
X7403000Y-933286D01*
X7417286Y-919000D01*
X7445857Y-904714D01*
X7488714Y-904714D01*
X7517286Y-919000D01*
X7531571Y-933286D01*
X7545857Y-961857D01*
X7545857Y-1047571D01*
X7531571Y-1076143D01*
X7517286Y-1090429D01*
X7488714Y-1104714D01*
X7445857Y-1104714D01*
X7631571Y-904714D02*
X7745857Y-904714D01*
X7674428Y-804714D02*
X7674428Y-1061857D01*
X7688714Y-1090429D01*
X7717286Y-1104714D01*
X7745857Y-1104714D01*
X8074428Y-904714D02*
X8074428Y-1204714D01*
X8074428Y-919000D02*
X8103000Y-904714D01*
X8160143Y-904714D01*
X8188714Y-919000D01*
X8203000Y-933286D01*
X8217286Y-961857D01*
X8217286Y-1047571D01*
X8203000Y-1076143D01*
X8188714Y-1090429D01*
X8160143Y-1104714D01*
X8103000Y-1104714D01*
X8074428Y-1090429D01*
X8388714Y-1104714D02*
X8360143Y-1090429D01*
X8345857Y-1061857D01*
X8345857Y-804714D01*
X8631571Y-1104714D02*
X8631571Y-947571D01*
X8617286Y-919000D01*
X8588714Y-904714D01*
X8531571Y-904714D01*
X8503000Y-919000D01*
X8631571Y-1090429D02*
X8603000Y-1104714D01*
X8531571Y-1104714D01*
X8503000Y-1090429D01*
X8488714Y-1061857D01*
X8488714Y-1033286D01*
X8503000Y-1004714D01*
X8531571Y-990429D01*
X8603000Y-990429D01*
X8631571Y-976143D01*
X8731571Y-904714D02*
X8845857Y-904714D01*
X8774428Y-804714D02*
X8774428Y-1061857D01*
X8788714Y-1090429D01*
X8817286Y-1104714D01*
X8845857Y-1104714D01*
X9060143Y-1090429D02*
X9031571Y-1104714D01*
X8974428Y-1104714D01*
X8945857Y-1090429D01*
X8931571Y-1061857D01*
X8931571Y-947571D01*
X8945857Y-919000D01*
X8974428Y-904714D01*
X9031571Y-904714D01*
X9060143Y-919000D01*
X9074428Y-947571D01*
X9074428Y-976143D01*
X8931571Y-1004714D01*
X9331571Y-1104714D02*
X9331571Y-804714D01*
X9331571Y-1090429D02*
X9303000Y-1104714D01*
X9245857Y-1104714D01*
X9217286Y-1090429D01*
X9203000Y-1076143D01*
X9188714Y-1047571D01*
X9188714Y-961857D01*
X9203000Y-933286D01*
X9217286Y-919000D01*
X9245857Y-904714D01*
X9303000Y-904714D01*
X9331571Y-919000D01*
X9445857Y-1219000D02*
X9460143Y-1204714D01*
X9488714Y-1161857D01*
X9503000Y-1133286D01*
X9517286Y-1090429D01*
X9531571Y-1019000D01*
X9531571Y-961857D01*
X9517286Y-890429D01*
X9503000Y-847571D01*
X9488714Y-819000D01*
X9460143Y-776143D01*
X9445857Y-761857D01*
X-12000Y-1365000D02*
G75*
G03X-12000Y-1365000I-215000J0D01*
G01*
X403000Y-1300714D02*
X403000Y-1500714D01*
X331571Y-1186429D02*
X260143Y-1400714D01*
X445857Y-1400714D01*
X560143Y-1472143D02*
X574428Y-1486429D01*
X560143Y-1500714D01*
X545857Y-1486429D01*
X560143Y-1472143D01*
X560143Y-1500714D01*
X674428Y-1200714D02*
X860143Y-1200714D01*
X760143Y-1315000D01*
X803000Y-1315000D01*
X831571Y-1329286D01*
X845857Y-1343572D01*
X860143Y-1372143D01*
X860143Y-1443571D01*
X845857Y-1472143D01*
X831571Y-1486429D01*
X803000Y-1500714D01*
X717286Y-1500714D01*
X688714Y-1486429D01*
X674428Y-1472143D01*
X1045857Y-1200714D02*
X1074428Y-1200714D01*
X1103000Y-1215000D01*
X1117286Y-1229286D01*
X1131571Y-1257857D01*
X1145857Y-1315000D01*
X1145857Y-1386429D01*
X1131571Y-1443571D01*
X1117286Y-1472143D01*
X1103000Y-1486429D01*
X1074428Y-1500714D01*
X1045857Y-1500714D01*
X1017286Y-1486429D01*
X1003000Y-1472143D01*
X988714Y-1443571D01*
X974428Y-1386429D01*
X974428Y-1315000D01*
X988714Y-1257857D01*
X1003000Y-1229286D01*
X1017286Y-1215000D01*
X1045857Y-1200714D01*
X1274428Y-1500714D02*
X1274428Y-1300714D01*
X1274428Y-1329286D02*
X1288714Y-1315000D01*
X1317286Y-1300714D01*
X1360143Y-1300714D01*
X1388714Y-1315000D01*
X1403000Y-1343572D01*
X1403000Y-1500714D01*
X1403000Y-1343572D02*
X1417286Y-1315000D01*
X1445857Y-1300714D01*
X1488714Y-1300714D01*
X1517286Y-1315000D01*
X1531571Y-1343572D01*
X1531571Y-1500714D01*
X1674428Y-1500714D02*
X1674428Y-1300714D01*
X1674428Y-1329286D02*
X1688714Y-1315000D01*
X1717286Y-1300714D01*
X1760143Y-1300714D01*
X1788714Y-1315000D01*
X1803000Y-1343572D01*
X1803000Y-1500714D01*
X1803000Y-1343572D02*
X1817286Y-1315000D01*
X1845857Y-1300714D01*
X1888714Y-1300714D01*
X1917286Y-1315000D01*
X1931571Y-1343572D01*
X1931571Y-1500714D01*
X2517286Y-1186429D02*
X2260143Y-1572143D01*
X2903000Y-1200714D02*
X2931571Y-1200714D01*
X2960143Y-1215000D01*
X2974428Y-1229286D01*
X2988714Y-1257857D01*
X3003000Y-1315000D01*
X3003000Y-1386429D01*
X2988714Y-1443571D01*
X2974428Y-1472143D01*
X2960143Y-1486429D01*
X2931571Y-1500714D01*
X2903000Y-1500714D01*
X2874428Y-1486429D01*
X2860143Y-1472143D01*
X2845857Y-1443571D01*
X2831571Y-1386429D01*
X2831571Y-1315000D01*
X2845857Y-1257857D01*
X2860143Y-1229286D01*
X2874428Y-1215000D01*
X2903000Y-1200714D01*
X3131571Y-1472143D02*
X3145857Y-1486429D01*
X3131571Y-1500714D01*
X3117286Y-1486429D01*
X3131571Y-1472143D01*
X3131571Y-1500714D01*
X3431571Y-1500714D02*
X3260143Y-1500714D01*
X3345857Y-1500714D02*
X3345857Y-1200714D01*
X3317286Y-1243572D01*
X3288714Y-1272143D01*
X3260143Y-1286429D01*
X3688714Y-1200714D02*
X3631571Y-1200714D01*
X3603000Y-1215000D01*
X3588714Y-1229286D01*
X3560143Y-1272143D01*
X3545857Y-1329286D01*
X3545857Y-1443571D01*
X3560143Y-1472143D01*
X3574428Y-1486429D01*
X3603000Y-1500714D01*
X3660143Y-1500714D01*
X3688714Y-1486429D01*
X3703000Y-1472143D01*
X3717286Y-1443571D01*
X3717286Y-1372143D01*
X3703000Y-1343572D01*
X3688714Y-1329286D01*
X3660143Y-1315000D01*
X3603000Y-1315000D01*
X3574428Y-1329286D01*
X3560143Y-1343572D01*
X3545857Y-1372143D01*
X3860143Y-1500714D02*
X3917286Y-1500714D01*
X3945857Y-1486429D01*
X3960143Y-1472143D01*
X3988714Y-1429286D01*
X4003000Y-1372143D01*
X4003000Y-1257857D01*
X3988714Y-1229286D01*
X3974428Y-1215000D01*
X3945857Y-1200714D01*
X3888714Y-1200714D01*
X3860143Y-1215000D01*
X3845857Y-1229286D01*
X3831571Y-1257857D01*
X3831571Y-1329286D01*
X3845857Y-1357857D01*
X3860143Y-1372143D01*
X3888714Y-1386429D01*
X3945857Y-1386429D01*
X3974428Y-1372143D01*
X3988714Y-1357857D01*
X4003000Y-1329286D01*
X4117286Y-1200714D02*
X4117286Y-1257857D01*
X4231571Y-1200714D02*
X4231571Y-1257857D01*
X4674428Y-1615000D02*
X4660143Y-1600714D01*
X4631571Y-1557857D01*
X4617286Y-1529286D01*
X4603000Y-1486429D01*
X4588714Y-1415000D01*
X4588714Y-1357857D01*
X4603000Y-1286429D01*
X4617286Y-1243572D01*
X4631571Y-1215000D01*
X4660143Y-1172143D01*
X4674428Y-1157857D01*
X4945857Y-1500714D02*
X4774428Y-1500714D01*
X4860143Y-1500714D02*
X4860143Y-1200714D01*
X4831571Y-1243572D01*
X4803000Y-1272143D01*
X4774428Y-1286429D01*
X5303000Y-1500714D02*
X5303000Y-1200714D01*
X5431571Y-1500714D02*
X5431571Y-1343572D01*
X5417286Y-1315000D01*
X5388714Y-1300714D01*
X5345857Y-1300714D01*
X5317286Y-1315000D01*
X5303000Y-1329286D01*
X5617286Y-1500714D02*
X5588714Y-1486429D01*
X5574428Y-1472143D01*
X5560143Y-1443571D01*
X5560143Y-1357857D01*
X5574428Y-1329286D01*
X5588714Y-1315000D01*
X5617286Y-1300714D01*
X5660143Y-1300714D01*
X5688714Y-1315000D01*
X5703000Y-1329286D01*
X5717286Y-1357857D01*
X5717286Y-1443571D01*
X5703000Y-1472143D01*
X5688714Y-1486429D01*
X5660143Y-1500714D01*
X5617286Y-1500714D01*
X5888714Y-1500714D02*
X5860143Y-1486429D01*
X5845857Y-1457857D01*
X5845857Y-1200714D01*
X6117286Y-1486429D02*
X6088714Y-1500714D01*
X6031571Y-1500714D01*
X6003000Y-1486429D01*
X5988714Y-1457857D01*
X5988714Y-1343572D01*
X6003000Y-1315000D01*
X6031571Y-1300714D01*
X6088714Y-1300714D01*
X6117286Y-1315000D01*
X6131571Y-1343572D01*
X6131571Y-1372143D01*
X5988714Y-1400714D01*
X6231571Y-1615000D02*
X6245857Y-1600714D01*
X6274428Y-1557857D01*
X6288714Y-1529286D01*
X6303000Y-1486429D01*
X6317286Y-1415000D01*
X6317286Y-1357857D01*
X6303000Y-1286429D01*
X6288714Y-1243572D01*
X6274428Y-1215000D01*
X6245857Y-1172143D01*
X6231571Y-1157857D01*
X6774428Y-1615000D02*
X6760143Y-1600714D01*
X6731571Y-1557857D01*
X6717286Y-1529286D01*
X6703000Y-1486429D01*
X6688714Y-1415000D01*
X6688714Y-1357857D01*
X6703000Y-1286429D01*
X6717286Y-1243572D01*
X6731571Y-1215000D01*
X6760143Y-1172143D01*
X6774428Y-1157857D01*
X6888714Y-1300714D02*
X6888714Y-1500714D01*
X6888714Y-1329286D02*
X6903000Y-1315000D01*
X6931571Y-1300714D01*
X6974428Y-1300714D01*
X7003000Y-1315000D01*
X7017286Y-1343572D01*
X7017286Y-1500714D01*
X7203000Y-1500714D02*
X7174428Y-1486429D01*
X7160143Y-1472143D01*
X7145857Y-1443571D01*
X7145857Y-1357857D01*
X7160143Y-1329286D01*
X7174428Y-1315000D01*
X7203000Y-1300714D01*
X7245857Y-1300714D01*
X7274428Y-1315000D01*
X7288714Y-1329286D01*
X7303000Y-1357857D01*
X7303000Y-1443571D01*
X7288714Y-1472143D01*
X7274428Y-1486429D01*
X7245857Y-1500714D01*
X7203000Y-1500714D01*
X7388714Y-1300714D02*
X7503000Y-1300714D01*
X7431571Y-1200714D02*
X7431571Y-1457857D01*
X7445857Y-1486429D01*
X7474428Y-1500714D01*
X7503000Y-1500714D01*
X7831571Y-1300714D02*
X7831571Y-1600714D01*
X7831571Y-1315000D02*
X7860143Y-1300714D01*
X7917286Y-1300714D01*
X7945857Y-1315000D01*
X7960143Y-1329286D01*
X7974428Y-1357857D01*
X7974428Y-1443571D01*
X7960143Y-1472143D01*
X7945857Y-1486429D01*
X7917286Y-1500714D01*
X7860143Y-1500714D01*
X7831571Y-1486429D01*
X8145857Y-1500714D02*
X8117286Y-1486429D01*
X8103000Y-1457857D01*
X8103000Y-1200714D01*
X8388714Y-1500714D02*
X8388714Y-1343572D01*
X8374428Y-1315000D01*
X8345857Y-1300714D01*
X8288714Y-1300714D01*
X8260143Y-1315000D01*
X8388714Y-1486429D02*
X8360143Y-1500714D01*
X8288714Y-1500714D01*
X8260143Y-1486429D01*
X8245857Y-1457857D01*
X8245857Y-1429286D01*
X8260143Y-1400714D01*
X8288714Y-1386429D01*
X8360143Y-1386429D01*
X8388714Y-1372143D01*
X8488714Y-1300714D02*
X8603000Y-1300714D01*
X8531571Y-1200714D02*
X8531571Y-1457857D01*
X8545857Y-1486429D01*
X8574428Y-1500714D01*
X8603000Y-1500714D01*
X8817286Y-1486429D02*
X8788714Y-1500714D01*
X8731571Y-1500714D01*
X8703000Y-1486429D01*
X8688714Y-1457857D01*
X8688714Y-1343572D01*
X8703000Y-1315000D01*
X8731571Y-1300714D01*
X8788714Y-1300714D01*
X8817286Y-1315000D01*
X8831571Y-1343572D01*
X8831571Y-1372143D01*
X8688714Y-1400714D01*
X9088714Y-1500714D02*
X9088714Y-1200714D01*
X9088714Y-1486429D02*
X9060143Y-1500714D01*
X9003000Y-1500714D01*
X8974428Y-1486429D01*
X8960143Y-1472143D01*
X8945857Y-1443571D01*
X8945857Y-1357857D01*
X8960143Y-1329286D01*
X8974428Y-1315000D01*
X9003000Y-1300714D01*
X9060143Y-1300714D01*
X9088714Y-1315000D01*
X9203000Y-1615000D02*
X9217286Y-1600714D01*
X9245857Y-1557857D01*
X9260143Y-1529286D01*
X9274428Y-1486429D01*
X9288714Y-1415000D01*
X9288714Y-1357857D01*
X9274428Y-1286429D01*
X9260143Y-1243572D01*
X9245857Y-1215000D01*
X9217286Y-1172143D01*
X9203000Y-1157857D01*
M02*
