%FSLAX45Y45*%
G04 Gerber Fmt 4.5, Leading zero omitted, Abs format (unit mm)*
G04 Created by KiCad (PCBNEW (5.0.2)-1) date 01/03/2019 11:01:38*
%MOMM*%
%LPD*%
G01*
G04 APERTURE LIST*
%ADD10C,0.200000*%
%ADD11C,0.300000*%
G04 APERTURE END LIST*
D10*
X8798000Y5001000D02*
X8798000Y501000D01*
X-2000Y501000D02*
G75*
G03X498000Y1000I500000J0D01*
G01*
X8798000Y501000D02*
G75*
G02X8298000Y1000I-500000J0D01*
G01*
X8798000Y5001000D02*
G75*
G03X8298000Y5501000I-500000J0D01*
G01*
X-2000Y5001000D02*
G75*
G02X498000Y5501000I500000J0D01*
G01*
X-2000Y501000D02*
X-2000Y5001000D01*
X8298000Y1000D02*
X498000Y1000D01*
X498000Y5501000D02*
X8298000Y5501000D01*
D10*
X4402000Y2971000D02*
X4432000Y2941000D01*
X4432000Y2971000D02*
X4402000Y2941000D01*
X4402000Y2511000D02*
X4432000Y2481000D01*
X4432000Y2511000D02*
X4402000Y2481000D01*
X4402000Y1546000D02*
X4432000Y1516000D01*
X4432000Y1546000D02*
X4402000Y1516000D01*
X4615000Y4011000D02*
X4645000Y3981000D01*
X4645000Y4011000D02*
X4615000Y3981000D01*
X4755000Y1860500D02*
X4785000Y1830500D01*
X4785000Y1860500D02*
X4755000Y1830500D01*
X4759000Y1592000D02*
X4789000Y1562000D01*
X4789000Y1592000D02*
X4759000Y1562000D01*
X4907000Y2987000D02*
X4937000Y2957000D01*
X4937000Y2987000D02*
X4907000Y2957000D01*
X4913000Y2526000D02*
X4943000Y2496000D01*
X4943000Y2526000D02*
X4913000Y2496000D01*
X5003000Y2281000D02*
X5033000Y2251000D01*
X5033000Y2281000D02*
X5003000Y2251000D01*
X5025000Y3637000D02*
X5055000Y3607000D01*
X5055000Y3637000D02*
X5025000Y3607000D01*
X5028000Y2151000D02*
X5058000Y2121000D01*
X5058000Y2151000D02*
X5028000Y2121000D01*
X5063000Y2346000D02*
X5093000Y2316000D01*
X5093000Y2346000D02*
X5063000Y2316000D01*
X5144000Y2812000D02*
X5174000Y2782000D01*
X5174000Y2812000D02*
X5144000Y2782000D01*
X5309000Y2865000D02*
X5339000Y2835000D01*
X5339000Y2865000D02*
X5309000Y2835000D01*
X5309000Y1574000D02*
X5339000Y1544000D01*
X5339000Y1574000D02*
X5309000Y1544000D01*
X5311000Y2030000D02*
X5341000Y2000000D01*
X5341000Y2030000D02*
X5311000Y2000000D01*
X5386000Y3326000D02*
X5416000Y3296000D01*
X5416000Y3326000D02*
X5386000Y3296000D01*
X5414000Y4626000D02*
X5444000Y4596000D01*
X5444000Y4626000D02*
X5414000Y4596000D01*
X5429806Y2936718D02*
X5459806Y2906718D01*
X5459806Y2936718D02*
X5429806Y2906718D01*
X5438474Y3393526D02*
X5468474Y3363526D01*
X5468474Y3393526D02*
X5438474Y3363526D01*
X5448396Y2691604D02*
X5478396Y2661604D01*
X5478396Y2691604D02*
X5448396Y2661604D01*
X5481000Y2811604D02*
X5511000Y2781604D01*
X5511000Y2811604D02*
X5481000Y2781604D01*
X5525000Y3971000D02*
X5555000Y3941000D01*
X5555000Y3971000D02*
X5525000Y3941000D01*
X5527000Y2990229D02*
X5557000Y2960229D01*
X5557000Y2990229D02*
X5527000Y2960229D01*
X5602638Y3050229D02*
X5632638Y3020229D01*
X5632638Y3050229D02*
X5602638Y3020229D01*
X5646000Y2571000D02*
X5676000Y2541000D01*
X5676000Y2571000D02*
X5646000Y2541000D01*
X5652000Y3972000D02*
X5682000Y3942000D01*
X5682000Y3972000D02*
X5652000Y3942000D01*
X5692278Y3087869D02*
X5722278Y3057869D01*
X5722278Y3087869D02*
X5692278Y3057869D01*
X5693000Y3218000D02*
X5723000Y3188000D01*
X5723000Y3218000D02*
X5693000Y3188000D01*
X5706000Y2511000D02*
X5736000Y2481000D01*
X5736000Y2511000D02*
X5706000Y2481000D01*
X5713000Y3475000D02*
X5743000Y3445000D01*
X5743000Y3475000D02*
X5713000Y3445000D01*
X5740000Y1622000D02*
X5770000Y1592000D01*
X5770000Y1622000D02*
X5740000Y1592000D01*
X5745800Y3977000D02*
X5775800Y3947000D01*
X5775800Y3977000D02*
X5745800Y3947000D01*
X5774000Y3197000D02*
X5804000Y3167000D01*
X5804000Y3197000D02*
X5774000Y3167000D01*
X5840000Y3975000D02*
X5870000Y3945000D01*
X5870000Y3975000D02*
X5840000Y3945000D01*
X5909000Y2606000D02*
X5939000Y2576000D01*
X5939000Y2606000D02*
X5909000Y2576000D01*
X5942596Y2678604D02*
X5972596Y2648604D01*
X5972596Y2678604D02*
X5942596Y2648604D01*
X5953315Y2892726D02*
X5983315Y2862726D01*
X5983315Y2892726D02*
X5953315Y2862726D01*
X5964000Y3497000D02*
X5994000Y3467000D01*
X5994000Y3497000D02*
X5964000Y3467000D01*
X6004000Y2156173D02*
X6034000Y2126173D01*
X6034000Y2156173D02*
X6004000Y2126173D01*
X6015743Y2711000D02*
X6045743Y2681000D01*
X6045743Y2711000D02*
X6015743Y2681000D01*
X6020603Y2849456D02*
X6050603Y2819456D01*
X6050603Y2849456D02*
X6020603Y2819456D01*
X6064000Y2220462D02*
X6094000Y2190462D01*
X6094000Y2220462D02*
X6064000Y2190462D01*
X6111000Y2855000D02*
X6141000Y2825000D01*
X6141000Y2855000D02*
X6111000Y2825000D01*
X6124000Y2167000D02*
X6154000Y2137000D01*
X6154000Y2167000D02*
X6124000Y2137000D01*
X6210000Y5331000D02*
X6240000Y5301000D01*
X6240000Y5331000D02*
X6210000Y5301000D01*
X6210000Y5227000D02*
X6240000Y5197000D01*
X6240000Y5227000D02*
X6210000Y5197000D01*
X6232000Y4431000D02*
X6262000Y4401000D01*
X6262000Y4431000D02*
X6232000Y4401000D01*
X6247746Y3125947D02*
X6277746Y3095947D01*
X6277746Y3125947D02*
X6247746Y3095947D01*
X6374000Y2983000D02*
X6404000Y2953000D01*
X6404000Y2983000D02*
X6374000Y2953000D01*
X6374500Y3939000D02*
X6404500Y3909000D01*
X6404500Y3939000D02*
X6374500Y3909000D01*
X6414000Y1550000D02*
X6444000Y1520000D01*
X6444000Y1550000D02*
X6414000Y1520000D01*
X6415000Y5021000D02*
X6445000Y4991000D01*
X6445000Y5021000D02*
X6415000Y4991000D01*
X6441000Y3430000D02*
X6471000Y3400000D01*
X6471000Y3430000D02*
X6441000Y3400000D01*
X6444000Y2783000D02*
X6474000Y2753000D01*
X6474000Y2783000D02*
X6444000Y2753000D01*
X6459000Y2990000D02*
X6489000Y2960000D01*
X6489000Y2990000D02*
X6459000Y2960000D01*
X6482000Y3323000D02*
X6512000Y3293000D01*
X6512000Y3323000D02*
X6482000Y3293000D01*
X6495000Y1552000D02*
X6525000Y1522000D01*
X6525000Y1552000D02*
X6495000Y1522000D01*
X6674000Y4181000D02*
X6704000Y4151000D01*
X6704000Y4181000D02*
X6674000Y4151000D01*
X6705000Y4480000D02*
X6735000Y4450000D01*
X6735000Y4480000D02*
X6705000Y4450000D01*
X6753000Y2277000D02*
X6783000Y2247000D01*
X6783000Y2277000D02*
X6753000Y2247000D01*
X6814000Y4960000D02*
X6844000Y4930000D01*
X6844000Y4960000D02*
X6814000Y4930000D01*
X6842000Y3301000D02*
X6872000Y3271000D01*
X6872000Y3301000D02*
X6842000Y3271000D01*
X6929900Y4850000D02*
X6959900Y4820000D01*
X6959900Y4850000D02*
X6929900Y4820000D01*
X6986000Y2402000D02*
X7016000Y2372000D01*
X7016000Y2402000D02*
X6986000Y2372000D01*
X7027000Y4853000D02*
X7057000Y4823000D01*
X7057000Y4853000D02*
X7027000Y4823000D01*
X7137000Y2867000D02*
X7167000Y2837000D01*
X7167000Y2867000D02*
X7137000Y2837000D01*
X7238000Y2874000D02*
X7268000Y2844000D01*
X7268000Y2874000D02*
X7238000Y2844000D01*
X7434000Y5331000D02*
X7464000Y5301000D01*
X7464000Y5331000D02*
X7434000Y5301000D01*
X7988000Y4476000D02*
X8018000Y4446000D01*
X8018000Y4476000D02*
X7988000Y4446000D01*
X7988000Y1921000D02*
X8018000Y1891000D01*
X8018000Y1921000D02*
X7988000Y1891000D01*
X7988000Y941000D02*
X8018000Y911000D01*
X8018000Y941000D02*
X7988000Y911000D01*
X8111000Y3445000D02*
X8141000Y3415000D01*
X8141000Y3445000D02*
X8111000Y3415000D01*
X6398000Y1080500D02*
G75*
G03X6398000Y1080500I-50000J0D01*
G01*
X6652000Y1080500D02*
G75*
G03X6652000Y1080500I-50000J0D01*
G01*
X6906000Y1080500D02*
G75*
G03X6906000Y1080500I-50000J0D01*
G01*
X7160000Y1080500D02*
G75*
G03X7160000Y1080500I-50000J0D01*
G01*
X4827000Y1081000D02*
G75*
G03X4827000Y1081000I-50000J0D01*
G01*
X5081000Y1081000D02*
G75*
G03X5081000Y1081000I-50000J0D01*
G01*
X5335000Y1081000D02*
G75*
G03X5335000Y1081000I-50000J0D01*
G01*
X5589000Y1081000D02*
G75*
G03X5589000Y1081000I-50000J0D01*
G01*
X5843000Y1081000D02*
G75*
G03X5843000Y1081000I-50000J0D01*
G01*
X7731500Y5017500D02*
G75*
G03X7731500Y5017500I-50000J0D01*
G01*
X7731500Y4763500D02*
G75*
G03X7731500Y4763500I-50000J0D01*
G01*
X7731500Y4509500D02*
G75*
G03X7731500Y4509500I-50000J0D01*
G01*
X7731500Y4255500D02*
G75*
G03X7731500Y4255500I-50000J0D01*
G01*
X7731500Y4001500D02*
G75*
G03X7731500Y4001500I-50000J0D01*
G01*
X7731500Y3747500D02*
G75*
G03X7731500Y3747500I-50000J0D01*
G01*
X7731500Y1715500D02*
G75*
G03X7731500Y1715500I-50000J0D01*
G01*
X7731500Y1461500D02*
G75*
G03X7731500Y1461500I-50000J0D01*
G01*
X7731500Y1207500D02*
G75*
G03X7731500Y1207500I-50000J0D01*
G01*
X7731500Y953500D02*
G75*
G03X7731500Y953500I-50000J0D01*
G01*
X7731500Y699500D02*
G75*
G03X7731500Y699500I-50000J0D01*
G01*
X7731500Y445500D02*
G75*
G03X7731500Y445500I-50000J0D01*
G01*
X7731500Y3366500D02*
G75*
G03X7731500Y3366500I-50000J0D01*
G01*
X7731500Y3112500D02*
G75*
G03X7731500Y3112500I-50000J0D01*
G01*
X7731500Y2858500D02*
G75*
G03X7731500Y2858500I-50000J0D01*
G01*
X7731500Y2604500D02*
G75*
G03X7731500Y2604500I-50000J0D01*
G01*
X7731500Y2350500D02*
G75*
G03X7731500Y2350500I-50000J0D01*
G01*
X7731500Y2096500D02*
G75*
G03X7731500Y2096500I-50000J0D01*
G01*
X6767000Y3975000D02*
X6767000Y3873000D01*
X6716000Y3924000D02*
X6818000Y3924000D01*
X6767000Y2705000D02*
X6767000Y2603000D01*
X6716000Y2654000D02*
X6818000Y2654000D01*
D11*
X274428Y-474714D02*
X274428Y-174714D01*
X345857Y-174714D01*
X388714Y-189000D01*
X417286Y-217571D01*
X431571Y-246143D01*
X445857Y-303286D01*
X445857Y-346143D01*
X431571Y-403286D01*
X417286Y-431857D01*
X388714Y-460429D01*
X345857Y-474714D01*
X274428Y-474714D01*
X574428Y-474714D02*
X574428Y-274714D01*
X574428Y-331857D02*
X588714Y-303286D01*
X603000Y-289000D01*
X631571Y-274714D01*
X660143Y-274714D01*
X760143Y-474714D02*
X760143Y-274714D01*
X760143Y-174714D02*
X745857Y-189000D01*
X760143Y-203286D01*
X774428Y-189000D01*
X760143Y-174714D01*
X760143Y-203286D01*
X945857Y-474714D02*
X917286Y-460429D01*
X903000Y-431857D01*
X903000Y-174714D01*
X1103000Y-474714D02*
X1074428Y-460429D01*
X1060143Y-431857D01*
X1060143Y-174714D01*
X1445857Y-474714D02*
X1445857Y-174714D01*
X1545857Y-389000D01*
X1645857Y-174714D01*
X1645857Y-474714D01*
X1917286Y-474714D02*
X1917286Y-317572D01*
X1903000Y-289000D01*
X1874428Y-274714D01*
X1817286Y-274714D01*
X1788714Y-289000D01*
X1917286Y-460429D02*
X1888714Y-474714D01*
X1817286Y-474714D01*
X1788714Y-460429D01*
X1774428Y-431857D01*
X1774428Y-403286D01*
X1788714Y-374714D01*
X1817286Y-360429D01*
X1888714Y-360429D01*
X1917286Y-346143D01*
X2060143Y-274714D02*
X2060143Y-574714D01*
X2060143Y-289000D02*
X2088714Y-274714D01*
X2145857Y-274714D01*
X2174428Y-289000D01*
X2188714Y-303286D01*
X2203000Y-331857D01*
X2203000Y-417571D01*
X2188714Y-446143D01*
X2174428Y-460429D01*
X2145857Y-474714D01*
X2088714Y-474714D01*
X2060143Y-460429D01*
X2331571Y-446143D02*
X2345857Y-460429D01*
X2331571Y-474714D01*
X2317286Y-460429D01*
X2331571Y-446143D01*
X2331571Y-474714D01*
X2331571Y-289000D02*
X2345857Y-303286D01*
X2331571Y-317572D01*
X2317286Y-303286D01*
X2331571Y-289000D01*
X2331571Y-317572D01*
X-42000Y-954000D02*
X-12000Y-984000D01*
X-12000Y-954000D02*
X-42000Y-984000D01*
X331571Y-804714D02*
X360143Y-804714D01*
X388714Y-819000D01*
X403000Y-833286D01*
X417286Y-861857D01*
X431571Y-919000D01*
X431571Y-990429D01*
X417286Y-1047571D01*
X403000Y-1076143D01*
X388714Y-1090429D01*
X360143Y-1104714D01*
X331571Y-1104714D01*
X303000Y-1090429D01*
X288714Y-1076143D01*
X274428Y-1047571D01*
X260143Y-990429D01*
X260143Y-919000D01*
X274428Y-861857D01*
X288714Y-833286D01*
X303000Y-819000D01*
X331571Y-804714D01*
X560143Y-1076143D02*
X574428Y-1090429D01*
X560143Y-1104714D01*
X545857Y-1090429D01*
X560143Y-1076143D01*
X560143Y-1104714D01*
X674428Y-804714D02*
X860143Y-804714D01*
X760143Y-919000D01*
X803000Y-919000D01*
X831571Y-933286D01*
X845857Y-947571D01*
X860143Y-976143D01*
X860143Y-1047571D01*
X845857Y-1076143D01*
X831571Y-1090429D01*
X803000Y-1104714D01*
X717286Y-1104714D01*
X688714Y-1090429D01*
X674428Y-1076143D01*
X1045857Y-804714D02*
X1074428Y-804714D01*
X1103000Y-819000D01*
X1117286Y-833286D01*
X1131571Y-861857D01*
X1145857Y-919000D01*
X1145857Y-990429D01*
X1131571Y-1047571D01*
X1117286Y-1076143D01*
X1103000Y-1090429D01*
X1074428Y-1104714D01*
X1045857Y-1104714D01*
X1017286Y-1090429D01*
X1003000Y-1076143D01*
X988714Y-1047571D01*
X974428Y-990429D01*
X974428Y-919000D01*
X988714Y-861857D01*
X1003000Y-833286D01*
X1017286Y-819000D01*
X1045857Y-804714D01*
X1274428Y-1104714D02*
X1274428Y-904714D01*
X1274428Y-933286D02*
X1288714Y-919000D01*
X1317286Y-904714D01*
X1360143Y-904714D01*
X1388714Y-919000D01*
X1403000Y-947571D01*
X1403000Y-1104714D01*
X1403000Y-947571D02*
X1417286Y-919000D01*
X1445857Y-904714D01*
X1488714Y-904714D01*
X1517286Y-919000D01*
X1531571Y-947571D01*
X1531571Y-1104714D01*
X1674428Y-1104714D02*
X1674428Y-904714D01*
X1674428Y-933286D02*
X1688714Y-919000D01*
X1717286Y-904714D01*
X1760143Y-904714D01*
X1788714Y-919000D01*
X1803000Y-947571D01*
X1803000Y-1104714D01*
X1803000Y-947571D02*
X1817286Y-919000D01*
X1845857Y-904714D01*
X1888714Y-904714D01*
X1917286Y-919000D01*
X1931571Y-947571D01*
X1931571Y-1104714D01*
X2517286Y-790429D02*
X2260143Y-1176143D01*
X2903000Y-804714D02*
X2931571Y-804714D01*
X2960143Y-819000D01*
X2974428Y-833286D01*
X2988714Y-861857D01*
X3003000Y-919000D01*
X3003000Y-990429D01*
X2988714Y-1047571D01*
X2974428Y-1076143D01*
X2960143Y-1090429D01*
X2931571Y-1104714D01*
X2903000Y-1104714D01*
X2874428Y-1090429D01*
X2860143Y-1076143D01*
X2845857Y-1047571D01*
X2831571Y-990429D01*
X2831571Y-919000D01*
X2845857Y-861857D01*
X2860143Y-833286D01*
X2874428Y-819000D01*
X2903000Y-804714D01*
X3131571Y-1076143D02*
X3145857Y-1090429D01*
X3131571Y-1104714D01*
X3117286Y-1090429D01*
X3131571Y-1076143D01*
X3131571Y-1104714D01*
X3331571Y-804714D02*
X3360143Y-804714D01*
X3388714Y-819000D01*
X3403000Y-833286D01*
X3417286Y-861857D01*
X3431571Y-919000D01*
X3431571Y-990429D01*
X3417286Y-1047571D01*
X3403000Y-1076143D01*
X3388714Y-1090429D01*
X3360143Y-1104714D01*
X3331571Y-1104714D01*
X3303000Y-1090429D01*
X3288714Y-1076143D01*
X3274428Y-1047571D01*
X3260143Y-990429D01*
X3260143Y-919000D01*
X3274428Y-861857D01*
X3288714Y-833286D01*
X3303000Y-819000D01*
X3331571Y-804714D01*
X3717286Y-1104714D02*
X3545857Y-1104714D01*
X3631571Y-1104714D02*
X3631571Y-804714D01*
X3603000Y-847571D01*
X3574428Y-876143D01*
X3545857Y-890429D01*
X3831571Y-833286D02*
X3845857Y-819000D01*
X3874428Y-804714D01*
X3945857Y-804714D01*
X3974428Y-819000D01*
X3988714Y-833286D01*
X4003000Y-861857D01*
X4003000Y-890429D01*
X3988714Y-933286D01*
X3817286Y-1104714D01*
X4003000Y-1104714D01*
X4117286Y-804714D02*
X4117286Y-861857D01*
X4231571Y-804714D02*
X4231571Y-861857D01*
X4674428Y-1219000D02*
X4660143Y-1204714D01*
X4631571Y-1161857D01*
X4617286Y-1133286D01*
X4603000Y-1090429D01*
X4588714Y-1019000D01*
X4588714Y-961857D01*
X4603000Y-890429D01*
X4617286Y-847571D01*
X4631571Y-819000D01*
X4660143Y-776143D01*
X4674428Y-761857D01*
X4760143Y-804714D02*
X4960143Y-804714D01*
X4831571Y-1104714D01*
X5045857Y-804714D02*
X5231571Y-804714D01*
X5131571Y-919000D01*
X5174428Y-919000D01*
X5203000Y-933286D01*
X5217286Y-947571D01*
X5231571Y-976143D01*
X5231571Y-1047571D01*
X5217286Y-1076143D01*
X5203000Y-1090429D01*
X5174428Y-1104714D01*
X5088714Y-1104714D01*
X5060143Y-1090429D01*
X5045857Y-1076143D01*
X5588714Y-1104714D02*
X5588714Y-804714D01*
X5717286Y-1104714D02*
X5717286Y-947571D01*
X5703000Y-919000D01*
X5674428Y-904714D01*
X5631571Y-904714D01*
X5603000Y-919000D01*
X5588714Y-933286D01*
X5903000Y-1104714D02*
X5874428Y-1090429D01*
X5860143Y-1076143D01*
X5845857Y-1047571D01*
X5845857Y-961857D01*
X5860143Y-933286D01*
X5874428Y-919000D01*
X5903000Y-904714D01*
X5945857Y-904714D01*
X5974428Y-919000D01*
X5988714Y-933286D01*
X6003000Y-961857D01*
X6003000Y-1047571D01*
X5988714Y-1076143D01*
X5974428Y-1090429D01*
X5945857Y-1104714D01*
X5903000Y-1104714D01*
X6174428Y-1104714D02*
X6145857Y-1090429D01*
X6131571Y-1061857D01*
X6131571Y-804714D01*
X6403000Y-1090429D02*
X6374428Y-1104714D01*
X6317286Y-1104714D01*
X6288714Y-1090429D01*
X6274428Y-1061857D01*
X6274428Y-947571D01*
X6288714Y-919000D01*
X6317286Y-904714D01*
X6374428Y-904714D01*
X6403000Y-919000D01*
X6417286Y-947571D01*
X6417286Y-976143D01*
X6274428Y-1004714D01*
X6531571Y-1090429D02*
X6560143Y-1104714D01*
X6617286Y-1104714D01*
X6645857Y-1090429D01*
X6660143Y-1061857D01*
X6660143Y-1047571D01*
X6645857Y-1019000D01*
X6617286Y-1004714D01*
X6574428Y-1004714D01*
X6545857Y-990429D01*
X6531571Y-961857D01*
X6531571Y-947571D01*
X6545857Y-919000D01*
X6574428Y-904714D01*
X6617286Y-904714D01*
X6645857Y-919000D01*
X6760143Y-1219000D02*
X6774428Y-1204714D01*
X6803000Y-1161857D01*
X6817286Y-1133286D01*
X6831571Y-1090429D01*
X6845857Y-1019000D01*
X6845857Y-961857D01*
X6831571Y-890429D01*
X6817286Y-847571D01*
X6803000Y-819000D01*
X6774428Y-776143D01*
X6760143Y-761857D01*
X-12000Y-1365000D02*
G75*
G03X-12000Y-1365000I-50000J0D01*
G01*
X431571Y-1500714D02*
X260143Y-1500714D01*
X345857Y-1500714D02*
X345857Y-1200714D01*
X317286Y-1243572D01*
X288714Y-1272143D01*
X260143Y-1286429D01*
X560143Y-1472143D02*
X574428Y-1486429D01*
X560143Y-1500714D01*
X545857Y-1486429D01*
X560143Y-1472143D01*
X560143Y-1500714D01*
X760143Y-1200714D02*
X788714Y-1200714D01*
X817286Y-1215000D01*
X831571Y-1229286D01*
X845857Y-1257857D01*
X860143Y-1315000D01*
X860143Y-1386429D01*
X845857Y-1443571D01*
X831571Y-1472143D01*
X817286Y-1486429D01*
X788714Y-1500714D01*
X760143Y-1500714D01*
X731571Y-1486429D01*
X717286Y-1472143D01*
X703000Y-1443571D01*
X688714Y-1386429D01*
X688714Y-1315000D01*
X703000Y-1257857D01*
X717286Y-1229286D01*
X731571Y-1215000D01*
X760143Y-1200714D01*
X1045857Y-1200714D02*
X1074428Y-1200714D01*
X1103000Y-1215000D01*
X1117286Y-1229286D01*
X1131571Y-1257857D01*
X1145857Y-1315000D01*
X1145857Y-1386429D01*
X1131571Y-1443571D01*
X1117286Y-1472143D01*
X1103000Y-1486429D01*
X1074428Y-1500714D01*
X1045857Y-1500714D01*
X1017286Y-1486429D01*
X1003000Y-1472143D01*
X988714Y-1443571D01*
X974428Y-1386429D01*
X974428Y-1315000D01*
X988714Y-1257857D01*
X1003000Y-1229286D01*
X1017286Y-1215000D01*
X1045857Y-1200714D01*
X1274428Y-1500714D02*
X1274428Y-1300714D01*
X1274428Y-1329286D02*
X1288714Y-1315000D01*
X1317286Y-1300714D01*
X1360143Y-1300714D01*
X1388714Y-1315000D01*
X1403000Y-1343572D01*
X1403000Y-1500714D01*
X1403000Y-1343572D02*
X1417286Y-1315000D01*
X1445857Y-1300714D01*
X1488714Y-1300714D01*
X1517286Y-1315000D01*
X1531571Y-1343572D01*
X1531571Y-1500714D01*
X1674428Y-1500714D02*
X1674428Y-1300714D01*
X1674428Y-1329286D02*
X1688714Y-1315000D01*
X1717286Y-1300714D01*
X1760143Y-1300714D01*
X1788714Y-1315000D01*
X1803000Y-1343572D01*
X1803000Y-1500714D01*
X1803000Y-1343572D02*
X1817286Y-1315000D01*
X1845857Y-1300714D01*
X1888714Y-1300714D01*
X1917286Y-1315000D01*
X1931571Y-1343572D01*
X1931571Y-1500714D01*
X2517286Y-1186429D02*
X2260143Y-1572143D01*
X2903000Y-1200714D02*
X2931571Y-1200714D01*
X2960143Y-1215000D01*
X2974428Y-1229286D01*
X2988714Y-1257857D01*
X3003000Y-1315000D01*
X3003000Y-1386429D01*
X2988714Y-1443571D01*
X2974428Y-1472143D01*
X2960143Y-1486429D01*
X2931571Y-1500714D01*
X2903000Y-1500714D01*
X2874428Y-1486429D01*
X2860143Y-1472143D01*
X2845857Y-1443571D01*
X2831571Y-1386429D01*
X2831571Y-1315000D01*
X2845857Y-1257857D01*
X2860143Y-1229286D01*
X2874428Y-1215000D01*
X2903000Y-1200714D01*
X3131571Y-1472143D02*
X3145857Y-1486429D01*
X3131571Y-1500714D01*
X3117286Y-1486429D01*
X3131571Y-1472143D01*
X3131571Y-1500714D01*
X3331571Y-1200714D02*
X3360143Y-1200714D01*
X3388714Y-1215000D01*
X3403000Y-1229286D01*
X3417286Y-1257857D01*
X3431571Y-1315000D01*
X3431571Y-1386429D01*
X3417286Y-1443571D01*
X3403000Y-1472143D01*
X3388714Y-1486429D01*
X3360143Y-1500714D01*
X3331571Y-1500714D01*
X3303000Y-1486429D01*
X3288714Y-1472143D01*
X3274428Y-1443571D01*
X3260143Y-1386429D01*
X3260143Y-1315000D01*
X3274428Y-1257857D01*
X3288714Y-1229286D01*
X3303000Y-1215000D01*
X3331571Y-1200714D01*
X3531571Y-1200714D02*
X3717286Y-1200714D01*
X3617286Y-1315000D01*
X3660143Y-1315000D01*
X3688714Y-1329286D01*
X3703000Y-1343572D01*
X3717286Y-1372143D01*
X3717286Y-1443571D01*
X3703000Y-1472143D01*
X3688714Y-1486429D01*
X3660143Y-1500714D01*
X3574428Y-1500714D01*
X3545857Y-1486429D01*
X3531571Y-1472143D01*
X3860143Y-1500714D02*
X3917286Y-1500714D01*
X3945857Y-1486429D01*
X3960143Y-1472143D01*
X3988714Y-1429286D01*
X4003000Y-1372143D01*
X4003000Y-1257857D01*
X3988714Y-1229286D01*
X3974428Y-1215000D01*
X3945857Y-1200714D01*
X3888714Y-1200714D01*
X3860143Y-1215000D01*
X3845857Y-1229286D01*
X3831571Y-1257857D01*
X3831571Y-1329286D01*
X3845857Y-1357857D01*
X3860143Y-1372143D01*
X3888714Y-1386429D01*
X3945857Y-1386429D01*
X3974428Y-1372143D01*
X3988714Y-1357857D01*
X4003000Y-1329286D01*
X4117286Y-1200714D02*
X4117286Y-1257857D01*
X4231571Y-1200714D02*
X4231571Y-1257857D01*
X4674428Y-1615000D02*
X4660143Y-1600714D01*
X4631571Y-1557857D01*
X4617286Y-1529286D01*
X4603000Y-1486429D01*
X4588714Y-1415000D01*
X4588714Y-1357857D01*
X4603000Y-1286429D01*
X4617286Y-1243572D01*
X4631571Y-1215000D01*
X4660143Y-1172143D01*
X4674428Y-1157857D01*
X4774428Y-1229286D02*
X4788714Y-1215000D01*
X4817286Y-1200714D01*
X4888714Y-1200714D01*
X4917286Y-1215000D01*
X4931571Y-1229286D01*
X4945857Y-1257857D01*
X4945857Y-1286429D01*
X4931571Y-1329286D01*
X4760143Y-1500714D01*
X4945857Y-1500714D01*
X5045857Y-1200714D02*
X5245857Y-1200714D01*
X5117286Y-1500714D01*
X5588714Y-1500714D02*
X5588714Y-1200714D01*
X5717286Y-1500714D02*
X5717286Y-1343572D01*
X5703000Y-1315000D01*
X5674428Y-1300714D01*
X5631571Y-1300714D01*
X5603000Y-1315000D01*
X5588714Y-1329286D01*
X5903000Y-1500714D02*
X5874428Y-1486429D01*
X5860143Y-1472143D01*
X5845857Y-1443571D01*
X5845857Y-1357857D01*
X5860143Y-1329286D01*
X5874428Y-1315000D01*
X5903000Y-1300714D01*
X5945857Y-1300714D01*
X5974428Y-1315000D01*
X5988714Y-1329286D01*
X6003000Y-1357857D01*
X6003000Y-1443571D01*
X5988714Y-1472143D01*
X5974428Y-1486429D01*
X5945857Y-1500714D01*
X5903000Y-1500714D01*
X6174428Y-1500714D02*
X6145857Y-1486429D01*
X6131571Y-1457857D01*
X6131571Y-1200714D01*
X6403000Y-1486429D02*
X6374428Y-1500714D01*
X6317286Y-1500714D01*
X6288714Y-1486429D01*
X6274428Y-1457857D01*
X6274428Y-1343572D01*
X6288714Y-1315000D01*
X6317286Y-1300714D01*
X6374428Y-1300714D01*
X6403000Y-1315000D01*
X6417286Y-1343572D01*
X6417286Y-1372143D01*
X6274428Y-1400714D01*
X6531571Y-1486429D02*
X6560143Y-1500714D01*
X6617286Y-1500714D01*
X6645857Y-1486429D01*
X6660143Y-1457857D01*
X6660143Y-1443571D01*
X6645857Y-1415000D01*
X6617286Y-1400714D01*
X6574428Y-1400714D01*
X6545857Y-1386429D01*
X6531571Y-1357857D01*
X6531571Y-1343572D01*
X6545857Y-1315000D01*
X6574428Y-1300714D01*
X6617286Y-1300714D01*
X6645857Y-1315000D01*
X6760143Y-1615000D02*
X6774428Y-1600714D01*
X6803000Y-1557857D01*
X6817286Y-1529286D01*
X6831571Y-1486429D01*
X6845857Y-1415000D01*
X6845857Y-1357857D01*
X6831571Y-1286429D01*
X6817286Y-1243572D01*
X6803000Y-1215000D01*
X6774428Y-1172143D01*
X6760143Y-1157857D01*
X-63000Y-1710000D02*
X-63000Y-1812000D01*
X-114000Y-1761000D02*
X-12000Y-1761000D01*
X431571Y-1896714D02*
X260143Y-1896714D01*
X345857Y-1896714D02*
X345857Y-1596714D01*
X317286Y-1639571D01*
X288714Y-1668143D01*
X260143Y-1682429D01*
X560143Y-1868143D02*
X574428Y-1882429D01*
X560143Y-1896714D01*
X545857Y-1882429D01*
X560143Y-1868143D01*
X560143Y-1896714D01*
X760143Y-1596714D02*
X788714Y-1596714D01*
X817286Y-1611000D01*
X831571Y-1625286D01*
X845857Y-1653857D01*
X860143Y-1711000D01*
X860143Y-1782429D01*
X845857Y-1839571D01*
X831571Y-1868143D01*
X817286Y-1882429D01*
X788714Y-1896714D01*
X760143Y-1896714D01*
X731571Y-1882429D01*
X717286Y-1868143D01*
X703000Y-1839571D01*
X688714Y-1782429D01*
X688714Y-1711000D01*
X703000Y-1653857D01*
X717286Y-1625286D01*
X731571Y-1611000D01*
X760143Y-1596714D01*
X974428Y-1625286D02*
X988714Y-1611000D01*
X1017286Y-1596714D01*
X1088714Y-1596714D01*
X1117286Y-1611000D01*
X1131571Y-1625286D01*
X1145857Y-1653857D01*
X1145857Y-1682429D01*
X1131571Y-1725286D01*
X960143Y-1896714D01*
X1145857Y-1896714D01*
X1274428Y-1896714D02*
X1274428Y-1696714D01*
X1274428Y-1725286D02*
X1288714Y-1711000D01*
X1317286Y-1696714D01*
X1360143Y-1696714D01*
X1388714Y-1711000D01*
X1403000Y-1739571D01*
X1403000Y-1896714D01*
X1403000Y-1739571D02*
X1417286Y-1711000D01*
X1445857Y-1696714D01*
X1488714Y-1696714D01*
X1517286Y-1711000D01*
X1531571Y-1739571D01*
X1531571Y-1896714D01*
X1674428Y-1896714D02*
X1674428Y-1696714D01*
X1674428Y-1725286D02*
X1688714Y-1711000D01*
X1717286Y-1696714D01*
X1760143Y-1696714D01*
X1788714Y-1711000D01*
X1803000Y-1739571D01*
X1803000Y-1896714D01*
X1803000Y-1739571D02*
X1817286Y-1711000D01*
X1845857Y-1696714D01*
X1888714Y-1696714D01*
X1917286Y-1711000D01*
X1931571Y-1739571D01*
X1931571Y-1896714D01*
X2517286Y-1582429D02*
X2260143Y-1968143D01*
X2903000Y-1596714D02*
X2931571Y-1596714D01*
X2960143Y-1611000D01*
X2974428Y-1625286D01*
X2988714Y-1653857D01*
X3003000Y-1711000D01*
X3003000Y-1782429D01*
X2988714Y-1839571D01*
X2974428Y-1868143D01*
X2960143Y-1882429D01*
X2931571Y-1896714D01*
X2903000Y-1896714D01*
X2874428Y-1882429D01*
X2860143Y-1868143D01*
X2845857Y-1839571D01*
X2831571Y-1782429D01*
X2831571Y-1711000D01*
X2845857Y-1653857D01*
X2860143Y-1625286D01*
X2874428Y-1611000D01*
X2903000Y-1596714D01*
X3131571Y-1868143D02*
X3145857Y-1882429D01*
X3131571Y-1896714D01*
X3117286Y-1882429D01*
X3131571Y-1868143D01*
X3131571Y-1896714D01*
X3331571Y-1596714D02*
X3360143Y-1596714D01*
X3388714Y-1611000D01*
X3403000Y-1625286D01*
X3417286Y-1653857D01*
X3431571Y-1711000D01*
X3431571Y-1782429D01*
X3417286Y-1839571D01*
X3403000Y-1868143D01*
X3388714Y-1882429D01*
X3360143Y-1896714D01*
X3331571Y-1896714D01*
X3303000Y-1882429D01*
X3288714Y-1868143D01*
X3274428Y-1839571D01*
X3260143Y-1782429D01*
X3260143Y-1711000D01*
X3274428Y-1653857D01*
X3288714Y-1625286D01*
X3303000Y-1611000D01*
X3331571Y-1596714D01*
X3688714Y-1696714D02*
X3688714Y-1896714D01*
X3617286Y-1582429D02*
X3545857Y-1796714D01*
X3731571Y-1796714D01*
X3903000Y-1596714D02*
X3931571Y-1596714D01*
X3960143Y-1611000D01*
X3974428Y-1625286D01*
X3988714Y-1653857D01*
X4003000Y-1711000D01*
X4003000Y-1782429D01*
X3988714Y-1839571D01*
X3974428Y-1868143D01*
X3960143Y-1882429D01*
X3931571Y-1896714D01*
X3903000Y-1896714D01*
X3874428Y-1882429D01*
X3860143Y-1868143D01*
X3845857Y-1839571D01*
X3831571Y-1782429D01*
X3831571Y-1711000D01*
X3845857Y-1653857D01*
X3860143Y-1625286D01*
X3874428Y-1611000D01*
X3903000Y-1596714D01*
X4117286Y-1596714D02*
X4117286Y-1653857D01*
X4231571Y-1596714D02*
X4231571Y-1653857D01*
X4674428Y-2011000D02*
X4660143Y-1996714D01*
X4631571Y-1953857D01*
X4617286Y-1925286D01*
X4603000Y-1882429D01*
X4588714Y-1811000D01*
X4588714Y-1753857D01*
X4603000Y-1682429D01*
X4617286Y-1639571D01*
X4631571Y-1611000D01*
X4660143Y-1568143D01*
X4674428Y-1553857D01*
X4774428Y-1625286D02*
X4788714Y-1611000D01*
X4817286Y-1596714D01*
X4888714Y-1596714D01*
X4917286Y-1611000D01*
X4931571Y-1625286D01*
X4945857Y-1653857D01*
X4945857Y-1682429D01*
X4931571Y-1725286D01*
X4760143Y-1896714D01*
X4945857Y-1896714D01*
X5303000Y-1896714D02*
X5303000Y-1596714D01*
X5431571Y-1896714D02*
X5431571Y-1739571D01*
X5417286Y-1711000D01*
X5388714Y-1696714D01*
X5345857Y-1696714D01*
X5317286Y-1711000D01*
X5303000Y-1725286D01*
X5617286Y-1896714D02*
X5588714Y-1882429D01*
X5574428Y-1868143D01*
X5560143Y-1839571D01*
X5560143Y-1753857D01*
X5574428Y-1725286D01*
X5588714Y-1711000D01*
X5617286Y-1696714D01*
X5660143Y-1696714D01*
X5688714Y-1711000D01*
X5703000Y-1725286D01*
X5717286Y-1753857D01*
X5717286Y-1839571D01*
X5703000Y-1868143D01*
X5688714Y-1882429D01*
X5660143Y-1896714D01*
X5617286Y-1896714D01*
X5888714Y-1896714D02*
X5860143Y-1882429D01*
X5845857Y-1853857D01*
X5845857Y-1596714D01*
X6117286Y-1882429D02*
X6088714Y-1896714D01*
X6031571Y-1896714D01*
X6003000Y-1882429D01*
X5988714Y-1853857D01*
X5988714Y-1739571D01*
X6003000Y-1711000D01*
X6031571Y-1696714D01*
X6088714Y-1696714D01*
X6117286Y-1711000D01*
X6131571Y-1739571D01*
X6131571Y-1768143D01*
X5988714Y-1796714D01*
X6245857Y-1882429D02*
X6274428Y-1896714D01*
X6331571Y-1896714D01*
X6360143Y-1882429D01*
X6374428Y-1853857D01*
X6374428Y-1839571D01*
X6360143Y-1811000D01*
X6331571Y-1796714D01*
X6288714Y-1796714D01*
X6260143Y-1782429D01*
X6245857Y-1753857D01*
X6245857Y-1739571D01*
X6260143Y-1711000D01*
X6288714Y-1696714D01*
X6331571Y-1696714D01*
X6360143Y-1711000D01*
X6474428Y-2011000D02*
X6488714Y-1996714D01*
X6517286Y-1953857D01*
X6531571Y-1925286D01*
X6545857Y-1882429D01*
X6560143Y-1811000D01*
X6560143Y-1753857D01*
X6545857Y-1682429D01*
X6531571Y-1639571D01*
X6517286Y-1611000D01*
X6488714Y-1568143D01*
X6474428Y-1553857D01*
M02*
