M48
;DRILL file {KiCad (5.0.2)-1} date 05/04/2019 09:56:53
;FORMAT={-:-/ absolute / metric / decimal}
FMAT,2
METRIC,TZ
T1C0.300
T2C1.000
%
G90
G05
T1
X43.26Y21.3
X43.27Y22.65
X44.45Y28.49
X44.57Y40.52
X45.19Y25.12
X45.19Y15.41
X46.3Y39.96
X46.6Y25.41
X47.69Y23.35
X47.8Y15.33
X47.93Y45.06
X48.1Y16.444
X48.77Y32.45
X49.28Y25.11
X50.23Y17.74
X50.4Y36.22
X50.83Y18.57
X51.37Y23.9
X51.39Y15.33
X51.432Y19.155
X51.59Y27.97
X53.24Y28.5
X53.26Y20.15
X54.01Y33.11
X54.448Y29.217
X54.535Y33.785
X54.629Y26.761
X54.96Y27.966
X55.4Y39.56
X55.42Y29.752
X55.95Y30.356
X55.97Y25.62
X56.62Y24.88
X56.67Y39.57
X56.68Y30.756
X56.7Y31.956
X57.28Y34.6
X57.54Y31.97
X57.608Y39.62
X58.16Y18.45
X58.55Y39.6
X59.24Y25.91
X59.576Y26.636
X59.608Y28.57
X59.79Y34.82
X60.19Y21.412
X60.307Y26.96
X60.459Y28.396
X60.79Y22.055
X61.291Y28.379
X61.39Y21.52
X62.14Y43.96
X62.26Y53.16
X62.26Y52.12
X62.627Y31.109
X63.2Y49.95
X63.895Y39.24
X64.14Y29.86
X64.29Y15.35
X64.56Y34.15
X64.97Y33.08
X65.1Y15.37
X66.89Y41.66
X67.2Y44.65
X67.68Y23.25
X68.29Y49.45
X68.57Y32.86
X68.72Y24.33
X69.449Y48.35
X70.07Y28.19
X70.12Y25.24
X70.42Y48.38
X70.77Y28.62
X74.49Y53.16
X80.03Y44.61
X80.03Y19.06
X80.03Y9.26
X81.26Y34.3
T2
X63.48Y10.805
X66.02Y10.805
X68.56Y10.805
X71.1Y10.805
X76.815Y33.665
X76.815Y31.125
X76.815Y28.585
X76.815Y26.045
X76.815Y23.505
X76.815Y20.965
X46.76Y33.02
X76.815Y50.175
X76.815Y47.635
X76.815Y45.095
X76.815Y42.555
X76.815Y40.015
X76.815Y37.475
X67.67Y39.24
X67.67Y26.54
X76.815Y17.155
X76.815Y14.615
X76.815Y12.075
X76.815Y9.535
X76.815Y6.995
X76.815Y4.455
X47.77Y10.81
X50.31Y10.81
X52.85Y10.81
X55.39Y10.81
X57.93Y10.81
T0
M30
