solid Screen_Support
facet normal 0.0 -1.0 0.0
  outer loop
    vertex 33.0 0.0 1.7
    vertex 15.0 0.0 0.0
    vertex 33.0 0.0 0.0
  endloop
endfacet
facet normal 0.0 -1.0 0.0
  outer loop
    vertex 15.0 0.0 0.0
    vertex 33.0 0.0 1.7
    vertex 15.0 0.0 1.7
  endloop
endfacet
facet normal 0.0 -1.0 0.0
  outer loop
    vertex 34.0 0.0 0.0
    vertex 0.0 0.0 -0.49999999999999994
    vertex 34.0 0.0 -0.49999999999999994
  endloop
endfacet
facet normal 0.0 -1.0 0.0
  outer loop
    vertex 0.0 0.0 -0.49999999999999994
    vertex 34.0 0.0 0.0
    vertex 0.0 0.0 0.0
  endloop
endfacet
facet normal 0.0 -1.0 0.0
  outer loop
    vertex 0.0 0.0 0.0
    vertex 34.0 0.0 0.0
    vertex 33.0 0.0 0.0
  endloop
endfacet
facet normal 0.0 -1.0 0.0
  outer loop
    vertex 0.0 0.0 0.0
    vertex 33.0 0.0 0.0
    vertex 15.0 0.0 0.0
  endloop
endfacet
facet normal -1.0 0.0 0.0
  outer loop
    vertex 0.0 40.0 0.0
    vertex 0.0 0.0 -0.49999999999999994
    vertex 0.0 0.0 0.0
  endloop
endfacet
facet normal -1.0 0.0 0.0
  outer loop
    vertex 0.0 0.0 -0.49999999999999994
    vertex 0.0 40.0 0.0
    vertex 0.0 40.0 -0.49999999999999994
  endloop
endfacet
facet normal -0.0 1.0 -0.0
  outer loop
    vertex 15.0 40.0 1.7
    vertex 33.0 40.0 0.0
    vertex 15.0 40.0 0.0
  endloop
endfacet
facet normal -0.0 1.0 -0.0
  outer loop
    vertex 33.0 40.0 0.0
    vertex 15.0 40.0 1.7
    vertex 33.0 40.0 1.7
  endloop
endfacet
facet normal -0.0 1.0 -0.0
  outer loop
    vertex 0.0 40.0 0.0
    vertex 34.0 40.0 -0.49999999999999994
    vertex 0.0 40.0 -0.49999999999999994
  endloop
endfacet
facet normal -0.0 1.0 -0.0
  outer loop
    vertex 34.0 40.0 -0.49999999999999994
    vertex 0.0 40.0 0.0
    vertex 34.0 40.0 0.0
  endloop
endfacet
facet normal -0.0 1.0 -0.0
  outer loop
    vertex 34.0 40.0 0.0
    vertex 0.0 40.0 0.0
    vertex 15.0 40.0 0.0
  endloop
endfacet
facet normal -0.0 1.0 -0.0
  outer loop
    vertex 34.0 40.0 0.0
    vertex 15.0 40.0 0.0
    vertex 33.0 40.0 0.0
  endloop
endfacet
facet normal 0.0 -1.0 0.0
  outer loop
    vertex 33.0 33.0 1.7
    vertex 15.0 33.0 0.0
    vertex 33.0 33.0 0.0
  endloop
endfacet
facet normal 0.0 -1.0 0.0
  outer loop
    vertex 15.0 33.0 0.0
    vertex 33.0 33.0 1.7
    vertex 15.0 33.0 1.7
  endloop
endfacet
facet normal 1.0 -0.0 0.0
  outer loop
    vertex 33.0 40.0 0.0
    vertex 33.0 33.0 1.7
    vertex 33.0 33.0 0.0
  endloop
endfacet
facet normal 1.0 -0.0 0.0
  outer loop
    vertex 33.0 33.0 1.7
    vertex 33.0 40.0 0.0
    vertex 33.0 40.0 1.7
  endloop
endfacet
facet normal 0.0 0.0 -1.0
  outer loop
    vertex 34.0 40.0 -0.49999999999999994
    vertex 0.0 0.0 -0.49999999999999994
    vertex 0.0 40.0 -0.49999999999999994
  endloop
endfacet
facet normal 0.0 0.0 -1.0
  outer loop
    vertex 0.0 0.0 -0.49999999999999994
    vertex 34.0 40.0 -0.49999999999999994
    vertex 34.0 0.0 -0.49999999999999994
  endloop
endfacet
facet normal -0.0 -0.0 1.0
  outer loop
    vertex 34.0 0.0 0.0
    vertex 33.0 7.0 0.0
    vertex 33.0 0.0 0.0
  endloop
endfacet
facet normal -0.0 -0.0 1.0
  outer loop
    vertex 33.0 7.0 0.0
    vertex 34.0 0.0 0.0
    vertex 33.0 33.0 0.0
  endloop
endfacet
facet normal -0.0 -0.0 1.0
  outer loop
    vertex 33.0 33.0 0.0
    vertex 34.0 0.0 0.0
    vertex 33.0 40.0 0.0
  endloop
endfacet
facet normal -0.0 -0.0 1.0
  outer loop
    vertex 33.0 40.0 0.0
    vertex 34.0 0.0 0.0
    vertex 34.0 40.0 0.0
  endloop
endfacet
facet normal -0.0 -0.0 1.0
  outer loop
    vertex 33.0 7.0 0.0
    vertex 15.0 33.0 0.0
    vertex 15.0 7.0 0.0
  endloop
endfacet
facet normal -0.0 -0.0 1.0
  outer loop
    vertex 15.0 33.0 0.0
    vertex 33.0 7.0 0.0
    vertex 33.0 33.0 0.0
  endloop
endfacet
facet normal -0.0 -0.0 1.0
  outer loop
    vertex 15.0 0.0 0.0
    vertex 0.0 40.0 0.0
    vertex 0.0 0.0 0.0
  endloop
endfacet
facet normal -0.0 -0.0 1.0
  outer loop
    vertex 0.0 40.0 0.0
    vertex 15.0 0.0 0.0
    vertex 15.0 40.0 0.0
  endloop
endfacet
facet normal -0.0 -0.0 1.0
  outer loop
    vertex 15.0 40.0 0.0
    vertex 15.0 0.0 0.0
    vertex 15.0 7.0 0.0
  endloop
endfacet
facet normal -0.0 -0.0 1.0
  outer loop
    vertex 15.0 40.0 0.0
    vertex 15.0 7.0 0.0
    vertex 15.0 33.0 0.0
  endloop
endfacet
facet normal 0.0 0.0 1.0
  outer loop
    vertex 33.0 0.0 1.7
    vertex 15.0 7.0 1.7
    vertex 15.0 0.0 1.7
  endloop
endfacet
facet normal 0.0 0.0 1.0
  outer loop
    vertex 15.0 7.0 1.7
    vertex 33.0 0.0 1.7
    vertex 33.0 7.0 1.7
  endloop
endfacet
facet normal 1.0 -0.0 0.0
  outer loop
    vertex 33.0 7.0 0.0
    vertex 33.0 0.0 1.7
    vertex 33.0 0.0 0.0
  endloop
endfacet
facet normal 1.0 -0.0 0.0
  outer loop
    vertex 33.0 0.0 1.7
    vertex 33.0 7.0 0.0
    vertex 33.0 7.0 1.7
  endloop
endfacet
facet normal 0.0 1.0 0.0
  outer loop
    vertex 15.0 7.0 1.7
    vertex 33.0 7.0 0.0
    vertex 15.0 7.0 0.0
  endloop
endfacet
facet normal 0.0 1.0 0.0
  outer loop
    vertex 33.0 7.0 0.0
    vertex 15.0 7.0 1.7
    vertex 33.0 7.0 1.7
  endloop
endfacet
facet normal -1.0 -0.0 -0.0
  outer loop
    vertex 15.0 7.0 1.7
    vertex 15.0 0.0 0.0
    vertex 15.0 0.0 1.7
  endloop
endfacet
facet normal -1.0 -0.0 -0.0
  outer loop
    vertex 15.0 0.0 0.0
    vertex 15.0 7.0 1.7
    vertex 15.0 7.0 0.0
  endloop
endfacet
facet normal 1.0 -0.0 -0.0
  outer loop
    vertex 34.0 40.0 -0.49999999999999994
    vertex 34.0 0.0 0.0
    vertex 34.0 0.0 -0.49999999999999994
  endloop
endfacet
facet normal 1.0 -0.0 -0.0
  outer loop
    vertex 34.0 0.0 0.0
    vertex 34.0 40.0 -0.49999999999999994
    vertex 34.0 40.0 0.0
  endloop
endfacet
facet normal 0.0 0.0 1.0
  outer loop
    vertex 33.0 33.0 1.7
    vertex 15.0 40.0 1.7
    vertex 15.0 33.0 1.7
  endloop
endfacet
facet normal 0.0 0.0 1.0
  outer loop
    vertex 15.0 40.0 1.7
    vertex 33.0 33.0 1.7
    vertex 33.0 40.0 1.7
  endloop
endfacet
facet normal -1.0 -0.0 -0.0
  outer loop
    vertex 15.0 40.0 1.7
    vertex 15.0 33.0 0.0
    vertex 15.0 33.0 1.7
  endloop
endfacet
facet normal -1.0 -0.0 -0.0
  outer loop
    vertex 15.0 33.0 0.0
    vertex 15.0 40.0 1.7
    vertex 15.0 40.0 0.0
  endloop
endfacet
endsolid Screen_Support
