M48
;DRILL file {KiCad (5.0.2)-1} date 01/03/2019 11:01:33
;FORMAT={-:-/ absolute / metric / decimal}
FMAT,2
METRIC,TZ
T1C0.300
T2C1.000
T3C1.020
%
G90
G05
T1
X44.17Y29.56
X44.17Y24.96
X44.17Y15.31
X46.3Y39.96
X47.7Y18.455
X47.74Y15.77
X49.22Y29.72
X49.28Y25.11
X50.18Y22.66
X50.4Y36.22
X50.43Y21.36
X50.78Y23.31
X51.59Y27.97
X53.24Y28.5
X53.24Y15.59
X53.26Y20.15
X54.01Y33.11
X54.29Y46.11
X54.448Y29.217
X54.535Y33.785
X54.634Y26.766
X54.96Y27.966
X55.4Y39.56
X55.42Y29.752
X56.176Y30.352
X56.61Y25.56
X56.67Y39.57
X57.073Y30.729
X57.08Y32.03
X57.21Y24.96
X57.28Y34.6
X57.55Y16.07
X57.608Y39.62
X57.89Y31.82
X58.55Y39.6
X59.24Y25.91
X59.576Y26.636
X59.683Y28.777
X59.79Y34.82
X60.19Y21.412
X60.307Y26.96
X60.356Y28.345
X60.79Y22.055
X61.26Y28.4
X61.39Y21.52
X62.25Y53.16
X62.25Y52.12
X62.47Y44.16
X62.627Y31.109
X63.89Y29.68
X63.895Y39.24
X64.29Y15.35
X64.3Y50.06
X64.56Y34.15
X64.59Y27.68
X64.74Y29.75
X64.97Y33.08
X65.1Y15.37
X66.89Y41.66
X67.2Y44.65
X67.68Y22.62
X68.29Y49.45
X68.57Y32.86
X69.449Y48.35
X70.01Y23.87
X70.42Y48.38
X71.52Y28.52
X72.53Y28.59
X74.49Y53.16
X80.03Y44.61
X80.03Y19.06
X80.03Y9.26
X81.26Y34.3
T2
X63.48Y10.805
X66.02Y10.805
X68.56Y10.805
X71.1Y10.805
X47.77Y10.81
X50.31Y10.81
X52.85Y10.81
X55.39Y10.81
X57.93Y10.81
X76.815Y50.175
X76.815Y47.635
X76.815Y45.095
X76.815Y42.555
X76.815Y40.015
X76.815Y37.475
X76.815Y17.155
X76.815Y14.615
X76.815Y12.075
X76.815Y9.535
X76.815Y6.995
X76.815Y4.455
X76.815Y33.665
X76.815Y31.125
X76.815Y28.585
X76.815Y26.045
X76.815Y23.505
X76.815Y20.965
T3
X67.67Y39.24
X67.67Y26.54
T0
M30
